<?xml version="1.0" encoding="UTF-8" standalone="no"?>
<!DOCTYPE svg PUBLIC "-//W3C//DTD SVG 1.1//EN"
 "http://www.w3.org/Graphics/SVG/1.1/DTD/svg11.dtd">
<!-- Generated by graphviz version 2.40.1 (20161225.0304)
 -->
<!-- Title: G Pages: 1 -->
<svg width="998pt" height="2926pt"
 viewBox="0.00 0.00 998.00 2926.00" xmlns="http://www.w3.org/2000/svg" xmlns:xlink="http://www.w3.org/1999/xlink">
<g id="graph0" class="graph" transform="scale(1 1) rotate(0) translate(4 2922)">
<title>G</title>
<polygon fill="#ffffff" stroke="transparent" points="-4,4 -4,-2922 994,-2922 994,4 -4,4"/>
<g id="clust1" class="cluster">
<title>cluster_Global</title>
<path fill="none" stroke="#c0c0c0" d="M20,-44C20,-44 970,-44 970,-44 976,-44 982,-50 982,-56 982,-56 982,-2898 982,-2898 982,-2904 976,-2910 970,-2910 970,-2910 20,-2910 20,-2910 14,-2910 8,-2904 8,-2898 8,-2898 8,-56 8,-56 8,-50 14,-44 20,-44"/>
<text text-anchor="middle" x="495" y="-2897.2" font-family="Times,serif" font-size="11.00" fill="#c0c0c0">Global</text>
</g>
<g id="clust2" class="cluster">
<title>cluster_\LinHUniX</title>
<path fill="none" stroke="#c0c0c0" d="M28,-204C28,-204 962,-204 962,-204 968,-204 974,-210 974,-216 974,-216 974,-2870 974,-2870 974,-2876 968,-2882 962,-2882 962,-2882 28,-2882 28,-2882 22,-2882 16,-2876 16,-2870 16,-2870 16,-216 16,-216 16,-210 22,-204 28,-204"/>
<text text-anchor="middle" x="495" y="-2869.2" font-family="Times,serif" font-size="11.00" fill="#c0c0c0">LinHUniX</text>
</g>
<g id="clust3" class="cluster">
<title>cluster_\LinHUniX\Mcp</title>
<path fill="none" stroke="#c0c0c0" d="M36,-570C36,-570 954,-570 954,-570 960,-570 966,-576 966,-582 966,-582 966,-1574 966,-1574 966,-1580 960,-1586 954,-1586 954,-1586 36,-1586 36,-1586 30,-1586 24,-1580 24,-1574 24,-1574 24,-582 24,-582 24,-576 30,-570 36,-570"/>
<text text-anchor="middle" x="495" y="-1573.2" font-family="Times,serif" font-size="11.00" fill="#c0c0c0">Mcp</text>
</g>
<g id="clust4" class="cluster">
<title>cluster_\LinHUniX\Mcp\Provider</title>
<path fill="none" stroke="#c0c0c0" d="M789,-1432C789,-1432 939,-1432 939,-1432 945,-1432 951,-1438 951,-1444 951,-1444 951,-1546 951,-1546 951,-1552 945,-1558 939,-1558 939,-1558 789,-1558 789,-1558 783,-1558 777,-1552 777,-1546 777,-1546 777,-1444 777,-1444 777,-1438 783,-1432 789,-1432"/>
<text text-anchor="middle" x="864" y="-1545.2" font-family="Times,serif" font-size="11.00" fill="#c0c0c0">Provider</text>
</g>
<g id="clust5" class="cluster">
<title>cluster_\LinHUniX\Mcp\Model</title>
<path fill="none" stroke="#c0c0c0" d="M44,-1324C44,-1324 702,-1324 702,-1324 708,-1324 714,-1330 714,-1336 714,-1336 714,-1546 714,-1546 714,-1552 708,-1558 702,-1558 702,-1558 44,-1558 44,-1558 38,-1558 32,-1552 32,-1546 32,-1546 32,-1336 32,-1336 32,-1330 38,-1324 44,-1324"/>
<text text-anchor="middle" x="373" y="-1545.2" font-family="Times,serif" font-size="11.00" fill="#c0c0c0">Model</text>
</g>
<g id="clust6" class="cluster">
<title>cluster_\LinHUniX\Mcp\Component</title>
<path fill="none" stroke="#c0c0c0" d="M805.5,-920C805.5,-920 922.5,-920 922.5,-920 928.5,-920 934.5,-926 934.5,-932 934.5,-932 934.5,-1412 934.5,-1412 934.5,-1418 928.5,-1424 922.5,-1424 922.5,-1424 805.5,-1424 805.5,-1424 799.5,-1424 793.5,-1418 793.5,-1412 793.5,-1412 793.5,-932 793.5,-932 793.5,-926 799.5,-920 805.5,-920"/>
<text text-anchor="middle" x="864" y="-1411.2" font-family="Times,serif" font-size="11.00" fill="#c0c0c0">Component</text>
</g>
<g id="clust7" class="cluster">
<title>cluster_\LinHUniX\Mcp\Tools</title>
<path fill="none" stroke="#c0c0c0" d="M782,-624C782,-624 946,-624 946,-624 952,-624 958,-630 958,-636 958,-636 958,-900 958,-900 958,-906 952,-912 946,-912 946,-912 782,-912 782,-912 776,-912 770,-906 770,-900 770,-900 770,-636 770,-636 770,-630 776,-624 782,-624"/>
<text text-anchor="middle" x="864" y="-899.2" font-family="Times,serif" font-size="11.00" fill="#c0c0c0">Tools</text>
</g>
<g id="clust8" class="cluster">
<title>cluster_\LinHUniX\Pdo</title>
<path fill="none" stroke="#c0c0c0" d="M262.5,-2344C262.5,-2344 669.5,-2344 669.5,-2344 675.5,-2344 681.5,-2350 681.5,-2356 681.5,-2356 681.5,-2842 681.5,-2842 681.5,-2848 675.5,-2854 669.5,-2854 669.5,-2854 262.5,-2854 262.5,-2854 256.5,-2854 250.5,-2848 250.5,-2842 250.5,-2842 250.5,-2356 250.5,-2356 250.5,-2350 256.5,-2344 262.5,-2344"/>
<text text-anchor="middle" x="466" y="-2841.2" font-family="Times,serif" font-size="11.00" fill="#c0c0c0">Pdo</text>
</g>
<g id="clust9" class="cluster">
<title>cluster_\LinHUniX\Pdo\Service</title>
<path fill="none" stroke="#c0c0c0" d="M565,-2754C565,-2754 641,-2754 641,-2754 647,-2754 653,-2760 653,-2766 653,-2766 653,-2814 653,-2814 653,-2820 647,-2826 641,-2826 641,-2826 565,-2826 565,-2826 559,-2826 553,-2820 553,-2814 553,-2814 553,-2766 553,-2766 553,-2760 559,-2754 565,-2754"/>
<text text-anchor="middle" x="603" y="-2813.2" font-family="Times,serif" font-size="11.00" fill="#c0c0c0">Service</text>
</g>
<g id="clust10" class="cluster">
<title>cluster_\LinHUniX\Pdo\Api</title>
<path fill="none" stroke="#c0c0c0" d="M544.5,-2352C544.5,-2352 661.5,-2352 661.5,-2352 667.5,-2352 673.5,-2358 673.5,-2364 673.5,-2364 673.5,-2412 673.5,-2412 673.5,-2418 667.5,-2424 661.5,-2424 661.5,-2424 544.5,-2424 544.5,-2424 538.5,-2424 532.5,-2418 532.5,-2412 532.5,-2412 532.5,-2364 532.5,-2364 532.5,-2358 538.5,-2352 544.5,-2352"/>
<text text-anchor="middle" x="603" y="-2411.2" font-family="Times,serif" font-size="11.00" fill="#c0c0c0">Api</text>
</g>
<g id="clust11" class="cluster">
<title>cluster_\LinHUniX\Pdo\Driver</title>
<path fill="none" stroke="#c0c0c0" d="M301,-2566C301,-2566 648,-2566 648,-2566 654,-2566 660,-2572 660,-2578 660,-2578 660,-2734 660,-2734 660,-2740 654,-2746 648,-2746 648,-2746 301,-2746 301,-2746 295,-2746 289,-2740 289,-2734 289,-2734 289,-2578 289,-2578 289,-2572 295,-2566 301,-2566"/>
<text text-anchor="middle" x="474.5" y="-2733.2" font-family="Times,serif" font-size="11.00" fill="#c0c0c0">Driver</text>
</g>
<g id="clust12" class="cluster">
<title>cluster_\LinHUniX\Pdo\Model</title>
<path fill="none" stroke="#c0c0c0" d="M270.5,-2432C270.5,-2432 400.5,-2432 400.5,-2432 406.5,-2432 412.5,-2438 412.5,-2444 412.5,-2444 412.5,-2492 412.5,-2492 412.5,-2498 406.5,-2504 400.5,-2504 400.5,-2504 270.5,-2504 270.5,-2504 264.5,-2504 258.5,-2498 258.5,-2492 258.5,-2492 258.5,-2444 258.5,-2444 258.5,-2438 264.5,-2432 270.5,-2432"/>
<text text-anchor="middle" x="335.5" y="-2491.2" font-family="Times,serif" font-size="11.00" fill="#c0c0c0">Model</text>
</g>
<g id="clust13" class="cluster">
<title>cluster_\LinHUniX\Pdo\Query</title>
<path fill="none" stroke="#c0c0c0" d="M565,-2432C565,-2432 641,-2432 641,-2432 647,-2432 653,-2438 653,-2444 653,-2444 653,-2546 653,-2546 653,-2552 647,-2558 641,-2558 641,-2558 565,-2558 565,-2558 559,-2558 553,-2552 553,-2546 553,-2546 553,-2444 553,-2444 553,-2438 559,-2432 565,-2432"/>
<text text-anchor="middle" x="603" y="-2545.2" font-family="Times,serif" font-size="11.00" fill="#c0c0c0">Query</text>
</g>
<g id="clust14" class="cluster">
<title>cluster_\LinHUniX\Gfx</title>
<path fill="none" stroke="#c0c0c0" d="M536.5,-1764C536.5,-1764 669.5,-1764 669.5,-1764 675.5,-1764 681.5,-1770 681.5,-1776 681.5,-1776 681.5,-2074 681.5,-2074 681.5,-2080 675.5,-2086 669.5,-2086 669.5,-2086 536.5,-2086 536.5,-2086 530.5,-2086 524.5,-2080 524.5,-2074 524.5,-2074 524.5,-1776 524.5,-1776 524.5,-1770 530.5,-1764 536.5,-1764"/>
<text text-anchor="middle" x="603" y="-2073.2" font-family="Times,serif" font-size="11.00" fill="#c0c0c0">Gfx</text>
</g>
<g id="clust15" class="cluster">
<title>cluster_\LinHUniX\Gfx\Service</title>
<path fill="none" stroke="#c0c0c0" d="M565,-1986C565,-1986 641,-1986 641,-1986 647,-1986 653,-1992 653,-1998 653,-1998 653,-2046 653,-2046 653,-2052 647,-2058 641,-2058 641,-2058 565,-2058 565,-2058 559,-2058 553,-2052 553,-2046 553,-2046 553,-1998 553,-1998 553,-1992 559,-1986 565,-1986"/>
<text text-anchor="middle" x="603" y="-2045.2" font-family="Times,serif" font-size="11.00" fill="#c0c0c0">Service</text>
</g>
<g id="clust16" class="cluster">
<title>cluster_\LinHUniX\Gfx\Component</title>
<path fill="none" stroke="#c0c0c0" d="M561.5,-1852C561.5,-1852 644.5,-1852 644.5,-1852 650.5,-1852 656.5,-1858 656.5,-1864 656.5,-1864 656.5,-1966 656.5,-1966 656.5,-1972 650.5,-1978 644.5,-1978 644.5,-1978 561.5,-1978 561.5,-1978 555.5,-1978 549.5,-1972 549.5,-1966 549.5,-1966 549.5,-1864 549.5,-1864 549.5,-1858 555.5,-1852 561.5,-1852"/>
<text text-anchor="middle" x="603" y="-1965.2" font-family="Times,serif" font-size="11.00" fill="#c0c0c0">Component</text>
</g>
<g id="clust17" class="cluster">
<title>cluster_\LinHUniX\Gfx\Controller</title>
<path fill="none" stroke="#c0c0c0" d="M544.5,-1772C544.5,-1772 661.5,-1772 661.5,-1772 667.5,-1772 673.5,-1778 673.5,-1784 673.5,-1784 673.5,-1832 673.5,-1832 673.5,-1838 667.5,-1844 661.5,-1844 661.5,-1844 544.5,-1844 544.5,-1844 538.5,-1844 532.5,-1838 532.5,-1832 532.5,-1832 532.5,-1784 532.5,-1784 532.5,-1778 538.5,-1772 544.5,-1772"/>
<text text-anchor="middle" x="603" y="-1831.2" font-family="Times,serif" font-size="11.00" fill="#c0c0c0">Controller</text>
</g>
<g id="clust18" class="cluster">
<title>cluster_\LinHUniX\Mail</title>
<path fill="none" stroke="#c0c0c0" d="M262.5,-212C262.5,-212 408.5,-212 408.5,-212 414.5,-212 420.5,-218 420.5,-224 420.5,-224 420.5,-550 420.5,-550 420.5,-556 414.5,-562 408.5,-562 408.5,-562 262.5,-562 262.5,-562 256.5,-562 250.5,-556 250.5,-550 250.5,-550 250.5,-224 250.5,-224 250.5,-218 256.5,-212 262.5,-212"/>
<text text-anchor="middle" x="335.5" y="-549.2" font-family="Times,serif" font-size="11.00" fill="#c0c0c0">Mail</text>
</g>
<g id="clust19" class="cluster">
<title>cluster_\LinHUniX\Mail\Component</title>
<path fill="none" stroke="#c0c0c0" d="M270.5,-220C270.5,-220 400.5,-220 400.5,-220 406.5,-220 412.5,-226 412.5,-232 412.5,-232 412.5,-442 412.5,-442 412.5,-448 406.5,-454 400.5,-454 400.5,-454 270.5,-454 270.5,-454 264.5,-454 258.5,-448 258.5,-442 258.5,-442 258.5,-232 258.5,-232 258.5,-226 264.5,-220 270.5,-220"/>
<text text-anchor="middle" x="335.5" y="-441.2" font-family="Times,serif" font-size="11.00" fill="#c0c0c0">Component</text>
</g>
<g id="clust20" class="cluster">
<title>cluster_\LinHUniX\Mail\Service</title>
<path fill="none" stroke="#c0c0c0" d="M294,-462C294,-462 377,-462 377,-462 383,-462 389,-468 389,-474 389,-474 389,-522 389,-522 389,-528 383,-534 377,-534 377,-534 294,-534 294,-534 288,-534 282,-528 282,-522 282,-522 282,-474 282,-474 282,-468 288,-462 294,-462"/>
<text text-anchor="middle" x="335.5" y="-521.2" font-family="Times,serif" font-size="11.00" fill="#c0c0c0">Service</text>
</g>
<g id="clust21" class="cluster">
<title>cluster_\LinHUniX\Auth</title>
<path fill="none" stroke="#c0c0c0" d="M509.5,-1594C509.5,-1594 923.5,-1594 923.5,-1594 929.5,-1594 935.5,-1600 935.5,-1606 935.5,-1606 935.5,-1744 935.5,-1744 935.5,-1750 929.5,-1756 923.5,-1756 923.5,-1756 509.5,-1756 509.5,-1756 503.5,-1756 497.5,-1750 497.5,-1744 497.5,-1744 497.5,-1606 497.5,-1606 497.5,-1600 503.5,-1594 509.5,-1594"/>
<text text-anchor="middle" x="716.5" y="-1743.2" font-family="Times,serif" font-size="11.00" fill="#c0c0c0">Auth</text>
</g>
<g id="clust22" class="cluster">
<title>cluster_\LinHUniX\Auth\Service</title>
<path fill="none" stroke="#c0c0c0" d="M812.5,-1602C812.5,-1602 915.5,-1602 915.5,-1602 921.5,-1602 927.5,-1608 927.5,-1614 927.5,-1614 927.5,-1716 927.5,-1716 927.5,-1722 921.5,-1728 915.5,-1728 915.5,-1728 812.5,-1728 812.5,-1728 806.5,-1728 800.5,-1722 800.5,-1716 800.5,-1716 800.5,-1614 800.5,-1614 800.5,-1608 806.5,-1602 812.5,-1602"/>
<text text-anchor="middle" x="864" y="-1715.2" font-family="Times,serif" font-size="11.00" fill="#c0c0c0">Service</text>
</g>
<g id="clust23" class="cluster">
<title>cluster_\LinHUniX\Auth\Model</title>
<path fill="none" stroke="#c0c0c0" d="M517.5,-1602C517.5,-1602 688.5,-1602 688.5,-1602 694.5,-1602 700.5,-1608 700.5,-1614 700.5,-1614 700.5,-1662 700.5,-1662 700.5,-1668 694.5,-1674 688.5,-1674 688.5,-1674 517.5,-1674 517.5,-1674 511.5,-1674 505.5,-1668 505.5,-1662 505.5,-1662 505.5,-1614 505.5,-1614 505.5,-1608 511.5,-1602 517.5,-1602"/>
<text text-anchor="middle" x="603" y="-1661.2" font-family="Times,serif" font-size="11.00" fill="#c0c0c0">Model</text>
</g>
<g id="clust24" class="cluster">
<title>cluster_\LinHUniX\Cron</title>
<path fill="none" stroke="#c0c0c0" d="M533.5,-2094C533.5,-2094 672.5,-2094 672.5,-2094 678.5,-2094 684.5,-2100 684.5,-2106 684.5,-2106 684.5,-2324 684.5,-2324 684.5,-2330 678.5,-2336 672.5,-2336 672.5,-2336 533.5,-2336 533.5,-2336 527.5,-2336 521.5,-2330 521.5,-2324 521.5,-2324 521.5,-2106 521.5,-2106 521.5,-2100 527.5,-2094 533.5,-2094"/>
<text text-anchor="middle" x="603" y="-2323.2" font-family="Times,serif" font-size="11.00" fill="#c0c0c0">Cron</text>
</g>
<g id="clust25" class="cluster">
<title>cluster_\LinHUniX\Cron\Service</title>
<path fill="none" stroke="#c0c0c0" d="M561.5,-2102C561.5,-2102 644.5,-2102 644.5,-2102 650.5,-2102 656.5,-2108 656.5,-2114 656.5,-2114 656.5,-2162 656.5,-2162 656.5,-2168 650.5,-2174 644.5,-2174 644.5,-2174 561.5,-2174 561.5,-2174 555.5,-2174 549.5,-2168 549.5,-2162 549.5,-2162 549.5,-2114 549.5,-2114 549.5,-2108 555.5,-2102 561.5,-2102"/>
<text text-anchor="middle" x="603" y="-2161.2" font-family="Times,serif" font-size="11.00" fill="#c0c0c0">Service</text>
</g>
<g id="clust26" class="cluster">
<title>cluster_\LinHUniX\Cron\Controller</title>
<path fill="none" stroke="#c0c0c0" d="M541.5,-2182C541.5,-2182 664.5,-2182 664.5,-2182 670.5,-2182 676.5,-2188 676.5,-2194 676.5,-2194 676.5,-2296 676.5,-2296 676.5,-2302 670.5,-2308 664.5,-2308 664.5,-2308 541.5,-2308 541.5,-2308 535.5,-2308 529.5,-2302 529.5,-2296 529.5,-2296 529.5,-2194 529.5,-2194 529.5,-2188 535.5,-2182 541.5,-2182"/>
<text text-anchor="middle" x="603" y="-2295.2" font-family="Times,serif" font-size="11.00" fill="#c0c0c0">Controller</text>
</g>
<!-- \\LinHUniX\\Mcp\\Provider\\loggerProviderModel -->
<g id="node1" class="node">
<title>\\LinHUniX\\Mcp\\Provider\\loggerProviderModel</title>
<polygon fill="none" stroke="#000000" points="936.5,-1530 791.5,-1530 791.5,-1494 936.5,-1494 936.5,-1530"/>
<text text-anchor="middle" x="864" y="-1509.2" font-family="Courier,monospace" font-size="11.00" fill="#000000">loggerProviderModel</text>
</g>
<!-- \\LinHUniX\\Mcp\\Model\\mcpServiceProviderModelClass -->
<g id="node11" class="node">
<title>\\LinHUniX\\Mcp\\Model\\mcpServiceProviderModelClass</title>
<polygon fill="none" stroke="#000000" points="706,-1368 500,-1368 500,-1332 706,-1332 706,-1368"/>
<text text-anchor="middle" x="603" y="-1347.2" font-family="Courier,monospace" font-size="11.00" fill="#000000">mcpServiceProviderModelClass</text>
</g>
<!-- \\LinHUniX\\Mcp\\Provider\\loggerProviderModel&#45;&gt;\\LinHUniX\\Mcp\\Model\\mcpServiceProviderModelClass -->
<g id="edge1" class="edge">
<title>\\LinHUniX\\Mcp\\Provider\\loggerProviderModel&#45;&gt;\\LinHUniX\\Mcp\\Model\\mcpServiceProviderModelClass</title>
<path fill="none" stroke="#000000" stroke-dasharray="1,5" d="M791.1637,-1497.7171C783.552,-1494.3393 776.306,-1490.1631 770,-1485 728.1647,-1450.7471 756.5302,-1410.3862 714,-1377 712.3912,-1375.7371 710.7319,-1374.5322 709.0288,-1373.3825"/>
<polygon fill="none" stroke="#000000" points="710.5565,-1370.2178 700.1789,-1368.0831 706.9602,-1376.2234 710.5565,-1370.2178"/>
</g>
<!-- \\LinHUniX\\Mcp\\Provider\\settingsProviderModel -->
<g id="node2" class="node">
<title>\\LinHUniX\\Mcp\\Provider\\settingsProviderModel</title>
<polygon fill="none" stroke="#000000" points="943,-1476 785,-1476 785,-1440 943,-1440 943,-1476"/>
<text text-anchor="middle" x="864" y="-1455.2" font-family="Courier,monospace" font-size="11.00" fill="#000000">settingsProviderModel</text>
</g>
<!-- \\LinHUniX\\Mcp\\Provider\\settingsProviderModel&#45;&gt;\\LinHUniX\\Mcp\\Model\\mcpServiceProviderModelClass -->
<g id="edge22" class="edge">
<title>\\LinHUniX\\Mcp\\Provider\\settingsProviderModel&#45;&gt;\\LinHUniX\\Mcp\\Model\\mcpServiceProviderModelClass</title>
<path fill="none" stroke="#000000" stroke-dasharray="1,5" d="M795.2492,-1439.8918C786.4973,-1436.488 777.8618,-1432.5413 770,-1428 740.8502,-1411.1619 743.7237,-1392.803 714,-1377 710.5045,-1375.1416 706.8793,-1373.4088 703.1658,-1371.7934"/>
<polygon fill="none" stroke="#000000" points="704.3606,-1368.5015 693.777,-1368.015 701.7472,-1374.9954 704.3606,-1368.5015"/>
</g>
<!-- \\LinHUniX\\Mcp\\Model\\mcpRemoteObjectModelClass -->
<g id="node3" class="node">
<title>\\LinHUniX\\Mcp\\Model\\mcpRemoteObjectModelClass</title>
<polygon fill="none" stroke="#000000" points="428,-1530 243,-1530 243,-1494 428,-1494 428,-1530"/>
<text text-anchor="middle" x="335.5" y="-1509.2" font-family="Courier,monospace" font-size="11.00" fill="#000000">mcpRemoteObjectModelClass</text>
</g>
<!-- \\LinHUniX\\Mcp\\Model\\mcpBaseModelClass -->
<g id="node4" class="node">
<title>\\LinHUniX\\Mcp\\Model\\mcpBaseModelClass</title>
<polygon fill="none" stroke="#000000" points="171,-1530 40,-1530 40,-1494 171,-1494 171,-1530"/>
<text text-anchor="middle" x="105.5" y="-1509.2" font-family="Courier,monospace" font-size="11.00" fill="#000000">mcpBaseModelClass</text>
</g>
<!-- \\LinHUniX\\Mcp\\Model\\mcpRemoteObjectModelClass&#45;&gt;\\LinHUniX\\Mcp\\Model\\mcpBaseModelClass -->
<g id="edge2" class="edge">
<title>\\LinHUniX\\Mcp\\Model\\mcpRemoteObjectModelClass&#45;&gt;\\LinHUniX\\Mcp\\Model\\mcpBaseModelClass</title>
<path fill="none" stroke="#000000" d="M242.9444,-1512C222.429,-1512 200.9222,-1512 181.1743,-1512"/>
<polygon fill="none" stroke="#000000" points="181.0223,-1508.5001 171.0223,-1512 181.0222,-1515.5001 181.0223,-1508.5001"/>
</g>
<!-- \\LinHUniX\\Mcp\\Model\\mcpConfigArrayModelClass -->
<g id="node5" class="node">
<title>\\LinHUniX\\Mcp\\Model\\mcpConfigArrayModelClass</title>
<polygon fill="none" stroke="#000000" points="692.5,-1476 513.5,-1476 513.5,-1440 692.5,-1440 692.5,-1476"/>
<text text-anchor="middle" x="603" y="-1455.2" font-family="Courier,monospace" font-size="11.00" fill="#000000">mcpConfigArrayModelClass</text>
</g>
<!-- \\ArrayAccess -->
<g id="node54" class="node">
<title>\\ArrayAccess</title>
<ellipse fill="none" stroke="#000000" cx="335.5" cy="-18" rx="61.99" ry="18"/>
<text text-anchor="middle" x="335.5" y="-14.3" font-family="Times,serif" font-size="14.00" fill="#c0c0c0">\ArrayAccess</text>
</g>
<!-- \\LinHUniX\\Mcp\\Model\\mcpConfigArrayModelClass&#45;&gt;\\ArrayAccess -->
<g id="edge4" class="edge">
<title>\\LinHUniX\\Mcp\\Model\\mcpConfigArrayModelClass&#45;&gt;\\ArrayAccess</title>
<path fill="none" stroke="#000000" stroke-dasharray="1,5" d="M513.2349,-1444.3866C507.3102,-1440.8047 501.9457,-1436.4009 497.5,-1431 411.5632,-1326.5993 461.0728,-347.1138 428,-216 411.6175,-151.0533 373.841,-81.5218 351.9681,-44.6146"/>
<polygon fill="none" stroke="#000000" points="354.9194,-42.7305 346.7726,-35.957 348.9172,-46.3325 354.9194,-42.7305"/>
</g>
<!-- \\LinHUniX\\Mcp\\Model\\mcpControllerModelClass -->
<g id="node6" class="node">
<title>\\LinHUniX\\Mcp\\Model\\mcpControllerModelClass</title>
<polygon fill="none" stroke="#000000" points="421.5,-1368 249.5,-1368 249.5,-1332 421.5,-1332 421.5,-1368"/>
<text text-anchor="middle" x="335.5" y="-1347.2" font-family="Courier,monospace" font-size="11.00" fill="#000000">mcpControllerModelClass</text>
</g>
<!-- \\LinHUniX\\Mcp\\Model\\mcpControllerModelClass&#45;&gt;\\LinHUniX\\Mcp\\Model\\mcpBaseModelClass -->
<g id="edge8" class="edge">
<title>\\LinHUniX\\Mcp\\Model\\mcpControllerModelClass&#45;&gt;\\LinHUniX\\Mcp\\Model\\mcpBaseModelClass</title>
<path fill="none" stroke="#000000" d="M261.3993,-1368.0021C255.0006,-1370.6311 248.7732,-1373.6165 243,-1377 194.1933,-1405.6041 149.87,-1455.3237 125.4029,-1485.7822"/>
<polygon fill="none" stroke="#000000" points="122.4976,-1483.8135 119.0412,-1493.8288 127.9888,-1488.1549 122.4976,-1483.8135"/>
</g>
<!-- \\LinHUniX\\Mcp\\Model\\mcpPageApiModelClass -->
<g id="node7" class="node">
<title>\\LinHUniX\\Mcp\\Model\\mcpPageApiModelClass</title>
<polygon fill="none" stroke="#000000" points="679,-1530 527,-1530 527,-1494 679,-1494 679,-1530"/>
<text text-anchor="middle" x="603" y="-1509.2" font-family="Courier,monospace" font-size="11.00" fill="#000000">mcpPageApiModelClass</text>
</g>
<!-- \\LinHUniX\\Mcp\\Model\\mcpPageApiModelClass&#45;&gt;\\LinHUniX\\Mcp\\Model\\mcpControllerModelClass -->
<g id="edge15" class="edge">
<title>\\LinHUniX\\Mcp\\Model\\mcpPageApiModelClass&#45;&gt;\\LinHUniX\\Mcp\\Model\\mcpControllerModelClass</title>
<path fill="none" stroke="#000000" d="M526.9804,-1499.9435C516.4965,-1496.223 506.3175,-1491.3586 497.5,-1485 451.2025,-1451.6134 473.7325,-1411.1564 428,-1377 426.1487,-1375.6173 424.2278,-1374.3052 422.2503,-1373.0601"/>
<polygon fill="none" stroke="#000000" points="423.6918,-1369.8557 413.2574,-1368.019 420.269,-1375.9618 423.6918,-1369.8557"/>
</g>
<!-- \\LinHUniX\\Mcp\\Model\\mcpRemoteApiModelClass -->
<g id="node8" class="node">
<title>\\LinHUniX\\Mcp\\Model\\mcpRemoteApiModelClass</title>
<polygon fill="none" stroke="#000000" points="418,-1476 253,-1476 253,-1440 418,-1440 418,-1476"/>
<text text-anchor="middle" x="335.5" y="-1455.2" font-family="Courier,monospace" font-size="11.00" fill="#000000">mcpRemoteApiModelClass</text>
</g>
<!-- \\LinHUniX\\Mcp\\Model\\mcpRemoteApiModelClass&#45;&gt;\\LinHUniX\\Mcp\\Model\\mcpBaseModelClass -->
<g id="edge19" class="edge">
<title>\\LinHUniX\\Mcp\\Model\\mcpRemoteApiModelClass&#45;&gt;\\LinHUniX\\Mcp\\Model\\mcpBaseModelClass</title>
<path fill="none" stroke="#000000" d="M258.5936,-1476.0563C233.5762,-1481.9299 205.8473,-1488.4402 180.9384,-1494.2884"/>
<polygon fill="none" stroke="#000000" points="180.1162,-1490.8862 171.1809,-1496.5793 181.7162,-1497.7009 180.1162,-1490.8862"/>
</g>
<!-- \\LinHUniX\\Mcp\\Model\\mcpServiceModelClass -->
<g id="node9" class="node">
<title>\\LinHUniX\\Mcp\\Model\\mcpServiceModelClass</title>
<polygon fill="none" stroke="#000000" points="411.5,-1422 259.5,-1422 259.5,-1386 411.5,-1386 411.5,-1422"/>
<text text-anchor="middle" x="335.5" y="-1401.2" font-family="Courier,monospace" font-size="11.00" fill="#000000">mcpServiceModelClass</text>
</g>
<!-- \\LinHUniX\\Mcp\\Model\\mcpServiceModelClass&#45;&gt;\\LinHUniX\\Mcp\\Model\\mcpBaseModelClass -->
<g id="edge20" class="edge">
<title>\\LinHUniX\\Mcp\\Model\\mcpServiceModelClass&#45;&gt;\\LinHUniX\\Mcp\\Model\\mcpBaseModelClass</title>
<path fill="none" stroke="#000000" d="M266.6271,-1422.0288C258.5563,-1424.7488 250.5238,-1427.7462 243,-1431 206.2862,-1446.8776 167.2502,-1470.609 140.1884,-1488.2856"/>
<polygon fill="none" stroke="#000000" points="138.2595,-1485.3651 131.841,-1493.7944 142.1151,-1491.2075 138.2595,-1485.3651"/>
</g>
<!-- \\LinHUniX\\Mcp\\Model\\mcpDebugModelClass -->
<g id="node10" class="node">
<title>\\LinHUniX\\Mcp\\Model\\mcpDebugModelClass</title>
<polygon fill="none" stroke="#000000" points="672,-1422 534,-1422 534,-1386 672,-1386 672,-1422"/>
<text text-anchor="middle" x="603" y="-1401.2" font-family="Courier,monospace" font-size="11.00" fill="#000000">mcpDebugModelClass</text>
</g>
<!-- \\LinHUniX\\Mcp\\Component\\mcpDebugClass -->
<g id="node12" class="node">
<title>\\LinHUniX\\Mcp\\Component\\mcpDebugClass</title>
<polygon fill="none" stroke="#000000" points="916,-1396 812,-1396 812,-1360 916,-1360 916,-1396"/>
<text text-anchor="middle" x="864" y="-1375.2" font-family="Courier,monospace" font-size="11.00" fill="#000000">mcpDebugClass</text>
</g>
<!-- \\LinHUniX\\Mcp\\Component\\mcpMenuClass -->
<g id="node13" class="node">
<title>\\LinHUniX\\Mcp\\Component\\mcpMenuClass</title>
<polygon fill="none" stroke="#000000" points="913,-1342 815,-1342 815,-1306 913,-1306 913,-1342"/>
<text text-anchor="middle" x="864" y="-1321.2" font-family="Courier,monospace" font-size="11.00" fill="#000000">mcpMenuClass</text>
</g>
<!-- \\LinHUniX\\Mcp\\Component\\mcpMailClass -->
<g id="node14" class="node">
<title>\\LinHUniX\\Mcp\\Component\\mcpMailClass</title>
<polygon fill="none" stroke="#000000" points="913,-1288 815,-1288 815,-1252 913,-1252 913,-1288"/>
<text text-anchor="middle" x="864" y="-1267.2" font-family="Courier,monospace" font-size="11.00" fill="#000000">mcpMailClass</text>
</g>
<!-- \\LinHUniX\\Mcp\\Component\\mcpToolsClass -->
<g id="node15" class="node">
<title>\\LinHUniX\\Mcp\\Component\\mcpToolsClass</title>
<polygon fill="none" stroke="#000000" points="916,-1234 812,-1234 812,-1198 916,-1198 916,-1234"/>
<text text-anchor="middle" x="864" y="-1213.2" font-family="Courier,monospace" font-size="11.00" fill="#000000">mcpToolsClass</text>
</g>
<!-- \\LinHUniX\\Mcp\\Component\\mcpTemplateClass -->
<g id="node16" class="node">
<title>\\LinHUniX\\Mcp\\Component\\mcpTemplateClass</title>
<polygon fill="none" stroke="#000000" points="926.5,-1180 801.5,-1180 801.5,-1144 926.5,-1144 926.5,-1180"/>
<text text-anchor="middle" x="864" y="-1159.2" font-family="Courier,monospace" font-size="11.00" fill="#000000">mcpTemplateClass</text>
</g>
<!-- \\LinHUniX\\Mcp\\Component\\mcpCoreClass -->
<g id="node17" class="node">
<title>\\LinHUniX\\Mcp\\Component\\mcpCoreClass</title>
<polygon fill="none" stroke="#000000" points="913,-1126 815,-1126 815,-1090 913,-1090 913,-1126"/>
<text text-anchor="middle" x="864" y="-1105.2" font-family="Courier,monospace" font-size="11.00" fill="#000000">mcpCoreClass</text>
</g>
<!-- \\LinHUniX\\Mcp\\Component\\mcpLanguageClass -->
<g id="node18" class="node">
<title>\\LinHUniX\\Mcp\\Component\\mcpLanguageClass</title>
<polygon fill="none" stroke="#000000" points="926.5,-1072 801.5,-1072 801.5,-1036 926.5,-1036 926.5,-1072"/>
<text text-anchor="middle" x="864" y="-1051.2" font-family="Courier,monospace" font-size="11.00" fill="#000000">mcpLanguageClass</text>
</g>
<!-- \\LinHUniX\\Mcp\\Component\\mcpProxyClass -->
<g id="node19" class="node">
<title>\\LinHUniX\\Mcp\\Component\\mcpProxyClass</title>
<polygon fill="none" stroke="#000000" points="916,-1018 812,-1018 812,-982 916,-982 916,-1018"/>
<text text-anchor="middle" x="864" y="-997.2" font-family="Courier,monospace" font-size="11.00" fill="#000000">mcpProxyClass</text>
</g>
<!-- \\LinHUniX\\Mcp\\Component\\mcpApiClass -->
<g id="node20" class="node">
<title>\\LinHUniX\\Mcp\\Component\\mcpApiClass</title>
<polygon fill="none" stroke="#000000" points="909.5,-964 818.5,-964 818.5,-928 909.5,-928 909.5,-964"/>
<text text-anchor="middle" x="864" y="-943.2" font-family="Courier,monospace" font-size="11.00" fill="#000000">mcpApiClass</text>
</g>
<!-- \\LinHUniX\\Mcp\\Tools\\pharizeShell -->
<g id="node21" class="node">
<title>\\LinHUniX\\Mcp\\Tools\\pharizeShell</title>
<polygon fill="none" stroke="#000000" points="913,-884 815,-884 815,-848 913,-848 913,-884"/>
<text text-anchor="middle" x="864" y="-863.2" font-family="Courier,monospace" font-size="11.00" fill="#000000">pharizeShell</text>
</g>
<!-- \\LinHUniX\\Mcp\\Tools\\browserData -->
<g id="node22" class="node">
<title>\\LinHUniX\\Mcp\\Tools\\browserData</title>
<polygon fill="none" stroke="#000000" points="909.5,-830 818.5,-830 818.5,-794 909.5,-794 909.5,-830"/>
<text text-anchor="middle" x="864" y="-809.2" font-family="Courier,monospace" font-size="11.00" fill="#000000">browserData</text>
</g>
<!-- \\LinHUniX\\Mcp\\Tools\\UniversalContentManager -->
<g id="node23" class="node">
<title>\\LinHUniX\\Mcp\\Tools\\UniversalContentManager</title>
<polygon fill="none" stroke="#000000" points="950,-776 778,-776 778,-740 950,-740 950,-776"/>
<text text-anchor="middle" x="864" y="-755.2" font-family="Courier,monospace" font-size="11.00" fill="#000000">UniversalContentManager</text>
</g>
<!-- \\LinHUniX\\Mcp\\Tools\\scheduler -->
<g id="node24" class="node">
<title>\\LinHUniX\\Mcp\\Tools\\scheduler</title>
<polygon fill="none" stroke="#000000" points="902.5,-722 825.5,-722 825.5,-686 902.5,-686 902.5,-722"/>
<text text-anchor="middle" x="864" y="-701.2" font-family="Courier,monospace" font-size="11.00" fill="#000000">scheduler</text>
</g>
<!-- \\LinHUniX\\Mcp\\Tools\\pharizeBase -->
<g id="node25" class="node">
<title>\\LinHUniX\\Mcp\\Tools\\pharizeBase</title>
<polygon fill="none" stroke="#000000" points="909.5,-668 818.5,-668 818.5,-632 909.5,-632 909.5,-668"/>
<text text-anchor="middle" x="864" y="-647.2" font-family="Courier,monospace" font-size="11.00" fill="#000000">pharizeBase</text>
</g>
<!-- \\LinHUniX\\Mcp\\masterControlProgram -->
<g id="node26" class="node">
<title>\\LinHUniX\\Mcp\\masterControlProgram</title>
<polygon fill="none" stroke="#000000" points="940,-614 788,-614 788,-578 940,-578 940,-614"/>
<text text-anchor="middle" x="864" y="-593.2" font-family="Courier,monospace" font-size="11.00" fill="#000000">masterControlProgram</text>
</g>
<!-- \\LinHUniX\\Pdo\\Service\\pdoService -->
<g id="node27" class="node">
<title>\\LinHUniX\\Pdo\\Service\\pdoService</title>
<polygon fill="none" stroke="#000000" points="645,-2798 561,-2798 561,-2762 645,-2762 645,-2798"/>
<text text-anchor="middle" x="603" y="-2777.2" font-family="Courier,monospace" font-size="11.00" fill="#000000">pdoService</text>
</g>
<!-- \\LinHUniX\\Pdo\\Service\\pdoService&#45;&gt;\\LinHUniX\\Mcp\\Model\\mcpBaseModelClass -->
<g id="edge3" class="edge">
<title>\\LinHUniX\\Pdo\\Service\\pdoService&#45;&gt;\\LinHUniX\\Mcp\\Model\\mcpBaseModelClass</title>
<path fill="none" stroke="#000000" d="M560.8807,-2791.5453C485.7555,-2809.3084 328.5218,-2833.204 243,-2750 153.1412,-2662.5765 113.2528,-1717.7025 106.5376,-1540.537"/>
<polygon fill="none" stroke="#000000" points="110.0311,-1540.2954 106.1593,-1530.4334 103.036,-1540.5574 110.0311,-1540.2954"/>
</g>
<!-- \\LinHUniX\\Pdo\\Api\\RestQueryJsonApi -->
<g id="node28" class="node">
<title>\\LinHUniX\\Pdo\\Api\\RestQueryJsonApi</title>
<polygon fill="none" stroke="#000000" points="665.5,-2396 540.5,-2396 540.5,-2360 665.5,-2360 665.5,-2396"/>
<text text-anchor="middle" x="603" y="-2375.2" font-family="Courier,monospace" font-size="11.00" fill="#000000">RestQueryJsonApi</text>
</g>
<!-- \\LinHUniX\\Pdo\\Api\\RestQueryJsonApi&#45;&gt;\\LinHUniX\\Mcp\\Model\\mcpControllerModelClass -->
<g id="edge6" class="edge">
<title>\\LinHUniX\\Pdo\\Api\\RestQueryJsonApi&#45;&gt;\\LinHUniX\\Mcp\\Model\\mcpControllerModelClass</title>
<path fill="none" stroke="#000000" d="M555.0185,-2359.8977C533.7198,-2349.2878 510.5608,-2333.642 497.5,-2312 389.8466,-2133.6159 559.0898,-1538.9432 428,-1377 427.4014,-1376.2605 426.7837,-1375.5404 426.148,-1374.8395"/>
<polygon fill="none" stroke="#000000" points="428.4466,-1372.1986 418.7044,-1368.0343 423.7233,-1377.365 428.4466,-1372.1986"/>
</g>
<!-- \\LinHUniX\\Pdo\\Driver\\pdoDriver -->
<g id="node29" class="node">
<title>\\LinHUniX\\Pdo\\Driver\\pdoDriver</title>
<polygon fill="none" stroke="#000000" points="374,-2637 297,-2637 297,-2601 374,-2601 374,-2637"/>
<text text-anchor="middle" x="335.5" y="-2616.2" font-family="Courier,monospace" font-size="11.00" fill="#000000">pdoDriver</text>
</g>
<!-- \\LinHUniX\\Pdo\\Driver\\pdoDriver&#45;&gt;\\LinHUniX\\Mcp\\Model\\mcpBaseModelClass -->
<g id="edge7" class="edge">
<title>\\LinHUniX\\Pdo\\Driver\\pdoDriver&#45;&gt;\\LinHUniX\\Mcp\\Model\\mcpBaseModelClass</title>
<path fill="none" stroke="#000000" d="M314.6879,-2600.877C292.91,-2580.602 259.6232,-2545.6314 243,-2508 162.9153,-2326.7054 116.7162,-1683.3397 107.3013,-1540.3124"/>
<polygon fill="none" stroke="#000000" points="110.7833,-1539.9209 106.6404,-1530.1697 103.7981,-1540.3761 110.7833,-1539.9209"/>
</g>
<!-- \\LinHUniX\\Pdo\\Driver\\mssqlDriver -->
<g id="node30" class="node">
<title>\\LinHUniX\\Pdo\\Driver\\mssqlDriver</title>
<polygon fill="none" stroke="#000000" points="648.5,-2664 557.5,-2664 557.5,-2628 648.5,-2628 648.5,-2664"/>
<text text-anchor="middle" x="603" y="-2643.2" font-family="Courier,monospace" font-size="11.00" fill="#000000">mssqlDriver</text>
</g>
<!-- \\LinHUniX\\Pdo\\Driver\\mssqlDriver&#45;&gt;\\LinHUniX\\Pdo\\Driver\\pdoDriver -->
<g id="edge12" class="edge">
<title>\\LinHUniX\\Pdo\\Driver\\mssqlDriver&#45;&gt;\\LinHUniX\\Pdo\\Driver\\pdoDriver</title>
<path fill="none" stroke="#000000" d="M557.3191,-2641.3892C509.1172,-2636.524 433.4438,-2628.8859 384.149,-2623.9104"/>
<polygon fill="none" stroke="#000000" points="384.3508,-2620.413 374.0498,-2622.891 383.6478,-2627.3777 384.3508,-2620.413"/>
</g>
<!-- \\LinHUniX\\Pdo\\Driver\\sqliteDriver -->
<g id="node31" class="node">
<title>\\LinHUniX\\Pdo\\Driver\\sqliteDriver</title>
<polygon fill="none" stroke="#000000" points="652,-2610 554,-2610 554,-2574 652,-2574 652,-2610"/>
<text text-anchor="middle" x="603" y="-2589.2" font-family="Courier,monospace" font-size="11.00" fill="#000000">sqliteDriver</text>
</g>
<!-- \\LinHUniX\\Pdo\\Driver\\sqliteDriver&#45;&gt;\\LinHUniX\\Pdo\\Driver\\pdoDriver -->
<g id="edge13" class="edge">
<title>\\LinHUniX\\Pdo\\Driver\\sqliteDriver&#45;&gt;\\LinHUniX\\Pdo\\Driver\\pdoDriver</title>
<path fill="none" stroke="#000000" d="M553.9364,-2596.9522C505.7382,-2601.8171 432.6152,-2609.1977 384.4547,-2614.0588"/>
<polygon fill="none" stroke="#000000" points="383.8741,-2610.5995 374.2762,-2615.0861 384.5771,-2617.5641 383.8741,-2610.5995"/>
</g>
<!-- \\LinHUniX\\Pdo\\Driver\\mysqlDriver -->
<g id="node32" class="node">
<title>\\LinHUniX\\Pdo\\Driver\\mysqlDriver</title>
<polygon fill="none" stroke="#000000" points="648.5,-2718 557.5,-2718 557.5,-2682 648.5,-2682 648.5,-2718"/>
<text text-anchor="middle" x="603" y="-2697.2" font-family="Courier,monospace" font-size="11.00" fill="#000000">mysqlDriver</text>
</g>
<!-- \\LinHUniX\\Pdo\\Driver\\mysqlDriver&#45;&gt;\\LinHUniX\\Pdo\\Driver\\pdoDriver -->
<g id="edge14" class="edge">
<title>\\LinHUniX\\Pdo\\Driver\\mysqlDriver&#45;&gt;\\LinHUniX\\Pdo\\Driver\\pdoDriver</title>
<path fill="none" stroke="#000000" d="M557.3685,-2689.0756C538.7238,-2684.4165 516.9978,-2678.7367 497.5,-2673 458.9671,-2661.6627 415.8455,-2647.2007 383.7849,-2636.0969"/>
<polygon fill="none" stroke="#000000" points="384.8023,-2632.7452 374.2075,-2632.7659 382.5028,-2639.3567 384.8023,-2632.7452"/>
</g>
<!-- \\LinHUniX\\Pdo\\Model\\mcpQueryModelClass -->
<g id="node33" class="node">
<title>\\LinHUniX\\Pdo\\Model\\mcpQueryModelClass</title>
<polygon fill="none" stroke="#000000" points="404.5,-2476 266.5,-2476 266.5,-2440 404.5,-2440 404.5,-2476"/>
<text text-anchor="middle" x="335.5" y="-2455.2" font-family="Courier,monospace" font-size="11.00" fill="#000000">mcpQueryModelClass</text>
</g>
<!-- \\LinHUniX\\Pdo\\Model\\mcpQueryModelClass&#45;&gt;\\LinHUniX\\Mcp\\Model\\mcpBaseModelClass -->
<g id="edge9" class="edge">
<title>\\LinHUniX\\Pdo\\Model\\mcpQueryModelClass&#45;&gt;\\LinHUniX\\Mcp\\Model\\mcpBaseModelClass</title>
<path fill="none" stroke="#000000" d="M327.4692,-2439.9126C309.926,-2399.7949 267.7728,-2300.0185 243,-2213 169.9215,-1956.3 122.5398,-1635.7992 109.2948,-1540.1731"/>
<polygon fill="none" stroke="#000000" points="112.7444,-1539.5661 107.916,-1530.1355 105.8095,-1540.5188 112.7444,-1539.5661"/>
</g>
<!-- \\LinHUniX\\Pdo\\Query\\JsonQuery -->
<g id="node34" class="node">
<title>\\LinHUniX\\Pdo\\Query\\JsonQuery</title>
<polygon fill="none" stroke="#000000" points="641.5,-2530 564.5,-2530 564.5,-2494 641.5,-2494 641.5,-2530"/>
<text text-anchor="middle" x="603" y="-2509.2" font-family="Courier,monospace" font-size="11.00" fill="#000000">JsonQuery</text>
</g>
<!-- \\LinHUniX\\Pdo\\Query\\JsonQuery&#45;&gt;\\LinHUniX\\Pdo\\Model\\mcpQueryModelClass -->
<g id="edge17" class="edge">
<title>\\LinHUniX\\Pdo\\Query\\JsonQuery&#45;&gt;\\LinHUniX\\Pdo\\Model\\mcpQueryModelClass</title>
<path fill="none" stroke="#000000" d="M564.3889,-2504.2056C525.4052,-2496.336 464.0644,-2483.9532 414.693,-2473.9866"/>
<polygon fill="none" stroke="#000000" points="415.1654,-2470.5115 404.6705,-2471.9634 413.7802,-2477.373 415.1654,-2470.5115"/>
</g>
<!-- \\LinHUniX\\Pdo\\Query\\ArrayQuery -->
<g id="node35" class="node">
<title>\\LinHUniX\\Pdo\\Query\\ArrayQuery</title>
<polygon fill="none" stroke="#000000" points="645,-2476 561,-2476 561,-2440 645,-2440 645,-2476"/>
<text text-anchor="middle" x="603" y="-2455.2" font-family="Courier,monospace" font-size="11.00" fill="#000000">ArrayQuery</text>
</g>
<!-- \\LinHUniX\\Pdo\\Query\\ArrayQuery&#45;&gt;\\LinHUniX\\Pdo\\Model\\mcpQueryModelClass -->
<g id="edge18" class="edge">
<title>\\LinHUniX\\Pdo\\Query\\ArrayQuery&#45;&gt;\\LinHUniX\\Pdo\\Model\\mcpQueryModelClass</title>
<path fill="none" stroke="#000000" d="M560.9089,-2458C521.8294,-2458 462.6348,-2458 414.712,-2458"/>
<polygon fill="none" stroke="#000000" points="414.6682,-2454.5001 404.6681,-2458 414.6681,-2461.5001 414.6682,-2454.5001"/>
</g>
<!-- \\LinHUniX\\Gfx\\Service\\gfxService -->
<g id="node36" class="node">
<title>\\LinHUniX\\Gfx\\Service\\gfxService</title>
<polygon fill="none" stroke="#000000" points="645,-2030 561,-2030 561,-1994 645,-1994 645,-2030"/>
<text text-anchor="middle" x="603" y="-2009.2" font-family="Courier,monospace" font-size="11.00" fill="#000000">gfxService</text>
</g>
<!-- \\LinHUniX\\Gfx\\Service\\gfxService&#45;&gt;\\LinHUniX\\Mcp\\Model\\mcpBaseModelClass -->
<g id="edge5" class="edge">
<title>\\LinHUniX\\Gfx\\Service\\gfxService&#45;&gt;\\LinHUniX\\Mcp\\Model\\mcpBaseModelClass</title>
<path fill="none" stroke="#000000" d="M580.5671,-2030.1734C518.5358,-2080.1934 348.4143,-2215.7105 335.5,-2208"/>
<path fill="none" stroke="#000000" d="M335.5,-2208C213.6575,-2135.2535 129.5508,-1661.0379 109.9019,-1540.0571"/>
<polygon fill="none" stroke="#000000" points="113.3424,-1539.4069 108.2997,-1530.0891 106.4311,-1540.5179 113.3424,-1539.4069"/>
</g>
<!-- \\LinHUniX\\Gfx\\Component\\zebra_image -->
<g id="node37" class="node">
<title>\\LinHUniX\\Gfx\\Component\\zebra_image</title>
<polygon fill="none" stroke="#000000" points="648.5,-1950 557.5,-1950 557.5,-1914 648.5,-1914 648.5,-1950"/>
<text text-anchor="middle" x="603" y="-1929.2" font-family="Courier,monospace" font-size="11.00" fill="#000000">zebra_image</text>
</g>
<!-- \\LinHUniX\\Gfx\\Component\\html2text -->
<g id="node38" class="node">
<title>\\LinHUniX\\Gfx\\Component\\html2text</title>
<polygon fill="none" stroke="#000000" points="641.5,-1896 564.5,-1896 564.5,-1860 641.5,-1860 641.5,-1896"/>
<text text-anchor="middle" x="603" y="-1875.2" font-family="Courier,monospace" font-size="11.00" fill="#000000">html2text</text>
</g>
<!-- \\LinHUniX\\Gfx\\Controller\\uploadController -->
<g id="node39" class="node">
<title>\\LinHUniX\\Gfx\\Controller\\uploadController</title>
<polygon fill="none" stroke="#000000" points="665.5,-1816 540.5,-1816 540.5,-1780 665.5,-1780 665.5,-1816"/>
<text text-anchor="middle" x="603" y="-1795.2" font-family="Courier,monospace" font-size="11.00" fill="#000000">uploadController</text>
</g>
<!-- \\LinHUniX\\Gfx\\Controller\\uploadController&#45;&gt;\\LinHUniX\\Mcp\\Model\\mcpRemoteApiModelClass -->
<g id="edge16" class="edge">
<title>\\LinHUniX\\Gfx\\Controller\\uploadController&#45;&gt;\\LinHUniX\\Mcp\\Model\\mcpRemoteApiModelClass</title>
<path fill="none" stroke="#000000" d="M580.6651,-1779.9501C557.0254,-1759.7807 520.0783,-1725.0597 497.5,-1688 447.8836,-1606.5605 496.9603,-1550.8685 428,-1485 426.9037,-1483.9528 425.769,-1482.946 424.6002,-1481.9779"/>
<polygon fill="none" stroke="#000000" points="426.6021,-1479.1066 416.4326,-1476.1348 422.5292,-1484.7998 426.6021,-1479.1066"/>
</g>
<!-- \\LinHUniX\\Mail\\Component\\SMTP -->
<g id="node40" class="node">
<title>\\LinHUniX\\Mail\\Component\\SMTP</title>
<polygon fill="none" stroke="#000000" points="362.5,-426 308.5,-426 308.5,-390 362.5,-390 362.5,-426"/>
<text text-anchor="middle" x="335.5" y="-405.2" font-family="Courier,monospace" font-size="11.00" fill="#000000">SMTP</text>
</g>
<!-- \\LinHUniX\\Mail\\Component\\PHPMailer -->
<g id="node41" class="node">
<title>\\LinHUniX\\Mail\\Component\\PHPMailer</title>
<polygon fill="none" stroke="#000000" points="374,-372 297,-372 297,-336 374,-336 374,-372"/>
<text text-anchor="middle" x="335.5" y="-351.2" font-family="Courier,monospace" font-size="11.00" fill="#000000">PHPMailer</text>
</g>
<!-- \\LinHUniX\\Mail\\Component\\phpmailerException -->
<g id="node42" class="node">
<title>\\LinHUniX\\Mail\\Component\\phpmailerException</title>
<polygon fill="none" stroke="#000000" points="404.5,-318 266.5,-318 266.5,-282 404.5,-282 404.5,-318"/>
<text text-anchor="middle" x="335.5" y="-297.2" font-family="Courier,monospace" font-size="11.00" fill="#000000">phpmailerException</text>
</g>
<!-- \\Exception -->
<g id="node55" class="node">
<title>\\Exception</title>
<ellipse fill="none" stroke="#000000" cx="105.5" cy="-18" rx="50.8918" ry="18"/>
<text text-anchor="middle" x="105.5" y="-14.3" font-family="Times,serif" font-size="14.00" fill="#c0c0c0">\Exception</text>
</g>
<!-- \\LinHUniX\\Mail\\Component\\phpmailerException&#45;&gt;\\Exception -->
<g id="edge23" class="edge">
<title>\\LinHUniX\\Mail\\Component\\phpmailerException&#45;&gt;\\Exception</title>
<path fill="none" stroke="#000000" d="M266.2565,-286.5114C257.8975,-283.0006 249.8936,-278.5761 243,-273 167.6617,-212.0599 127.8437,-98.4227 112.7515,-45.9177"/>
<polygon fill="none" stroke="#000000" points="116.1174,-44.9577 110.0595,-36.2656 109.3747,-46.8382 116.1174,-44.9577"/>
</g>
<!-- \\LinHUniX\\Mail\\Component\\POP3 -->
<g id="node43" class="node">
<title>\\LinHUniX\\Mail\\Component\\POP3</title>
<polygon fill="none" stroke="#000000" points="362.5,-264 308.5,-264 308.5,-228 362.5,-228 362.5,-264"/>
<text text-anchor="middle" x="335.5" y="-243.2" font-family="Courier,monospace" font-size="11.00" fill="#000000">POP3</text>
</g>
<!-- \\LinHUniX\\Mail\\Service\\mailService -->
<g id="node44" class="node">
<title>\\LinHUniX\\Mail\\Service\\mailService</title>
<polygon fill="none" stroke="#000000" points="381,-506 290,-506 290,-470 381,-470 381,-506"/>
<text text-anchor="middle" x="335.5" y="-485.2" font-family="Courier,monospace" font-size="11.00" fill="#000000">mailService</text>
</g>
<!-- \\LinHUniX\\Mail\\Service\\mailService&#45;&gt;\\LinHUniX\\Mcp\\Model\\mcpBaseModelClass -->
<g id="edge26" class="edge">
<title>\\LinHUniX\\Mail\\Service\\mailService&#45;&gt;\\LinHUniX\\Mcp\\Model\\mcpBaseModelClass</title>
<path fill="none" stroke="#000000" d="M331.4103,-506.208C303.8653,-628.843 145.4894,-1333.9602 111.8002,-1483.9506"/>
<polygon fill="none" stroke="#000000" points="108.3702,-1483.2509 109.5935,-1493.7749 115.2,-1484.785 108.3702,-1483.2509"/>
</g>
<!-- \\LinHUniX\\Auth\\Service\\authCfgService -->
<g id="node45" class="node">
<title>\\LinHUniX\\Auth\\Service\\authCfgService</title>
<polygon fill="none" stroke="#000000" points="919.5,-1646 808.5,-1646 808.5,-1610 919.5,-1610 919.5,-1646"/>
<text text-anchor="middle" x="864" y="-1625.2" font-family="Courier,monospace" font-size="11.00" fill="#000000">authCfgService</text>
</g>
<!-- \\LinHUniX\\Auth\\Model\\mcpAuthServiceModelClass -->
<g id="node47" class="node">
<title>\\LinHUniX\\Auth\\Model\\mcpAuthServiceModelClass</title>
<polygon fill="none" stroke="#000000" points="692.5,-1646 513.5,-1646 513.5,-1610 692.5,-1610 692.5,-1646"/>
<text text-anchor="middle" x="603" y="-1625.2" font-family="Courier,monospace" font-size="11.00" fill="#000000">mcpAuthServiceModelClass</text>
</g>
<!-- \\LinHUniX\\Auth\\Service\\authCfgService&#45;&gt;\\LinHUniX\\Auth\\Model\\mcpAuthServiceModelClass -->
<g id="edge10" class="edge">
<title>\\LinHUniX\\Auth\\Service\\authCfgService&#45;&gt;\\LinHUniX\\Auth\\Model\\mcpAuthServiceModelClass</title>
<path fill="none" stroke="#000000" d="M808.3291,-1628C777.607,-1628 738.5281,-1628 702.7261,-1628"/>
<polygon fill="none" stroke="#000000" points="702.7248,-1624.5001 692.7247,-1628 702.7247,-1631.5001 702.7248,-1624.5001"/>
</g>
<!-- \\LinHUniX\\Auth\\Service\\authService -->
<g id="node46" class="node">
<title>\\LinHUniX\\Auth\\Service\\authService</title>
<polygon fill="none" stroke="#000000" points="909.5,-1700 818.5,-1700 818.5,-1664 909.5,-1664 909.5,-1700"/>
<text text-anchor="middle" x="864" y="-1679.2" font-family="Courier,monospace" font-size="11.00" fill="#000000">authService</text>
</g>
<!-- \\LinHUniX\\Auth\\Service\\authService&#45;&gt;\\LinHUniX\\Mcp\\Model\\mcpServiceModelClass -->
<g id="edge25" class="edge">
<title>\\LinHUniX\\Auth\\Service\\authService&#45;&gt;\\LinHUniX\\Mcp\\Model\\mcpServiceModelClass</title>
<path fill="none" stroke="#000000" d="M818.4599,-1697.2333C743.166,-1719.3091 591.7073,-1750.1702 497.5,-1678 406.9709,-1608.6475 508.2462,-1512.0298 428,-1431 425.6457,-1428.6227 423.0946,-1426.452 420.392,-1424.4702"/>
<polygon fill="none" stroke="#000000" points="422.1948,-1421.4691 411.8743,-1419.0737 418.4484,-1427.3823 422.1948,-1421.4691"/>
</g>
<!-- \\LinHUniX\\Auth\\Model\\mcpAuthServiceModelClass&#45;&gt;\\LinHUniX\\Mcp\\Model\\mcpServiceModelClass -->
<g id="edge11" class="edge">
<title>\\LinHUniX\\Auth\\Model\\mcpAuthServiceModelClass&#45;&gt;\\LinHUniX\\Mcp\\Model\\mcpServiceModelClass</title>
<path fill="none" stroke="#000000" d="M563.8756,-1609.9098C542.3089,-1598.4805 516.1983,-1582.0804 497.5,-1562 452.585,-1513.7652 479.1029,-1472.6226 428,-1431 425.6895,-1429.1181 423.2527,-1427.3675 420.7184,-1425.7388"/>
<polygon fill="none" stroke="#000000" points="422.1922,-1422.5508 411.7677,-1420.6582 418.7366,-1428.6385 422.1922,-1422.5508"/>
</g>
<!-- \\LinHUniX\\Cron\\Service\\CronService -->
<g id="node48" class="node">
<title>\\LinHUniX\\Cron\\Service\\CronService</title>
<polygon fill="none" stroke="#000000" points="648.5,-2146 557.5,-2146 557.5,-2110 648.5,-2110 648.5,-2146"/>
<text text-anchor="middle" x="603" y="-2125.2" font-family="Courier,monospace" font-size="11.00" fill="#000000">CronService</text>
</g>
<!-- \\LinHUniX\\Cron\\Service\\CronService&#45;&gt;\\LinHUniX\\Mcp\\Model\\mcpServiceModelClass -->
<g id="edge21" class="edge">
<title>\\LinHUniX\\Cron\\Service\\CronService&#45;&gt;\\LinHUniX\\Mcp\\Model\\mcpServiceModelClass</title>
<path fill="none" stroke="#000000" d="M557.2553,-2110.6328C535.531,-2099.962 511.345,-2084.0471 497.5,-2062 347.4551,-1823.0654 609.3814,-1647.1111 428,-1431 425.6709,-1428.225 423.0739,-1425.7262 420.271,-1423.4769"/>
<polygon fill="none" stroke="#000000" points="422.117,-1420.4997 411.8783,-1417.7758 418.1836,-1426.2901 422.117,-1420.4997"/>
</g>
<!-- \\LinHUniX\\Cron\\Controller\\CronController -->
<g id="node49" class="node">
<title>\\LinHUniX\\Cron\\Controller\\CronController</title>
<polygon fill="none" stroke="#000000" points="658.5,-2226 547.5,-2226 547.5,-2190 658.5,-2190 658.5,-2226"/>
<text text-anchor="middle" x="603" y="-2205.2" font-family="Courier,monospace" font-size="11.00" fill="#000000">CronController</text>
</g>
<!-- \\LinHUniX\\Cron\\Controller\\CronController&#45;&gt;\\LinHUniX\\Mcp\\Model\\mcpBaseModelClass -->
<g id="edge24" class="edge">
<title>\\LinHUniX\\Cron\\Controller\\CronController&#45;&gt;\\LinHUniX\\Mcp\\Model\\mcpBaseModelClass</title>
<path fill="none" stroke="#000000" d="M547.4158,-2223.5999C490.0591,-2236.3232 400.0968,-2246.5677 335.5,-2208"/>
</g>
<!-- \\LinHUniX\\Cron\\Controller\\promiseController -->
<g id="node50" class="node">
<title>\\LinHUniX\\Cron\\Controller\\promiseController</title>
<polygon fill="none" stroke="#000000" points="668.5,-2280 537.5,-2280 537.5,-2244 668.5,-2244 668.5,-2280"/>
<text text-anchor="middle" x="603" y="-2259.2" font-family="Courier,monospace" font-size="11.00" fill="#000000">promiseController</text>
</g>
<!-- \\LinHUniX\\Cron\\Controller\\promiseController&#45;&gt;\\LinHUniX\\Mcp\\Model\\mcpBaseModelClass -->
<g id="edge27" class="edge">
<title>\\LinHUniX\\Cron\\Controller\\promiseController&#45;&gt;\\LinHUniX\\Mcp\\Model\\mcpBaseModelClass</title>
<path fill="none" stroke="#000000" d="M537.3214,-2260.8014C480.3148,-2257.0719 397.4336,-2244.9777 335.5,-2208"/>
</g>
<!-- \\mcpOutput -->
<g id="node51" class="node">
<title>\\mcpOutput</title>
<polygon fill="none" stroke="#000000" points="902.5,-196 825.5,-196 825.5,-160 902.5,-160 902.5,-196"/>
<text text-anchor="middle" x="864" y="-175.2" font-family="Courier,monospace" font-size="11.00" fill="#000000">mcpOutput</text>
</g>
<!-- \\mcpRunHttp -->
<g id="node52" class="node">
<title>\\mcpRunHttp</title>
<polygon fill="none" stroke="#000000" points="906,-142 822,-142 822,-106 906,-106 906,-142"/>
<text text-anchor="middle" x="864" y="-121.2" font-family="Courier,monospace" font-size="11.00" fill="#000000">mcpRunHttp</text>
</g>
<!-- \\mcpAutoload -->
<g id="node53" class="node">
<title>\\mcpAutoload</title>
<polygon fill="none" stroke="#000000" points="909.5,-88 818.5,-88 818.5,-52 909.5,-52 909.5,-88"/>
<text text-anchor="middle" x="864" y="-67.2" font-family="Courier,monospace" font-size="11.00" fill="#000000">mcpAutoload</text>
</g>
</g>
</svg>
