<?xml version="1.0" encoding="UTF-8" standalone="no"?>
<!DOCTYPE svg PUBLIC "-//W3C//DTD SVG 1.1//EN"
 "http://www.w3.org/Graphics/SVG/1.1/DTD/svg11.dtd">
<!-- Generated by graphviz version 2.38.0 (20140413.2041)
 -->
<!-- Title: G Pages: 1 -->
<svg width="984pt" height="2986pt"
 viewBox="0.00 0.00 984.00 2986.00" xmlns="http://www.w3.org/2000/svg" xmlns:xlink="http://www.w3.org/1999/xlink">
<g id="graph0" class="graph" transform="scale(1 1) rotate(0) translate(4 2982)">
<title>G</title>
<polygon fill="white" stroke="none" points="-4,4 -4,-2982 980,-2982 980,4 -4,4"/>
<g id="clust1" class="cluster"><title>cluster_Global</title>
<path fill="none" stroke="gray" d="M20,-44C20,-44 956,-44 956,-44 962,-44 968,-50 968,-56 968,-56 968,-2958 968,-2958 968,-2964 962,-2970 956,-2970 956,-2970 20,-2970 20,-2970 14,-2970 8,-2964 8,-2958 8,-2958 8,-56 8,-56 8,-50 14,-44 20,-44"/>
<text text-anchor="middle" x="488" y="-2957.2" font-family="Times,serif" font-size="11.00" fill="gray">Global</text>
</g>
<g id="clust2" class="cluster"><title>cluster_\LinHUniX</title>
<path fill="none" stroke="gray" d="M28,-96C28,-96 948,-96 948,-96 954,-96 960,-102 960,-108 960,-108 960,-2930 960,-2930 960,-2936 954,-2942 948,-2942 948,-2942 28,-2942 28,-2942 22,-2942 16,-2936 16,-2930 16,-2930 16,-108 16,-108 16,-102 22,-96 28,-96"/>
<text text-anchor="middle" x="488" y="-2929.2" font-family="Times,serif" font-size="11.00" fill="gray">LinHUniX</text>
</g>
<g id="clust3" class="cluster"><title>cluster_\LinHUniX\Mcp</title>
<path fill="none" stroke="gray" d="M36,-980C36,-980 940,-980 940,-980 946,-980 952,-986 952,-992 952,-992 952,-1984 952,-1984 952,-1990 946,-1996 940,-1996 940,-1996 36,-1996 36,-1996 30,-1996 24,-1990 24,-1984 24,-1984 24,-992 24,-992 24,-986 30,-980 36,-980"/>
<text text-anchor="middle" x="488" y="-1983.2" font-family="Times,serif" font-size="11.00" fill="gray">Mcp</text>
</g>
<g id="clust4" class="cluster"><title>cluster_\LinHUniX\Mcp\Provider</title>
<path fill="none" stroke="gray" d="M782,-1842C782,-1842 932,-1842 932,-1842 938,-1842 944,-1848 944,-1854 944,-1854 944,-1956 944,-1956 944,-1962 938,-1968 932,-1968 932,-1968 782,-1968 782,-1968 776,-1968 770,-1962 770,-1956 770,-1956 770,-1854 770,-1854 770,-1848 776,-1842 782,-1842"/>
<text text-anchor="middle" x="857" y="-1955.2" font-family="Times,serif" font-size="11.00" fill="gray">Provider</text>
</g>
<g id="clust5" class="cluster"><title>cluster_\LinHUniX\Mcp\Model</title>
<path fill="none" stroke="gray" d="M44,-1734C44,-1734 702,-1734 702,-1734 708,-1734 714,-1740 714,-1746 714,-1746 714,-1956 714,-1956 714,-1962 708,-1968 702,-1968 702,-1968 44,-1968 44,-1968 38,-1968 32,-1962 32,-1956 32,-1956 32,-1746 32,-1746 32,-1740 38,-1734 44,-1734"/>
<text text-anchor="middle" x="373" y="-1955.2" font-family="Times,serif" font-size="11.00" fill="gray">Model</text>
</g>
<g id="clust6" class="cluster"><title>cluster_\LinHUniX\Mcp\Component</title>
<path fill="none" stroke="gray" d="M798.5,-1330C798.5,-1330 915.5,-1330 915.5,-1330 921.5,-1330 927.5,-1336 927.5,-1342 927.5,-1342 927.5,-1822 927.5,-1822 927.5,-1828 921.5,-1834 915.5,-1834 915.5,-1834 798.5,-1834 798.5,-1834 792.5,-1834 786.5,-1828 786.5,-1822 786.5,-1822 786.5,-1342 786.5,-1342 786.5,-1336 792.5,-1330 798.5,-1330"/>
<text text-anchor="middle" x="857" y="-1821.2" font-family="Times,serif" font-size="11.00" fill="gray">Component</text>
</g>
<g id="clust7" class="cluster"><title>cluster_\LinHUniX\Mcp\Tools</title>
<path fill="none" stroke="gray" d="M812,-1034C812,-1034 902,-1034 902,-1034 908,-1034 914,-1040 914,-1046 914,-1046 914,-1310 914,-1310 914,-1316 908,-1322 902,-1322 902,-1322 812,-1322 812,-1322 806,-1322 800,-1316 800,-1310 800,-1310 800,-1046 800,-1046 800,-1040 806,-1034 812,-1034"/>
<text text-anchor="middle" x="857" y="-1309.2" font-family="Times,serif" font-size="11.00" fill="gray">Tools</text>
</g>
<g id="clust8" class="cluster"><title>cluster_\LinHUniX\Pdo</title>
<path fill="none" stroke="gray" d="M262.5,-462C262.5,-462 669.5,-462 669.5,-462 675.5,-462 681.5,-468 681.5,-474 681.5,-474 681.5,-960 681.5,-960 681.5,-966 675.5,-972 669.5,-972 669.5,-972 262.5,-972 262.5,-972 256.5,-972 250.5,-966 250.5,-960 250.5,-960 250.5,-474 250.5,-474 250.5,-468 256.5,-462 262.5,-462"/>
<text text-anchor="middle" x="466" y="-959.2" font-family="Times,serif" font-size="11.00" fill="gray">Pdo</text>
</g>
<g id="clust9" class="cluster"><title>cluster_\LinHUniX\Pdo\Service</title>
<path fill="none" stroke="gray" d="M565,-470C565,-470 641,-470 641,-470 647,-470 653,-476 653,-482 653,-482 653,-530 653,-530 653,-536 647,-542 641,-542 641,-542 565,-542 565,-542 559,-542 553,-536 553,-530 553,-530 553,-482 553,-482 553,-476 559,-470 565,-470"/>
<text text-anchor="middle" x="603" y="-529.2" font-family="Times,serif" font-size="11.00" fill="gray">Service</text>
</g>
<g id="clust10" class="cluster"><title>cluster_\LinHUniX\Pdo\Api</title>
<path fill="none" stroke="gray" d="M544.5,-872C544.5,-872 661.5,-872 661.5,-872 667.5,-872 673.5,-878 673.5,-884 673.5,-884 673.5,-932 673.5,-932 673.5,-938 667.5,-944 661.5,-944 661.5,-944 544.5,-944 544.5,-944 538.5,-944 532.5,-938 532.5,-932 532.5,-932 532.5,-884 532.5,-884 532.5,-878 538.5,-872 544.5,-872"/>
<text text-anchor="middle" x="603" y="-931.2" font-family="Times,serif" font-size="11.00" fill="gray">Api</text>
</g>
<g id="clust11" class="cluster"><title>cluster_\LinHUniX\Pdo\Driver</title>
<path fill="none" stroke="gray" d="M301,-684C301,-684 648,-684 648,-684 654,-684 660,-690 660,-696 660,-696 660,-852 660,-852 660,-858 654,-864 648,-864 648,-864 301,-864 301,-864 295,-864 289,-858 289,-852 289,-852 289,-696 289,-696 289,-690 295,-684 301,-684"/>
<text text-anchor="middle" x="474.5" y="-851.2" font-family="Times,serif" font-size="11.00" fill="gray">Driver</text>
</g>
<g id="clust12" class="cluster"><title>cluster_\LinHUniX\Pdo\Model</title>
<path fill="none" stroke="gray" d="M270.5,-604C270.5,-604 400.5,-604 400.5,-604 406.5,-604 412.5,-610 412.5,-616 412.5,-616 412.5,-664 412.5,-664 412.5,-670 406.5,-676 400.5,-676 400.5,-676 270.5,-676 270.5,-676 264.5,-676 258.5,-670 258.5,-664 258.5,-664 258.5,-616 258.5,-616 258.5,-610 264.5,-604 270.5,-604"/>
<text text-anchor="middle" x="335.5" y="-663.2" font-family="Times,serif" font-size="11.00" fill="gray">Model</text>
</g>
<g id="clust13" class="cluster"><title>cluster_\LinHUniX\Pdo\Query</title>
<path fill="none" stroke="gray" d="M565,-550C565,-550 641,-550 641,-550 647,-550 653,-556 653,-562 653,-562 653,-664 653,-664 653,-670 647,-676 641,-676 641,-676 565,-676 565,-676 559,-676 553,-670 553,-664 553,-664 553,-562 553,-562 553,-556 559,-550 565,-550"/>
<text text-anchor="middle" x="603" y="-663.2" font-family="Times,serif" font-size="11.00" fill="gray">Query</text>
</g>
<g id="clust14" class="cluster"><title>cluster_\LinHUniX\Gfx</title>
<path fill="none" stroke="gray" d="M513,-2512C513,-2512 693,-2512 693,-2512 699,-2512 705,-2518 705,-2524 705,-2524 705,-2902 705,-2902 705,-2908 699,-2914 693,-2914 693,-2914 513,-2914 513,-2914 507,-2914 501,-2908 501,-2902 501,-2902 501,-2524 501,-2524 501,-2518 507,-2512 513,-2512"/>
<text text-anchor="middle" x="603" y="-2901.2" font-family="Times,serif" font-size="11.00" fill="gray">Gfx</text>
</g>
<g id="clust15" class="cluster"><title>cluster_\LinHUniX\Gfx\Service</title>
<path fill="none" stroke="gray" d="M565,-2814C565,-2814 641,-2814 641,-2814 647,-2814 653,-2820 653,-2826 653,-2826 653,-2874 653,-2874 653,-2880 647,-2886 641,-2886 641,-2886 565,-2886 565,-2886 559,-2886 553,-2880 553,-2874 553,-2874 553,-2826 553,-2826 553,-2820 559,-2814 565,-2814"/>
<text text-anchor="middle" x="603" y="-2873.2" font-family="Times,serif" font-size="11.00" fill="gray">Service</text>
</g>
<g id="clust16" class="cluster"><title>cluster_\LinHUniX\Gfx\Component</title>
<path fill="none" stroke="gray" d="M561.5,-2680C561.5,-2680 644.5,-2680 644.5,-2680 650.5,-2680 656.5,-2686 656.5,-2692 656.5,-2692 656.5,-2794 656.5,-2794 656.5,-2800 650.5,-2806 644.5,-2806 644.5,-2806 561.5,-2806 561.5,-2806 555.5,-2806 549.5,-2800 549.5,-2794 549.5,-2794 549.5,-2692 549.5,-2692 549.5,-2686 555.5,-2680 561.5,-2680"/>
<text text-anchor="middle" x="603" y="-2793.2" font-family="Times,serif" font-size="11.00" fill="gray">Component</text>
</g>
<g id="clust17" class="cluster"><title>cluster_\LinHUniX\Gfx\Controller</title>
<path fill="none" stroke="gray" d="M544.5,-2600C544.5,-2600 661.5,-2600 661.5,-2600 667.5,-2600 673.5,-2606 673.5,-2612 673.5,-2612 673.5,-2660 673.5,-2660 673.5,-2666 667.5,-2672 661.5,-2672 661.5,-2672 544.5,-2672 544.5,-2672 538.5,-2672 532.5,-2666 532.5,-2660 532.5,-2660 532.5,-2612 532.5,-2612 532.5,-2606 538.5,-2600 544.5,-2600"/>
<text text-anchor="middle" x="603" y="-2659.2" font-family="Times,serif" font-size="11.00" fill="gray">Controller</text>
</g>
<g id="clust18" class="cluster"><title>cluster_\LinHUniX\Gfx\Tools</title>
<path fill="none" stroke="gray" d="M521,-2520C521,-2520 685,-2520 685,-2520 691,-2520 697,-2526 697,-2532 697,-2532 697,-2580 697,-2580 697,-2586 691,-2592 685,-2592 685,-2592 521,-2592 521,-2592 515,-2592 509,-2586 509,-2580 509,-2580 509,-2532 509,-2532 509,-2526 515,-2520 521,-2520"/>
<text text-anchor="middle" x="603" y="-2579.2" font-family="Times,serif" font-size="11.00" fill="gray">Tools</text>
</g>
<g id="clust19" class="cluster"><title>cluster_\LinHUniX\Mail</title>
<path fill="none" stroke="gray" d="M262.5,-104C262.5,-104 408.5,-104 408.5,-104 414.5,-104 420.5,-110 420.5,-116 420.5,-116 420.5,-442 420.5,-442 420.5,-448 414.5,-454 408.5,-454 408.5,-454 262.5,-454 262.5,-454 256.5,-454 250.5,-448 250.5,-442 250.5,-442 250.5,-116 250.5,-116 250.5,-110 256.5,-104 262.5,-104"/>
<text text-anchor="middle" x="335.5" y="-441.2" font-family="Times,serif" font-size="11.00" fill="gray">Mail</text>
</g>
<g id="clust20" class="cluster"><title>cluster_\LinHUniX\Mail\Component</title>
<path fill="none" stroke="gray" d="M270.5,-112C270.5,-112 400.5,-112 400.5,-112 406.5,-112 412.5,-118 412.5,-124 412.5,-124 412.5,-334 412.5,-334 412.5,-340 406.5,-346 400.5,-346 400.5,-346 270.5,-346 270.5,-346 264.5,-346 258.5,-340 258.5,-334 258.5,-334 258.5,-124 258.5,-124 258.5,-118 264.5,-112 270.5,-112"/>
<text text-anchor="middle" x="335.5" y="-333.2" font-family="Times,serif" font-size="11.00" fill="gray">Component</text>
</g>
<g id="clust21" class="cluster"><title>cluster_\LinHUniX\Mail\Service</title>
<path fill="none" stroke="gray" d="M294,-354C294,-354 377,-354 377,-354 383,-354 389,-360 389,-366 389,-366 389,-414 389,-414 389,-420 383,-426 377,-426 377,-426 294,-426 294,-426 288,-426 282,-420 282,-414 282,-414 282,-366 282,-366 282,-360 288,-354 294,-354"/>
<text text-anchor="middle" x="335.5" y="-413.2" font-family="Times,serif" font-size="11.00" fill="gray">Service</text>
</g>
<g id="clust22" class="cluster"><title>cluster_\LinHUniX\Auth</title>
<path fill="none" stroke="gray" d="M550,-2004C550,-2004 656,-2004 656,-2004 662,-2004 668,-2010 668,-2016 668,-2016 668,-2180 668,-2180 668,-2186 662,-2192 656,-2192 656,-2192 550,-2192 550,-2192 544,-2192 538,-2186 538,-2180 538,-2180 538,-2016 538,-2016 538,-2010 544,-2004 550,-2004"/>
<text text-anchor="middle" x="603" y="-2179.2" font-family="Times,serif" font-size="11.00" fill="gray">Auth</text>
</g>
<g id="clust23" class="cluster"><title>cluster_\LinHUniX\Auth\Driver</title>
<path fill="none" stroke="gray" d="M558,-2092C558,-2092 648,-2092 648,-2092 654,-2092 660,-2098 660,-2104 660,-2104 660,-2152 660,-2152 660,-2158 654,-2164 648,-2164 648,-2164 558,-2164 558,-2164 552,-2164 546,-2158 546,-2152 546,-2152 546,-2104 546,-2104 546,-2098 552,-2092 558,-2092"/>
<text text-anchor="middle" x="603" y="-2151.2" font-family="Times,serif" font-size="11.00" fill="gray">Driver</text>
</g>
<g id="clust24" class="cluster"><title>cluster_\LinHUniX\Auth\Service</title>
<path fill="none" stroke="gray" d="M561.5,-2012C561.5,-2012 644.5,-2012 644.5,-2012 650.5,-2012 656.5,-2018 656.5,-2024 656.5,-2024 656.5,-2072 656.5,-2072 656.5,-2078 650.5,-2084 644.5,-2084 644.5,-2084 561.5,-2084 561.5,-2084 555.5,-2084 549.5,-2078 549.5,-2072 549.5,-2072 549.5,-2024 549.5,-2024 549.5,-2018 555.5,-2012 561.5,-2012"/>
<text text-anchor="middle" x="603" y="-2071.2" font-family="Times,serif" font-size="11.00" fill="gray">Service</text>
</g>
<g id="clust25" class="cluster"><title>cluster_\LinHUniX\Ln4</title>
<path fill="none" stroke="gray" d="M557,-2316C557,-2316 649,-2316 649,-2316 655,-2316 661,-2322 661,-2328 661,-2328 661,-2492 661,-2492 661,-2498 655,-2504 649,-2504 649,-2504 557,-2504 557,-2504 551,-2504 545,-2498 545,-2492 545,-2492 545,-2328 545,-2328 545,-2322 551,-2316 557,-2316"/>
<text text-anchor="middle" x="603" y="-2491.2" font-family="Times,serif" font-size="11.00" fill="gray">Ln4</text>
</g>
<g id="clust26" class="cluster"><title>cluster_\LinHUniX\Ln4\Driver</title>
<path fill="none" stroke="gray" d="M565,-2404C565,-2404 641,-2404 641,-2404 647,-2404 653,-2410 653,-2416 653,-2416 653,-2464 653,-2464 653,-2470 647,-2476 641,-2476 641,-2476 565,-2476 565,-2476 559,-2476 553,-2470 553,-2464 553,-2464 553,-2416 553,-2416 553,-2410 559,-2404 565,-2404"/>
<text text-anchor="middle" x="603" y="-2463.2" font-family="Times,serif" font-size="11.00" fill="gray">Driver</text>
</g>
<g id="clust27" class="cluster"><title>cluster_\LinHUniX\Ln4\Service</title>
<path fill="none" stroke="gray" d="M565,-2324C565,-2324 641,-2324 641,-2324 647,-2324 653,-2330 653,-2336 653,-2336 653,-2384 653,-2384 653,-2390 647,-2396 641,-2396 641,-2396 565,-2396 565,-2396 559,-2396 553,-2390 553,-2384 553,-2384 553,-2336 553,-2336 553,-2330 559,-2324 565,-2324"/>
<text text-anchor="middle" x="603" y="-2383.2" font-family="Times,serif" font-size="11.00" fill="gray">Service</text>
</g>
<g id="clust28" class="cluster"><title>cluster_\LinHUniX\ln4</title>
<path fill="none" stroke="gray" d="M547,-2200C547,-2200 659,-2200 659,-2200 665,-2200 671,-2206 671,-2212 671,-2212 671,-2296 671,-2296 671,-2302 665,-2308 659,-2308 659,-2308 547,-2308 547,-2308 541,-2308 535,-2302 535,-2296 535,-2296 535,-2212 535,-2212 535,-2206 541,-2200 547,-2200"/>
<text text-anchor="middle" x="603" y="-2295.2" font-family="Times,serif" font-size="11.00" fill="gray">ln4</text>
</g>
<g id="clust29" class="cluster"><title>cluster_\LinHUniX\ln4\Controller</title>
<path fill="none" stroke="gray" d="M555,-2208C555,-2208 651,-2208 651,-2208 657,-2208 663,-2214 663,-2220 663,-2220 663,-2268 663,-2268 663,-2274 657,-2280 651,-2280 651,-2280 555,-2280 555,-2280 549,-2280 543,-2274 543,-2268 543,-2268 543,-2220 543,-2220 543,-2214 549,-2208 555,-2208"/>
<text text-anchor="middle" x="603" y="-2267.2" font-family="Times,serif" font-size="11.00" fill="gray">Controller</text>
</g>
<!-- \\LinHUniX\\Mcp\\Provider\\loggerProviderModel -->
<g id="node1" class="node"><title>\\LinHUniX\\Mcp\\Provider\\loggerProviderModel</title>
<polygon fill="none" stroke="black" points="929.5,-1940 784.5,-1940 784.5,-1904 929.5,-1904 929.5,-1940"/>
<text text-anchor="middle" x="857" y="-1919.2" font-family="Courier,monospace" font-size="11.00">loggerProviderModel</text>
</g>
<!-- \\LinHUniX\\Mcp\\Model\\mcpServiceProviderModelClass -->
<g id="node11" class="node"><title>\\LinHUniX\\Mcp\\Model\\mcpServiceProviderModelClass</title>
<polygon fill="none" stroke="black" points="706,-1778 500,-1778 500,-1742 706,-1742 706,-1778"/>
<text text-anchor="middle" x="603" y="-1757.2" font-family="Courier,monospace" font-size="11.00">mcpServiceProviderModelClass</text>
</g>
<!-- \\LinHUniX\\Mcp\\Provider\\loggerProviderModel&#45;&gt;\\LinHUniX\\Mcp\\Model\\mcpServiceProviderModelClass -->
<g id="edge1" class="edge"><title>\\LinHUniX\\Mcp\\Provider\\loggerProviderModel&#45;&gt;\\LinHUniX\\Mcp\\Model\\mcpServiceProviderModelClass</title>
<path fill="none" stroke="black" stroke-dasharray="1,5" d="M784.184,-1904.48C779.117,-1901.76 774.315,-1898.62 770,-1895 728.588,-1860.24 756.495,-1820.43 714,-1787 712.377,-1785.72 710.703,-1784.51 708.983,-1783.35"/>
<polygon fill="none" stroke="black" points="710.422,-1780.13 700.042,-1778 706.83,-1786.14 710.422,-1780.13"/>
</g>
<!-- \\LinHUniX\\Mcp\\Provider\\settingsProviderModel -->
<g id="node2" class="node"><title>\\LinHUniX\\Mcp\\Provider\\settingsProviderModel</title>
<polygon fill="none" stroke="black" points="936,-1886 778,-1886 778,-1850 936,-1850 936,-1886"/>
<text text-anchor="middle" x="857" y="-1865.2" font-family="Courier,monospace" font-size="11.00">settingsProviderModel</text>
</g>
<!-- \\LinHUniX\\Mcp\\Provider\\settingsProviderModel&#45;&gt;\\LinHUniX\\Mcp\\Model\\mcpServiceProviderModelClass -->
<g id="edge21" class="edge"><title>\\LinHUniX\\Mcp\\Provider\\settingsProviderModel&#45;&gt;\\LinHUniX\\Mcp\\Model\\mcpServiceProviderModelClass</title>
<path fill="none" stroke="black" stroke-dasharray="1,5" d="M794.476,-1849.98C786.003,-1846.52 777.608,-1842.53 770,-1838 741.078,-1820.77 743.707,-1802.83 714,-1787 710.536,-1785.15 706.944,-1783.43 703.264,-1781.82"/>
<polygon fill="none" stroke="black" points="704.543,-1778.57 693.96,-1778.06 701.92,-1785.06 704.543,-1778.57"/>
</g>
<!-- \\LinHUniX\\Mcp\\Model\\mcpRemoteObjectModelClass -->
<g id="node3" class="node"><title>\\LinHUniX\\Mcp\\Model\\mcpRemoteObjectModelClass</title>
<polygon fill="none" stroke="black" points="428,-1940 243,-1940 243,-1904 428,-1904 428,-1940"/>
<text text-anchor="middle" x="335.5" y="-1919.2" font-family="Courier,monospace" font-size="11.00">mcpRemoteObjectModelClass</text>
</g>
<!-- \\LinHUniX\\Mcp\\Model\\mcpBaseModelClass -->
<g id="node4" class="node"><title>\\LinHUniX\\Mcp\\Model\\mcpBaseModelClass</title>
<polygon fill="none" stroke="black" points="171,-1778 40,-1778 40,-1742 171,-1742 171,-1778"/>
<text text-anchor="middle" x="105.5" y="-1757.2" font-family="Courier,monospace" font-size="11.00">mcpBaseModelClass</text>
</g>
<!-- \\LinHUniX\\Mcp\\Model\\mcpRemoteObjectModelClass&#45;&gt;\\LinHUniX\\Mcp\\Model\\mcpBaseModelClass -->
<g id="edge2" class="edge"><title>\\LinHUniX\\Mcp\\Model\\mcpRemoteObjectModelClass&#45;&gt;\\LinHUniX\\Mcp\\Model\\mcpBaseModelClass</title>
<path fill="none" stroke="black" d="M261.187,-1903.97C254.861,-1901.34 248.705,-1898.37 243,-1895 194.468,-1866.34 150.493,-1816.64 126.23,-1786.2"/>
<polygon fill="none" stroke="black" points="128.848,-1783.87 119.922,-1778.16 123.341,-1788.19 128.848,-1783.87"/>
</g>
<!-- \\LinHUniX\\Mcp\\Model\\mcpConfigArrayModelClass -->
<g id="node5" class="node"><title>\\LinHUniX\\Mcp\\Model\\mcpConfigArrayModelClass</title>
<polygon fill="none" stroke="black" points="692.5,-1886 513.5,-1886 513.5,-1850 692.5,-1850 692.5,-1886"/>
<text text-anchor="middle" x="603" y="-1865.2" font-family="Courier,monospace" font-size="11.00">mcpConfigArrayModelClass</text>
</g>
<!-- \\ArrayAccess -->
<g id="node52" class="node"><title>\\ArrayAccess</title>
<ellipse fill="none" stroke="black" cx="335.5" cy="-18" rx="61.99" ry="18"/>
<text text-anchor="middle" x="335.5" y="-14.3" font-family="Times,serif" font-size="14.00" fill="gray">\ArrayAccess</text>
</g>
<!-- \\LinHUniX\\Mcp\\Model\\mcpConfigArrayModelClass&#45;&gt;\\ArrayAccess -->
<g id="edge4" class="edge"><title>\\LinHUniX\\Mcp\\Model\\mcpConfigArrayModelClass&#45;&gt;\\ArrayAccess</title>
<path fill="none" stroke="black" stroke-dasharray="1,5" d="M513.266,-1852.96C508.291,-1849.66 503.786,-1845.71 500,-1841 379.302,-1690.75 506.16,-284.161 428,-108 415.714,-80.3101 390.672,-56.6477 369.887,-40.5445"/>
<polygon fill="none" stroke="black" points="371.976,-37.7361 361.874,-34.5395 367.777,-43.3376 371.976,-37.7361"/>
</g>
<!-- \\LinHUniX\\Mcp\\Model\\mcpControllerModelClass -->
<g id="node6" class="node"><title>\\LinHUniX\\Mcp\\Model\\mcpControllerModelClass</title>
<polygon fill="none" stroke="black" points="421.5,-1778 249.5,-1778 249.5,-1742 421.5,-1742 421.5,-1778"/>
<text text-anchor="middle" x="335.5" y="-1757.2" font-family="Courier,monospace" font-size="11.00">mcpControllerModelClass</text>
</g>
<!-- \\LinHUniX\\Mcp\\Model\\mcpControllerModelClass&#45;&gt;\\LinHUniX\\Mcp\\Model\\mcpBaseModelClass -->
<g id="edge8" class="edge"><title>\\LinHUniX\\Mcp\\Model\\mcpControllerModelClass&#45;&gt;\\LinHUniX\\Mcp\\Model\\mcpBaseModelClass</title>
<path fill="none" stroke="black" d="M249.277,-1760C227.002,-1760 203.158,-1760 181.461,-1760"/>
<polygon fill="none" stroke="black" points="181.328,-1756.5 171.328,-1760 181.328,-1763.5 181.328,-1756.5"/>
</g>
<!-- \\LinHUniX\\Mcp\\Model\\mcpPageApiModelClass -->
<g id="node7" class="node"><title>\\LinHUniX\\Mcp\\Model\\mcpPageApiModelClass</title>
<polygon fill="none" stroke="black" points="679,-1940 527,-1940 527,-1904 679,-1904 679,-1940"/>
<text text-anchor="middle" x="603" y="-1919.2" font-family="Courier,monospace" font-size="11.00">mcpPageApiModelClass</text>
</g>
<!-- \\LinHUniX\\Mcp\\Model\\mcpPageApiModelClass&#45;&gt;\\LinHUniX\\Mcp\\Model\\mcpControllerModelClass -->
<g id="edge15" class="edge"><title>\\LinHUniX\\Mcp\\Model\\mcpPageApiModelClass&#45;&gt;\\LinHUniX\\Mcp\\Model\\mcpControllerModelClass</title>
<path fill="none" stroke="black" d="M526.994,-1908.94C517.407,-1905.37 508.121,-1900.81 500,-1895 453.075,-1861.44 474.448,-1821.21 428,-1787 426.158,-1785.64 424.248,-1784.35 422.284,-1783.13"/>
<polygon fill="none" stroke="black" points="423.798,-1779.97 413.358,-1778.16 420.394,-1786.08 423.798,-1779.97"/>
</g>
<!-- \\LinHUniX\\Mcp\\Model\\mcpRemoteApiModelClass -->
<g id="node8" class="node"><title>\\LinHUniX\\Mcp\\Model\\mcpRemoteApiModelClass</title>
<polygon fill="none" stroke="black" points="418,-1886 253,-1886 253,-1850 418,-1850 418,-1886"/>
<text text-anchor="middle" x="335.5" y="-1865.2" font-family="Courier,monospace" font-size="11.00">mcpRemoteApiModelClass</text>
</g>
<!-- \\LinHUniX\\Mcp\\Model\\mcpRemoteApiModelClass&#45;&gt;\\LinHUniX\\Mcp\\Model\\mcpBaseModelClass -->
<g id="edge19" class="edge"><title>\\LinHUniX\\Mcp\\Model\\mcpRemoteApiModelClass&#45;&gt;\\LinHUniX\\Mcp\\Model\\mcpBaseModelClass</title>
<path fill="none" stroke="black" d="M266.365,-1849.95C258.382,-1847.24 250.439,-1844.24 243,-1841 206.691,-1825.16 168.119,-1801.57 141.274,-1783.93"/>
<polygon fill="none" stroke="black" points="142.906,-1780.81 132.64,-1778.19 139.033,-1786.64 142.906,-1780.81"/>
</g>
<!-- \\LinHUniX\\Mcp\\Model\\mcpServiceModelClass -->
<g id="node9" class="node"><title>\\LinHUniX\\Mcp\\Model\\mcpServiceModelClass</title>
<polygon fill="none" stroke="black" points="411.5,-1832 259.5,-1832 259.5,-1796 411.5,-1796 411.5,-1832"/>
<text text-anchor="middle" x="335.5" y="-1811.2" font-family="Courier,monospace" font-size="11.00">mcpServiceModelClass</text>
</g>
<!-- \\LinHUniX\\Mcp\\Model\\mcpServiceModelClass&#45;&gt;\\LinHUniX\\Mcp\\Model\\mcpBaseModelClass -->
<g id="edge20" class="edge"><title>\\LinHUniX\\Mcp\\Model\\mcpServiceModelClass&#45;&gt;\\LinHUniX\\Mcp\\Model\\mcpBaseModelClass</title>
<path fill="none" stroke="black" d="M259.212,-1796.17C234.02,-1790.2 205.966,-1783.56 180.847,-1777.61"/>
<polygon fill="none" stroke="black" points="181.549,-1774.18 171.012,-1775.28 179.936,-1780.99 181.549,-1774.18"/>
</g>
<!-- \\LinHUniX\\Mcp\\Model\\mcpDebugModelClass -->
<g id="node10" class="node"><title>\\LinHUniX\\Mcp\\Model\\mcpDebugModelClass</title>
<polygon fill="none" stroke="black" points="672,-1832 534,-1832 534,-1796 672,-1796 672,-1832"/>
<text text-anchor="middle" x="603" y="-1811.2" font-family="Courier,monospace" font-size="11.00">mcpDebugModelClass</text>
</g>
<!-- \\LinHUniX\\Mcp\\Component\\mcpDebugClass -->
<g id="node12" class="node"><title>\\LinHUniX\\Mcp\\Component\\mcpDebugClass</title>
<polygon fill="none" stroke="black" points="909,-1806 805,-1806 805,-1770 909,-1770 909,-1806"/>
<text text-anchor="middle" x="857" y="-1785.2" font-family="Courier,monospace" font-size="11.00">mcpDebugClass</text>
</g>
<!-- \\LinHUniX\\Mcp\\Component\\mcpMenuClass -->
<g id="node13" class="node"><title>\\LinHUniX\\Mcp\\Component\\mcpMenuClass</title>
<polygon fill="none" stroke="black" points="906,-1752 808,-1752 808,-1716 906,-1716 906,-1752"/>
<text text-anchor="middle" x="857" y="-1731.2" font-family="Courier,monospace" font-size="11.00">mcpMenuClass</text>
</g>
<!-- \\LinHUniX\\Mcp\\Component\\mcpMailClass -->
<g id="node14" class="node"><title>\\LinHUniX\\Mcp\\Component\\mcpMailClass</title>
<polygon fill="none" stroke="black" points="906,-1698 808,-1698 808,-1662 906,-1662 906,-1698"/>
<text text-anchor="middle" x="857" y="-1677.2" font-family="Courier,monospace" font-size="11.00">mcpMailClass</text>
</g>
<!-- \\LinHUniX\\Mcp\\Component\\mcpToolsClass -->
<g id="node15" class="node"><title>\\LinHUniX\\Mcp\\Component\\mcpToolsClass</title>
<polygon fill="none" stroke="black" points="909,-1644 805,-1644 805,-1608 909,-1608 909,-1644"/>
<text text-anchor="middle" x="857" y="-1623.2" font-family="Courier,monospace" font-size="11.00">mcpToolsClass</text>
</g>
<!-- \\LinHUniX\\Mcp\\Component\\mcpTemplateClass -->
<g id="node16" class="node"><title>\\LinHUniX\\Mcp\\Component\\mcpTemplateClass</title>
<polygon fill="none" stroke="black" points="919.5,-1590 794.5,-1590 794.5,-1554 919.5,-1554 919.5,-1590"/>
<text text-anchor="middle" x="857" y="-1569.2" font-family="Courier,monospace" font-size="11.00">mcpTemplateClass</text>
</g>
<!-- \\LinHUniX\\Mcp\\Component\\mcpCoreClass -->
<g id="node17" class="node"><title>\\LinHUniX\\Mcp\\Component\\mcpCoreClass</title>
<polygon fill="none" stroke="black" points="906,-1536 808,-1536 808,-1500 906,-1500 906,-1536"/>
<text text-anchor="middle" x="857" y="-1515.2" font-family="Courier,monospace" font-size="11.00">mcpCoreClass</text>
</g>
<!-- \\LinHUniX\\Mcp\\Component\\mcpLanguageClass -->
<g id="node18" class="node"><title>\\LinHUniX\\Mcp\\Component\\mcpLanguageClass</title>
<polygon fill="none" stroke="black" points="919.5,-1482 794.5,-1482 794.5,-1446 919.5,-1446 919.5,-1482"/>
<text text-anchor="middle" x="857" y="-1461.2" font-family="Courier,monospace" font-size="11.00">mcpLanguageClass</text>
</g>
<!-- \\LinHUniX\\Mcp\\Component\\mcpProxyClass -->
<g id="node19" class="node"><title>\\LinHUniX\\Mcp\\Component\\mcpProxyClass</title>
<polygon fill="none" stroke="black" points="909,-1428 805,-1428 805,-1392 909,-1392 909,-1428"/>
<text text-anchor="middle" x="857" y="-1407.2" font-family="Courier,monospace" font-size="11.00">mcpProxyClass</text>
</g>
<!-- \\LinHUniX\\Mcp\\Component\\mcpApiClass -->
<g id="node20" class="node"><title>\\LinHUniX\\Mcp\\Component\\mcpApiClass</title>
<polygon fill="none" stroke="black" points="902.5,-1374 811.5,-1374 811.5,-1338 902.5,-1338 902.5,-1374"/>
<text text-anchor="middle" x="857" y="-1353.2" font-family="Courier,monospace" font-size="11.00">mcpApiClass</text>
</g>
<!-- \\LinHUniX\\Mcp\\Tools\\HttpRouter -->
<g id="node21" class="node"><title>\\LinHUniX\\Mcp\\Tools\\HttpRouter</title>
<polygon fill="none" stroke="black" points="899,-1294 815,-1294 815,-1258 899,-1258 899,-1294"/>
<text text-anchor="middle" x="857" y="-1273.2" font-family="Courier,monospace" font-size="11.00">HttpRouter</text>
</g>
<!-- \\LinHUniX\\Mcp\\Tools\\pharizeShell -->
<g id="node22" class="node"><title>\\LinHUniX\\Mcp\\Tools\\pharizeShell</title>
<polygon fill="none" stroke="black" points="906,-1240 808,-1240 808,-1204 906,-1204 906,-1240"/>
<text text-anchor="middle" x="857" y="-1219.2" font-family="Courier,monospace" font-size="11.00">pharizeShell</text>
</g>
<!-- \\LinHUniX\\Mcp\\Tools\\browserData -->
<g id="node23" class="node"><title>\\LinHUniX\\Mcp\\Tools\\browserData</title>
<polygon fill="none" stroke="black" points="902.5,-1186 811.5,-1186 811.5,-1150 902.5,-1150 902.5,-1186"/>
<text text-anchor="middle" x="857" y="-1165.2" font-family="Courier,monospace" font-size="11.00">browserData</text>
</g>
<!-- \\LinHUniX\\Mcp\\Tools\\scheduler -->
<g id="node24" class="node"><title>\\LinHUniX\\Mcp\\Tools\\scheduler</title>
<polygon fill="none" stroke="black" points="895.5,-1132 818.5,-1132 818.5,-1096 895.5,-1096 895.5,-1132"/>
<text text-anchor="middle" x="857" y="-1111.2" font-family="Courier,monospace" font-size="11.00">scheduler</text>
</g>
<!-- \\LinHUniX\\Mcp\\Tools\\pharizeBase -->
<g id="node25" class="node"><title>\\LinHUniX\\Mcp\\Tools\\pharizeBase</title>
<polygon fill="none" stroke="black" points="902.5,-1078 811.5,-1078 811.5,-1042 902.5,-1042 902.5,-1078"/>
<text text-anchor="middle" x="857" y="-1057.2" font-family="Courier,monospace" font-size="11.00">pharizeBase</text>
</g>
<!-- \\LinHUniX\\Mcp\\masterControlProgram -->
<g id="node26" class="node"><title>\\LinHUniX\\Mcp\\masterControlProgram</title>
<polygon fill="none" stroke="black" points="933,-1024 781,-1024 781,-988 933,-988 933,-1024"/>
<text text-anchor="middle" x="857" y="-1003.2" font-family="Courier,monospace" font-size="11.00">masterControlProgram</text>
</g>
<!-- \\LinHUniX\\Pdo\\Service\\pdoService -->
<g id="node27" class="node"><title>\\LinHUniX\\Pdo\\Service\\pdoService</title>
<polygon fill="none" stroke="black" points="645,-514 561,-514 561,-478 645,-478 645,-514"/>
<text text-anchor="middle" x="603" y="-493.2" font-family="Courier,monospace" font-size="11.00">pdoService</text>
</g>
<!-- \\LinHUniX\\Pdo\\Service\\pdoService&#45;&gt;\\LinHUniX\\Mcp\\Model\\mcpBaseModelClass -->
<g id="edge3" class="edge"><title>\\LinHUniX\\Pdo\\Service\\pdoService&#45;&gt;\\LinHUniX\\Mcp\\Model\\mcpBaseModelClass</title>
<path fill="none" stroke="black" d="M560.712,-494.426C484.789,-494.004 323.44,-505.074 243,-600 167.236,-689.409 116.996,-1563.27 107.965,-1731.91"/>
<polygon fill="none" stroke="black" points="104.465,-1731.81 107.429,-1741.98 111.455,-1732.18 104.465,-1731.81"/>
</g>
<!-- \\LinHUniX\\Pdo\\Api\\RestQueryJsonApi -->
<g id="node28" class="node"><title>\\LinHUniX\\Pdo\\Api\\RestQueryJsonApi</title>
<polygon fill="none" stroke="black" points="665.5,-916 540.5,-916 540.5,-880 665.5,-880 665.5,-916"/>
<text text-anchor="middle" x="603" y="-895.2" font-family="Courier,monospace" font-size="11.00">RestQueryJsonApi</text>
</g>
<!-- \\LinHUniX\\Pdo\\Api\\RestQueryJsonApi&#45;&gt;\\LinHUniX\\Mcp\\Model\\mcpControllerModelClass -->
<g id="edge6" class="edge"><title>\\LinHUniX\\Pdo\\Api\\RestQueryJsonApi&#45;&gt;\\LinHUniX\\Mcp\\Model\\mcpControllerModelClass</title>
<path fill="none" stroke="black" d="M596.455,-916.004C562.85,-1025.11 386.532,-1597.56 345.184,-1731.81"/>
<polygon fill="none" stroke="black" points="341.725,-1731.14 342.127,-1741.73 348.415,-1733.2 341.725,-1731.14"/>
</g>
<!-- \\LinHUniX\\Pdo\\Driver\\pdoDriver -->
<g id="node29" class="node"><title>\\LinHUniX\\Pdo\\Driver\\pdoDriver</title>
<polygon fill="none" stroke="black" points="374,-809 297,-809 297,-773 374,-773 374,-809"/>
<text text-anchor="middle" x="335.5" y="-788.2" font-family="Courier,monospace" font-size="11.00">pdoDriver</text>
</g>
<!-- \\LinHUniX\\Pdo\\Driver\\pdoDriver&#45;&gt;\\LinHUniX\\Mcp\\Model\\mcpBaseModelClass -->
<g id="edge7" class="edge"><title>\\LinHUniX\\Pdo\\Driver\\pdoDriver&#45;&gt;\\LinHUniX\\Mcp\\Model\\mcpBaseModelClass</title>
<path fill="none" stroke="black" d="M330.249,-809.067C302.505,-926.979 147.295,-1586.62 113.146,-1731.76"/>
<polygon fill="none" stroke="black" points="109.697,-1731.13 110.813,-1741.67 116.511,-1732.74 109.697,-1731.13"/>
</g>
<!-- \\LinHUniX\\Pdo\\Driver\\mssqlDriver -->
<g id="node30" class="node"><title>\\LinHUniX\\Pdo\\Driver\\mssqlDriver</title>
<polygon fill="none" stroke="black" points="648.5,-836 557.5,-836 557.5,-800 648.5,-800 648.5,-836"/>
<text text-anchor="middle" x="603" y="-815.2" font-family="Courier,monospace" font-size="11.00">mssqlDriver</text>
</g>
<!-- \\LinHUniX\\Pdo\\Driver\\mssqlDriver&#45;&gt;\\LinHUniX\\Pdo\\Driver\\pdoDriver -->
<g id="edge12" class="edge"><title>\\LinHUniX\\Pdo\\Driver\\mssqlDriver&#45;&gt;\\LinHUniX\\Pdo\\Driver\\pdoDriver</title>
<path fill="none" stroke="black" d="M557.262,-813.45C509.248,-808.568 433.278,-800.842 384.164,-795.847"/>
<polygon fill="none" stroke="black" points="384.413,-792.355 374.11,-794.825 383.705,-799.319 384.413,-792.355"/>
</g>
<!-- \\LinHUniX\\Pdo\\Driver\\sqliteDriver -->
<g id="node31" class="node"><title>\\LinHUniX\\Pdo\\Driver\\sqliteDriver</title>
<polygon fill="none" stroke="black" points="652,-782 554,-782 554,-746 652,-746 652,-782"/>
<text text-anchor="middle" x="603" y="-761.2" font-family="Courier,monospace" font-size="11.00">sqliteDriver</text>
</g>
<!-- \\LinHUniX\\Pdo\\Driver\\sqliteDriver&#45;&gt;\\LinHUniX\\Pdo\\Driver\\pdoDriver -->
<g id="edge13" class="edge"><title>\\LinHUniX\\Pdo\\Driver\\sqliteDriver&#45;&gt;\\LinHUniX\\Pdo\\Driver\\pdoDriver</title>
<path fill="none" stroke="black" d="M553.92,-768.889C505.89,-773.774 432.48,-781.239 384.484,-786.12"/>
<polygon fill="none" stroke="black" points="383.944,-782.657 374.349,-787.151 384.652,-789.621 383.944,-782.657"/>
</g>
<!-- \\LinHUniX\\Pdo\\Driver\\mysqlDriver -->
<g id="node32" class="node"><title>\\LinHUniX\\Pdo\\Driver\\mysqlDriver</title>
<polygon fill="none" stroke="black" points="648.5,-728 557.5,-728 557.5,-692 648.5,-692 648.5,-728"/>
<text text-anchor="middle" x="603" y="-707.2" font-family="Courier,monospace" font-size="11.00">mysqlDriver</text>
</g>
<!-- \\LinHUniX\\Pdo\\Driver\\mysqlDriver&#45;&gt;\\LinHUniX\\Pdo\\Driver\\pdoDriver -->
<g id="edge14" class="edge"><title>\\LinHUniX\\Pdo\\Driver\\mysqlDriver&#45;&gt;\\LinHUniX\\Pdo\\Driver\\pdoDriver</title>
<path fill="none" stroke="black" d="M557.404,-721.183C539.495,-725.836 518.701,-731.442 500,-737 460.658,-748.692 416.487,-763.375 383.983,-774.478"/>
<polygon fill="none" stroke="black" points="382.613,-771.248 374.289,-777.802 384.883,-777.869 382.613,-771.248"/>
</g>
<!-- \\LinHUniX\\Pdo\\Model\\mcpQueryModelClass -->
<g id="node33" class="node"><title>\\LinHUniX\\Pdo\\Model\\mcpQueryModelClass</title>
<polygon fill="none" stroke="black" points="404.5,-648 266.5,-648 266.5,-612 404.5,-612 404.5,-648"/>
<text text-anchor="middle" x="335.5" y="-627.2" font-family="Courier,monospace" font-size="11.00">mcpQueryModelClass</text>
</g>
<!-- \\LinHUniX\\Pdo\\Model\\mcpQueryModelClass&#45;&gt;\\LinHUniX\\Mcp\\Model\\mcpBaseModelClass -->
<g id="edge9" class="edge"><title>\\LinHUniX\\Pdo\\Model\\mcpQueryModelClass&#45;&gt;\\LinHUniX\\Mcp\\Model\\mcpBaseModelClass</title>
<path fill="none" stroke="black" d="M281.984,-648.078C267.149,-655.686 252.481,-666.088 243,-680 121.385,-858.452 108.123,-1578.96 106.677,-1731.53"/>
<polygon fill="none" stroke="black" points="103.174,-1731.87 106.589,-1741.9 110.174,-1731.93 103.174,-1731.87"/>
</g>
<!-- \\LinHUniX\\Pdo\\Query\\JsonQuery -->
<g id="node34" class="node"><title>\\LinHUniX\\Pdo\\Query\\JsonQuery</title>
<polygon fill="none" stroke="black" points="641.5,-648 564.5,-648 564.5,-612 641.5,-612 641.5,-648"/>
<text text-anchor="middle" x="603" y="-627.2" font-family="Courier,monospace" font-size="11.00">JsonQuery</text>
</g>
<!-- \\LinHUniX\\Pdo\\Query\\JsonQuery&#45;&gt;\\LinHUniX\\Pdo\\Model\\mcpQueryModelClass -->
<g id="edge17" class="edge"><title>\\LinHUniX\\Pdo\\Query\\JsonQuery&#45;&gt;\\LinHUniX\\Pdo\\Model\\mcpQueryModelClass</title>
<path fill="none" stroke="black" d="M564.242,-630C525.468,-630 463.987,-630 414.673,-630"/>
<polygon fill="none" stroke="black" points="414.666,-626.5 404.666,-630 414.666,-633.5 414.666,-626.5"/>
</g>
<!-- \\LinHUniX\\Pdo\\Query\\ArrayQuery -->
<g id="node35" class="node"><title>\\LinHUniX\\Pdo\\Query\\ArrayQuery</title>
<polygon fill="none" stroke="black" points="645,-594 561,-594 561,-558 645,-558 645,-594"/>
<text text-anchor="middle" x="603" y="-573.2" font-family="Courier,monospace" font-size="11.00">ArrayQuery</text>
</g>
<!-- \\LinHUniX\\Pdo\\Query\\ArrayQuery&#45;&gt;\\LinHUniX\\Pdo\\Model\\mcpQueryModelClass -->
<g id="edge18" class="edge"><title>\\LinHUniX\\Pdo\\Query\\ArrayQuery&#45;&gt;\\LinHUniX\\Pdo\\Model\\mcpQueryModelClass</title>
<path fill="none" stroke="black" d="M560.807,-584.378C521.917,-592.288 462.586,-604.355 414.711,-614.093"/>
<polygon fill="none" stroke="black" points="413.782,-610.71 404.68,-616.133 415.177,-617.569 413.782,-610.71"/>
</g>
<!-- \\LinHUniX\\Gfx\\Service\\gfxService -->
<g id="node36" class="node"><title>\\LinHUniX\\Gfx\\Service\\gfxService</title>
<polygon fill="none" stroke="black" points="645,-2858 561,-2858 561,-2822 645,-2822 645,-2858"/>
<text text-anchor="middle" x="603" y="-2837.2" font-family="Courier,monospace" font-size="11.00">gfxService</text>
</g>
<!-- \\LinHUniX\\Gfx\\Service\\gfxService&#45;&gt;\\LinHUniX\\Mcp\\Model\\mcpBaseModelClass -->
<g id="edge5" class="edge"><title>\\LinHUniX\\Gfx\\Service\\gfxService&#45;&gt;\\LinHUniX\\Mcp\\Model\\mcpBaseModelClass</title>
<path fill="none" stroke="black" d="M560.971,-2836.55C540.429,-2832.87 516.49,-2825.34 500,-2810 178.666,-2511.16 118.127,-1924.51 108.248,-1788.59"/>
<polygon fill="none" stroke="black" points="111.712,-1787.94 107.531,-1778.21 104.729,-1788.43 111.712,-1787.94"/>
</g>
<!-- \\LinHUniX\\Gfx\\Component\\zebra_image -->
<g id="node37" class="node"><title>\\LinHUniX\\Gfx\\Component\\zebra_image</title>
<polygon fill="none" stroke="black" points="648.5,-2778 557.5,-2778 557.5,-2742 648.5,-2742 648.5,-2778"/>
<text text-anchor="middle" x="603" y="-2757.2" font-family="Courier,monospace" font-size="11.00">zebra_image</text>
</g>
<!-- \\LinHUniX\\Gfx\\Component\\html2text -->
<g id="node38" class="node"><title>\\LinHUniX\\Gfx\\Component\\html2text</title>
<polygon fill="none" stroke="black" points="641.5,-2724 564.5,-2724 564.5,-2688 641.5,-2688 641.5,-2724"/>
<text text-anchor="middle" x="603" y="-2703.2" font-family="Courier,monospace" font-size="11.00">html2text</text>
</g>
<!-- \\LinHUniX\\Gfx\\Controller\\uploadController -->
<g id="node39" class="node"><title>\\LinHUniX\\Gfx\\Controller\\uploadController</title>
<polygon fill="none" stroke="black" points="665.5,-2644 540.5,-2644 540.5,-2608 665.5,-2608 665.5,-2644"/>
<text text-anchor="middle" x="603" y="-2623.2" font-family="Courier,monospace" font-size="11.00">uploadController</text>
</g>
<!-- \\LinHUniX\\Gfx\\Controller\\uploadController&#45;&gt;\\LinHUniX\\Mcp\\Model\\mcpRemoteApiModelClass -->
<g id="edge16" class="edge"><title>\\LinHUniX\\Gfx\\Controller\\uploadController&#45;&gt;\\LinHUniX\\Mcp\\Model\\mcpRemoteApiModelClass</title>
<path fill="none" stroke="black" d="M540.49,-2620.11C525.162,-2615.68 510.207,-2608.28 500,-2596 299.784,-2355.16 628.109,-2135.93 428,-1895 427.375,-1894.25 426.73,-1893.52 426.067,-1892.8"/>
<polygon fill="none" stroke="black" points="428.103,-1889.93 418.302,-1885.9 423.453,-1895.16 428.103,-1889.93"/>
</g>
<!-- \\LinHUniX\\Gfx\\Tools\\UniversalContentManager -->
<g id="node40" class="node"><title>\\LinHUniX\\Gfx\\Tools\\UniversalContentManager</title>
<polygon fill="none" stroke="black" points="689,-2564 517,-2564 517,-2528 689,-2528 689,-2564"/>
<text text-anchor="middle" x="603" y="-2543.2" font-family="Courier,monospace" font-size="11.00">UniversalContentManager</text>
</g>
<!-- \\LinHUniX\\Mail\\Component\\SMTP -->
<g id="node41" class="node"><title>\\LinHUniX\\Mail\\Component\\SMTP</title>
<polygon fill="none" stroke="black" points="362.5,-318 308.5,-318 308.5,-282 362.5,-282 362.5,-318"/>
<text text-anchor="middle" x="335.5" y="-297.2" font-family="Courier,monospace" font-size="11.00">SMTP</text>
</g>
<!-- \\LinHUniX\\Mail\\Component\\PHPMailer -->
<g id="node42" class="node"><title>\\LinHUniX\\Mail\\Component\\PHPMailer</title>
<polygon fill="none" stroke="black" points="374,-264 297,-264 297,-228 374,-228 374,-264"/>
<text text-anchor="middle" x="335.5" y="-243.2" font-family="Courier,monospace" font-size="11.00">PHPMailer</text>
</g>
<!-- \\LinHUniX\\Mail\\Component\\phpmailerException -->
<g id="node43" class="node"><title>\\LinHUniX\\Mail\\Component\\phpmailerException</title>
<polygon fill="none" stroke="black" points="404.5,-210 266.5,-210 266.5,-174 404.5,-174 404.5,-210"/>
<text text-anchor="middle" x="335.5" y="-189.2" font-family="Courier,monospace" font-size="11.00">phpmailerException</text>
</g>
<!-- \\Exception -->
<g id="node53" class="node"><title>\\Exception</title>
<ellipse fill="none" stroke="black" cx="105.5" cy="-18" rx="50.8918" ry="18"/>
<text text-anchor="middle" x="105.5" y="-14.3" font-family="Times,serif" font-size="14.00" fill="gray">\Exception</text>
</g>
<!-- \\LinHUniX\\Mail\\Component\\phpmailerException&#45;&gt;\\Exception -->
<g id="edge23" class="edge"><title>\\LinHUniX\\Mail\\Component\\phpmailerException&#45;&gt;\\Exception</title>
<path fill="none" stroke="black" d="M266.261,-176.346C258.131,-173.197 250.18,-169.449 243,-165 191.636,-133.177 147.198,-76.9705 123.89,-44.0473"/>
<polygon fill="none" stroke="black" points="126.743,-42.0204 118.157,-35.8129 120.998,-46.0198 126.743,-42.0204"/>
</g>
<!-- \\LinHUniX\\Mail\\Component\\POP3 -->
<g id="node44" class="node"><title>\\LinHUniX\\Mail\\Component\\POP3</title>
<polygon fill="none" stroke="black" points="362.5,-156 308.5,-156 308.5,-120 362.5,-120 362.5,-156"/>
<text text-anchor="middle" x="335.5" y="-135.2" font-family="Courier,monospace" font-size="11.00">POP3</text>
</g>
<!-- \\LinHUniX\\Mail\\Service\\mailService -->
<g id="node45" class="node"><title>\\LinHUniX\\Mail\\Service\\mailService</title>
<polygon fill="none" stroke="black" points="381,-398 290,-398 290,-362 381,-362 381,-398"/>
<text text-anchor="middle" x="335.5" y="-377.2" font-family="Courier,monospace" font-size="11.00">mailService</text>
</g>
<!-- \\LinHUniX\\Mail\\Service\\mailService&#45;&gt;\\LinHUniX\\Mcp\\Model\\mcpBaseModelClass -->
<g id="edge25" class="edge"><title>\\LinHUniX\\Mail\\Service\\mailService&#45;&gt;\\LinHUniX\\Mcp\\Model\\mcpBaseModelClass</title>
<path fill="none" stroke="black" d="M320.51,-398.369C299.685,-426.793 261.055,-483.919 243,-539 166.605,-772.057 117.313,-1571.69 108.078,-1731.92"/>
<polygon fill="none" stroke="black" points="104.582,-1731.75 107.505,-1741.93 111.57,-1732.15 104.582,-1731.75"/>
</g>
<!-- \\LinHUniX\\Auth\\Driver\\sqliteDriver -->
<g id="node46" class="node"><title>\\LinHUniX\\Auth\\Driver\\sqliteDriver</title>
<polygon fill="none" stroke="black" points="652,-2136 554,-2136 554,-2100 652,-2100 652,-2136"/>
<text text-anchor="middle" x="603" y="-2115.2" font-family="Courier,monospace" font-size="11.00">sqliteDriver</text>
</g>
<!-- \\LinHUniX\\Auth\\Driver\\sqliteDriver&#45;&gt;\\LinHUniX\\Mcp\\Model\\mcpServiceModelClass -->
<g id="edge10" class="edge"><title>\\LinHUniX\\Auth\\Driver\\sqliteDriver&#45;&gt;\\LinHUniX\\Mcp\\Model\\mcpServiceModelClass</title>
<path fill="none" stroke="black" d="M553.784,-2113.77C534.81,-2109.8 514.21,-2102.24 500,-2088 419.242,-2007.05 508.722,-1921.99 428,-1841 425.603,-1838.6 423.003,-1836.4 420.249,-1834.4"/>
<polygon fill="none" stroke="black" points="421.9,-1831.31 411.567,-1828.97 418.185,-1837.24 421.9,-1831.31"/>
</g>
<!-- \\LinHUniX\\Auth\\Service\\authService -->
<g id="node47" class="node"><title>\\LinHUniX\\Auth\\Service\\authService</title>
<polygon fill="none" stroke="black" points="648.5,-2056 557.5,-2056 557.5,-2020 648.5,-2020 648.5,-2056"/>
<text text-anchor="middle" x="603" y="-2035.2" font-family="Courier,monospace" font-size="11.00">authService</text>
</g>
<!-- \\LinHUniX\\Auth\\Service\\authService&#45;&gt;\\LinHUniX\\Mcp\\Model\\mcpServiceModelClass -->
<g id="edge24" class="edge"><title>\\LinHUniX\\Auth\\Service\\authService&#45;&gt;\\LinHUniX\\Mcp\\Model\\mcpServiceModelClass</title>
<path fill="none" stroke="black" d="M564.795,-2019.82C543.893,-2008.26 518.393,-1991.76 500,-1972 454.738,-1923.37 479.76,-1882.65 428,-1841 425.702,-1839.15 423.28,-1837.43 420.763,-1835.82"/>
<polygon fill="none" stroke="black" points="422.312,-1832.68 411.883,-1830.81 418.87,-1838.77 422.312,-1832.68"/>
</g>
<!-- \\LinHUniX\\Ln4\\Driver\\AuthDriver -->
<g id="node48" class="node"><title>\\LinHUniX\\Ln4\\Driver\\AuthDriver</title>
<polygon fill="none" stroke="black" points="645,-2448 561,-2448 561,-2412 645,-2412 645,-2448"/>
<text text-anchor="middle" x="603" y="-2427.2" font-family="Courier,monospace" font-size="11.00">AuthDriver</text>
</g>
<!-- \\LinHUniX\\Ln4\\Driver\\AuthDriver&#45;&gt;\\LinHUniX\\Mcp\\Model\\mcpServiceModelClass -->
<g id="edge11" class="edge"><title>\\LinHUniX\\Ln4\\Driver\\AuthDriver&#45;&gt;\\LinHUniX\\Mcp\\Model\\mcpServiceModelClass</title>
<path fill="none" stroke="black" d="M560.973,-2428.26C539.647,-2425.12 514.977,-2417.55 500,-2400 337.399,-2209.45 590.517,-2031.62 428,-1841 425.618,-1838.21 422.961,-1835.69 420.097,-1833.43"/>
<polygon fill="none" stroke="black" points="421.788,-1830.35 411.527,-1827.71 417.902,-1836.18 421.788,-1830.35"/>
</g>
<!-- \\LinHUniX\\Ln4\\Service\\lnxService -->
<g id="node49" class="node"><title>\\LinHUniX\\Ln4\\Service\\lnxService</title>
<polygon fill="none" stroke="black" points="645,-2368 561,-2368 561,-2332 645,-2332 645,-2368"/>
<text text-anchor="middle" x="603" y="-2347.2" font-family="Courier,monospace" font-size="11.00">lnxService</text>
</g>
<!-- \\LinHUniX\\Ln4\\Service\\lnxService&#45;&gt;\\LinHUniX\\Mcp\\Model\\mcpServiceModelClass -->
<g id="edge26" class="edge"><title>\\LinHUniX\\Ln4\\Service\\lnxService&#45;&gt;\\LinHUniX\\Mcp\\Model\\mcpServiceModelClass</title>
<path fill="none" stroke="black" d="M560.794,-2333.31C539.277,-2322.45 514.48,-2306.16 500,-2284 390.884,-2117.02 559.902,-1990.64 428,-1841 425.628,-1838.31 423.003,-1835.88 420.184,-1833.69"/>
<polygon fill="none" stroke="black" points="422.046,-1830.72 411.777,-1828.12 418.18,-1836.56 422.046,-1830.72"/>
</g>
<!-- \\LinHUniX\\ln4\\Controller\\ln4Controller -->
<g id="node50" class="node"><title>\\LinHUniX\\ln4\\Controller\\ln4Controller</title>
<polygon fill="none" stroke="black" points="655,-2252 551,-2252 551,-2216 655,-2216 655,-2252"/>
<text text-anchor="middle" x="603" y="-2231.2" font-family="Courier,monospace" font-size="11.00">ln4Controller</text>
</g>
<!-- \\LinHUniX\\ln4\\Controller\\ln4Controller&#45;&gt;\\LinHUniX\\Mcp\\Model\\mcpRemoteApiModelClass -->
<g id="edge22" class="edge"><title>\\LinHUniX\\ln4\\Controller\\ln4Controller&#45;&gt;\\LinHUniX\\Mcp\\Model\\mcpRemoteApiModelClass</title>
<path fill="none" stroke="black" d="M560.086,-2215.94C539.17,-2204.93 515.163,-2188.92 500,-2168 426.359,-2066.4 515.43,-1985.01 428,-1895 427.192,-1894.17 426.36,-1893.36 425.506,-1892.58"/>
<polygon fill="none" stroke="black" points="427.312,-1889.55 417.267,-1886.19 423.021,-1895.08 427.312,-1889.55"/>
</g>
<!-- \\mcpAutoload -->
<g id="node51" class="node"><title>\\mcpAutoload</title>
<polygon fill="none" stroke="black" points="902.5,-88 811.5,-88 811.5,-52 902.5,-52 902.5,-88"/>
<text text-anchor="middle" x="857" y="-67.2" font-family="Courier,monospace" font-size="11.00">mcpAutoload</text>
</g>
</g>
</svg>
