<?xml version="1.0" encoding="UTF-8" standalone="no"?>
<!DOCTYPE svg PUBLIC "-//W3C//DTD SVG 1.1//EN"
 "http://www.w3.org/Graphics/SVG/1.1/DTD/svg11.dtd">
<!-- Generated by graphviz version 2.38.0 (20140413.2041)
 -->
<!-- Title: G Pages: 1 -->
<svg width="984pt" height="2584pt"
 viewBox="0.00 0.00 984.00 2584.00" xmlns="http://www.w3.org/2000/svg" xmlns:xlink="http://www.w3.org/1999/xlink">
<g id="graph0" class="graph" transform="scale(1 1) rotate(0) translate(4 2580)">
<title>G</title>
<polygon fill="white" stroke="none" points="-4,4 -4,-2580 980,-2580 980,4 -4,4"/>
<g id="clust1" class="cluster"><title>cluster_Global</title>
<path fill="none" stroke="gray" d="M20,-44C20,-44 956,-44 956,-44 962,-44 968,-50 968,-56 968,-56 968,-2556 968,-2556 968,-2562 962,-2568 956,-2568 956,-2568 20,-2568 20,-2568 14,-2568 8,-2562 8,-2556 8,-2556 8,-56 8,-56 8,-50 14,-44 20,-44"/>
<text text-anchor="middle" x="488" y="-2555.2" font-family="Times,serif" font-size="11.00" fill="gray">Global</text>
</g>
<g id="clust2" class="cluster"><title>cluster_\LinHUniX</title>
<path fill="none" stroke="gray" d="M28,-96C28,-96 948,-96 948,-96 954,-96 960,-102 960,-108 960,-108 960,-2528 960,-2528 960,-2534 954,-2540 948,-2540 948,-2540 28,-2540 28,-2540 22,-2540 16,-2534 16,-2528 16,-2528 16,-108 16,-108 16,-102 22,-96 28,-96"/>
<text text-anchor="middle" x="488" y="-2527.2" font-family="Times,serif" font-size="11.00" fill="gray">LinHUniX</text>
</g>
<g id="clust3" class="cluster"><title>cluster_\LinHUniX\Mcp</title>
<path fill="none" stroke="gray" d="M36,-462C36,-462 940,-462 940,-462 946,-462 952,-468 952,-474 952,-474 952,-1358 952,-1358 952,-1364 946,-1370 940,-1370 940,-1370 36,-1370 36,-1370 30,-1370 24,-1364 24,-1358 24,-1358 24,-474 24,-474 24,-468 30,-462 36,-462"/>
<text text-anchor="middle" x="488" y="-1357.2" font-family="Times,serif" font-size="11.00" fill="gray">Mcp</text>
</g>
<g id="clust4" class="cluster"><title>cluster_\LinHUniX\Mcp\Provider</title>
<path fill="none" stroke="gray" d="M782,-1216C782,-1216 932,-1216 932,-1216 938,-1216 944,-1222 944,-1228 944,-1228 944,-1330 944,-1330 944,-1336 938,-1342 932,-1342 932,-1342 782,-1342 782,-1342 776,-1342 770,-1336 770,-1330 770,-1330 770,-1228 770,-1228 770,-1222 776,-1216 782,-1216"/>
<text text-anchor="middle" x="857" y="-1329.2" font-family="Times,serif" font-size="11.00" fill="gray">Provider</text>
</g>
<g id="clust5" class="cluster"><title>cluster_\LinHUniX\Mcp\Model</title>
<path fill="none" stroke="gray" d="M44,-1108C44,-1108 702,-1108 702,-1108 708,-1108 714,-1114 714,-1120 714,-1120 714,-1330 714,-1330 714,-1336 708,-1342 702,-1342 702,-1342 44,-1342 44,-1342 38,-1342 32,-1336 32,-1330 32,-1330 32,-1120 32,-1120 32,-1114 38,-1108 44,-1108"/>
<text text-anchor="middle" x="373" y="-1329.2" font-family="Times,serif" font-size="11.00" fill="gray">Model</text>
</g>
<g id="clust6" class="cluster"><title>cluster_\LinHUniX\Mcp\Component</title>
<path fill="none" stroke="gray" d="M798.5,-704C798.5,-704 915.5,-704 915.5,-704 921.5,-704 927.5,-710 927.5,-716 927.5,-716 927.5,-1196 927.5,-1196 927.5,-1202 921.5,-1208 915.5,-1208 915.5,-1208 798.5,-1208 798.5,-1208 792.5,-1208 786.5,-1202 786.5,-1196 786.5,-1196 786.5,-716 786.5,-716 786.5,-710 792.5,-704 798.5,-704"/>
<text text-anchor="middle" x="857" y="-1195.2" font-family="Times,serif" font-size="11.00" fill="gray">Component</text>
</g>
<g id="clust7" class="cluster"><title>cluster_\LinHUniX\Mcp\Tools</title>
<path fill="none" stroke="gray" d="M812,-516C812,-516 902,-516 902,-516 908,-516 914,-522 914,-528 914,-528 914,-684 914,-684 914,-690 908,-696 902,-696 902,-696 812,-696 812,-696 806,-696 800,-690 800,-684 800,-684 800,-528 800,-528 800,-522 806,-516 812,-516"/>
<text text-anchor="middle" x="857" y="-683.2" font-family="Times,serif" font-size="11.00" fill="gray">Tools</text>
</g>
<g id="clust8" class="cluster"><title>cluster_\LinHUniX\Pdo</title>
<path fill="none" stroke="gray" d="M262.5,-2136C262.5,-2136 656,-2136 656,-2136 662,-2136 668,-2142 668,-2148 668,-2148 668,-2500 668,-2500 668,-2506 662,-2512 656,-2512 656,-2512 262.5,-2512 262.5,-2512 256.5,-2512 250.5,-2506 250.5,-2500 250.5,-2500 250.5,-2148 250.5,-2148 250.5,-2142 256.5,-2136 262.5,-2136"/>
<text text-anchor="middle" x="459.25" y="-2499.2" font-family="Times,serif" font-size="11.00" fill="gray">Pdo</text>
</g>
<g id="clust9" class="cluster"><title>cluster_\LinHUniX\Pdo\Service</title>
<path fill="none" stroke="gray" d="M565,-2144C565,-2144 641,-2144 641,-2144 647,-2144 653,-2150 653,-2156 653,-2156 653,-2204 653,-2204 653,-2210 647,-2216 641,-2216 641,-2216 565,-2216 565,-2216 559,-2216 553,-2210 553,-2204 553,-2204 553,-2156 553,-2156 553,-2150 559,-2144 565,-2144"/>
<text text-anchor="middle" x="603" y="-2203.2" font-family="Times,serif" font-size="11.00" fill="gray">Service</text>
</g>
<g id="clust10" class="cluster"><title>cluster_\LinHUniX\Pdo\Driver</title>
<path fill="none" stroke="gray" d="M301,-2358C301,-2358 648,-2358 648,-2358 654,-2358 660,-2364 660,-2370 660,-2370 660,-2472 660,-2472 660,-2478 654,-2484 648,-2484 648,-2484 301,-2484 301,-2484 295,-2484 289,-2478 289,-2472 289,-2472 289,-2370 289,-2370 289,-2364 295,-2358 301,-2358"/>
<text text-anchor="middle" x="474.5" y="-2471.2" font-family="Times,serif" font-size="11.00" fill="gray">Driver</text>
</g>
<g id="clust11" class="cluster"><title>cluster_\LinHUniX\Pdo\Model</title>
<path fill="none" stroke="gray" d="M270.5,-2224C270.5,-2224 400.5,-2224 400.5,-2224 406.5,-2224 412.5,-2230 412.5,-2236 412.5,-2236 412.5,-2284 412.5,-2284 412.5,-2290 406.5,-2296 400.5,-2296 400.5,-2296 270.5,-2296 270.5,-2296 264.5,-2296 258.5,-2290 258.5,-2284 258.5,-2284 258.5,-2236 258.5,-2236 258.5,-2230 264.5,-2224 270.5,-2224"/>
<text text-anchor="middle" x="335.5" y="-2283.2" font-family="Times,serif" font-size="11.00" fill="gray">Model</text>
</g>
<g id="clust12" class="cluster"><title>cluster_\LinHUniX\Pdo\Query</title>
<path fill="none" stroke="gray" d="M565,-2224C565,-2224 641,-2224 641,-2224 647,-2224 653,-2230 653,-2236 653,-2236 653,-2338 653,-2338 653,-2344 647,-2350 641,-2350 641,-2350 565,-2350 565,-2350 559,-2350 553,-2344 553,-2338 553,-2338 553,-2236 553,-2236 553,-2230 559,-2224 565,-2224"/>
<text text-anchor="middle" x="603" y="-2337.2" font-family="Times,serif" font-size="11.00" fill="gray">Query</text>
</g>
<g id="clust13" class="cluster"><title>cluster_\LinHUniX\Gfx</title>
<path fill="none" stroke="gray" d="M536.5,-1806C536.5,-1806 669.5,-1806 669.5,-1806 675.5,-1806 681.5,-1812 681.5,-1818 681.5,-1818 681.5,-2116 681.5,-2116 681.5,-2122 675.5,-2128 669.5,-2128 669.5,-2128 536.5,-2128 536.5,-2128 530.5,-2128 524.5,-2122 524.5,-2116 524.5,-2116 524.5,-1818 524.5,-1818 524.5,-1812 530.5,-1806 536.5,-1806"/>
<text text-anchor="middle" x="603" y="-2115.2" font-family="Times,serif" font-size="11.00" fill="gray">Gfx</text>
</g>
<g id="clust14" class="cluster"><title>cluster_\LinHUniX\Gfx\Service</title>
<path fill="none" stroke="gray" d="M565,-2028C565,-2028 641,-2028 641,-2028 647,-2028 653,-2034 653,-2040 653,-2040 653,-2088 653,-2088 653,-2094 647,-2100 641,-2100 641,-2100 565,-2100 565,-2100 559,-2100 553,-2094 553,-2088 553,-2088 553,-2040 553,-2040 553,-2034 559,-2028 565,-2028"/>
<text text-anchor="middle" x="603" y="-2087.2" font-family="Times,serif" font-size="11.00" fill="gray">Service</text>
</g>
<g id="clust15" class="cluster"><title>cluster_\LinHUniX\Gfx\Component</title>
<path fill="none" stroke="gray" d="M561.5,-1894C561.5,-1894 644.5,-1894 644.5,-1894 650.5,-1894 656.5,-1900 656.5,-1906 656.5,-1906 656.5,-2008 656.5,-2008 656.5,-2014 650.5,-2020 644.5,-2020 644.5,-2020 561.5,-2020 561.5,-2020 555.5,-2020 549.5,-2014 549.5,-2008 549.5,-2008 549.5,-1906 549.5,-1906 549.5,-1900 555.5,-1894 561.5,-1894"/>
<text text-anchor="middle" x="603" y="-2007.2" font-family="Times,serif" font-size="11.00" fill="gray">Component</text>
</g>
<g id="clust16" class="cluster"><title>cluster_\LinHUniX\Gfx\Controller</title>
<path fill="none" stroke="gray" d="M544.5,-1814C544.5,-1814 661.5,-1814 661.5,-1814 667.5,-1814 673.5,-1820 673.5,-1826 673.5,-1826 673.5,-1874 673.5,-1874 673.5,-1880 667.5,-1886 661.5,-1886 661.5,-1886 544.5,-1886 544.5,-1886 538.5,-1886 532.5,-1880 532.5,-1874 532.5,-1874 532.5,-1826 532.5,-1826 532.5,-1820 538.5,-1814 544.5,-1814"/>
<text text-anchor="middle" x="603" y="-1873.2" font-family="Times,serif" font-size="11.00" fill="gray">Controller</text>
</g>
<g id="clust17" class="cluster"><title>cluster_\LinHUniX\Mail</title>
<path fill="none" stroke="gray" d="M262.5,-104C262.5,-104 408.5,-104 408.5,-104 414.5,-104 420.5,-110 420.5,-116 420.5,-116 420.5,-442 420.5,-442 420.5,-448 414.5,-454 408.5,-454 408.5,-454 262.5,-454 262.5,-454 256.5,-454 250.5,-448 250.5,-442 250.5,-442 250.5,-116 250.5,-116 250.5,-110 256.5,-104 262.5,-104"/>
<text text-anchor="middle" x="335.5" y="-441.2" font-family="Times,serif" font-size="11.00" fill="gray">Mail</text>
</g>
<g id="clust18" class="cluster"><title>cluster_\LinHUniX\Mail\Component</title>
<path fill="none" stroke="gray" d="M270.5,-112C270.5,-112 400.5,-112 400.5,-112 406.5,-112 412.5,-118 412.5,-124 412.5,-124 412.5,-334 412.5,-334 412.5,-340 406.5,-346 400.5,-346 400.5,-346 270.5,-346 270.5,-346 264.5,-346 258.5,-340 258.5,-334 258.5,-334 258.5,-124 258.5,-124 258.5,-118 264.5,-112 270.5,-112"/>
<text text-anchor="middle" x="335.5" y="-333.2" font-family="Times,serif" font-size="11.00" fill="gray">Component</text>
</g>
<g id="clust19" class="cluster"><title>cluster_\LinHUniX\Mail\Service</title>
<path fill="none" stroke="gray" d="M294,-354C294,-354 377,-354 377,-354 383,-354 389,-360 389,-366 389,-366 389,-414 389,-414 389,-420 383,-426 377,-426 377,-426 294,-426 294,-426 288,-426 282,-420 282,-414 282,-414 282,-366 282,-366 282,-360 288,-354 294,-354"/>
<text text-anchor="middle" x="335.5" y="-413.2" font-family="Times,serif" font-size="11.00" fill="gray">Service</text>
</g>
<g id="clust20" class="cluster"><title>cluster_\LinHUniX\Auth</title>
<path fill="none" stroke="gray" d="M550,-1610C550,-1610 656,-1610 656,-1610 662,-1610 668,-1616 668,-1622 668,-1622 668,-1786 668,-1786 668,-1792 662,-1798 656,-1798 656,-1798 550,-1798 550,-1798 544,-1798 538,-1792 538,-1786 538,-1786 538,-1622 538,-1622 538,-1616 544,-1610 550,-1610"/>
<text text-anchor="middle" x="603" y="-1785.2" font-family="Times,serif" font-size="11.00" fill="gray">Auth</text>
</g>
<g id="clust21" class="cluster"><title>cluster_\LinHUniX\Auth\Driver</title>
<path fill="none" stroke="gray" d="M558,-1698C558,-1698 648,-1698 648,-1698 654,-1698 660,-1704 660,-1710 660,-1710 660,-1758 660,-1758 660,-1764 654,-1770 648,-1770 648,-1770 558,-1770 558,-1770 552,-1770 546,-1764 546,-1758 546,-1758 546,-1710 546,-1710 546,-1704 552,-1698 558,-1698"/>
<text text-anchor="middle" x="603" y="-1757.2" font-family="Times,serif" font-size="11.00" fill="gray">Driver</text>
</g>
<g id="clust22" class="cluster"><title>cluster_\LinHUniX\Auth\Service</title>
<path fill="none" stroke="gray" d="M561.5,-1618C561.5,-1618 644.5,-1618 644.5,-1618 650.5,-1618 656.5,-1624 656.5,-1630 656.5,-1630 656.5,-1678 656.5,-1678 656.5,-1684 650.5,-1690 644.5,-1690 644.5,-1690 561.5,-1690 561.5,-1690 555.5,-1690 549.5,-1684 549.5,-1678 549.5,-1678 549.5,-1630 549.5,-1630 549.5,-1624 555.5,-1618 561.5,-1618"/>
<text text-anchor="middle" x="603" y="-1677.2" font-family="Times,serif" font-size="11.00" fill="gray">Service</text>
</g>
<g id="clust23" class="cluster"><title>cluster_\LinHUniX\Ln4</title>
<path fill="none" stroke="gray" d="M557,-1494C557,-1494 649,-1494 649,-1494 655,-1494 661,-1500 661,-1506 661,-1506 661,-1590 661,-1590 661,-1596 655,-1602 649,-1602 649,-1602 557,-1602 557,-1602 551,-1602 545,-1596 545,-1590 545,-1590 545,-1506 545,-1506 545,-1500 551,-1494 557,-1494"/>
<text text-anchor="middle" x="603" y="-1589.2" font-family="Times,serif" font-size="11.00" fill="gray">Ln4</text>
</g>
<g id="clust24" class="cluster"><title>cluster_\LinHUniX\Ln4\Driver</title>
<path fill="none" stroke="gray" d="M565,-1502C565,-1502 641,-1502 641,-1502 647,-1502 653,-1508 653,-1514 653,-1514 653,-1562 653,-1562 653,-1568 647,-1574 641,-1574 641,-1574 565,-1574 565,-1574 559,-1574 553,-1568 553,-1562 553,-1562 553,-1514 553,-1514 553,-1508 559,-1502 565,-1502"/>
<text text-anchor="middle" x="603" y="-1561.2" font-family="Times,serif" font-size="11.00" fill="gray">Driver</text>
</g>
<g id="clust25" class="cluster"><title>cluster_\LinHUniX\ln4</title>
<path fill="none" stroke="gray" d="M547,-1378C547,-1378 659,-1378 659,-1378 665,-1378 671,-1384 671,-1390 671,-1390 671,-1474 671,-1474 671,-1480 665,-1486 659,-1486 659,-1486 547,-1486 547,-1486 541,-1486 535,-1480 535,-1474 535,-1474 535,-1390 535,-1390 535,-1384 541,-1378 547,-1378"/>
<text text-anchor="middle" x="603" y="-1473.2" font-family="Times,serif" font-size="11.00" fill="gray">ln4</text>
</g>
<g id="clust26" class="cluster"><title>cluster_\LinHUniX\ln4\Controller</title>
<path fill="none" stroke="gray" d="M555,-1386C555,-1386 651,-1386 651,-1386 657,-1386 663,-1392 663,-1398 663,-1398 663,-1446 663,-1446 663,-1452 657,-1458 651,-1458 651,-1458 555,-1458 555,-1458 549,-1458 543,-1452 543,-1446 543,-1446 543,-1398 543,-1398 543,-1392 549,-1386 555,-1386"/>
<text text-anchor="middle" x="603" y="-1445.2" font-family="Times,serif" font-size="11.00" fill="gray">Controller</text>
</g>
<!-- \\LinHUniX\\Mcp\\Provider\\loggerProviderModel -->
<g id="node1" class="node"><title>\\LinHUniX\\Mcp\\Provider\\loggerProviderModel</title>
<polygon fill="none" stroke="black" points="929.5,-1314 784.5,-1314 784.5,-1278 929.5,-1278 929.5,-1314"/>
<text text-anchor="middle" x="857" y="-1293.2" font-family="Courier,monospace" font-size="11.00">loggerProviderModel</text>
</g>
<!-- \\LinHUniX\\Mcp\\Model\\mcpServiceProviderModelClass -->
<g id="node11" class="node"><title>\\LinHUniX\\Mcp\\Model\\mcpServiceProviderModelClass</title>
<polygon fill="none" stroke="black" points="706,-1152 500,-1152 500,-1116 706,-1116 706,-1152"/>
<text text-anchor="middle" x="603" y="-1131.2" font-family="Courier,monospace" font-size="11.00">mcpServiceProviderModelClass</text>
</g>
<!-- \\LinHUniX\\Mcp\\Provider\\loggerProviderModel&#45;&gt;\\LinHUniX\\Mcp\\Model\\mcpServiceProviderModelClass -->
<g id="edge1" class="edge"><title>\\LinHUniX\\Mcp\\Provider\\loggerProviderModel&#45;&gt;\\LinHUniX\\Mcp\\Model\\mcpServiceProviderModelClass</title>
<path fill="none" stroke="black" stroke-dasharray="1,5" d="M784.184,-1278.48C779.117,-1275.76 774.315,-1272.62 770,-1269 728.588,-1234.24 756.495,-1194.43 714,-1161 712.377,-1159.72 710.703,-1158.51 708.983,-1157.35"/>
<polygon fill="none" stroke="black" points="710.422,-1154.13 700.042,-1152 706.83,-1160.14 710.422,-1154.13"/>
</g>
<!-- \\LinHUniX\\Mcp\\Provider\\settingsProviderModel -->
<g id="node2" class="node"><title>\\LinHUniX\\Mcp\\Provider\\settingsProviderModel</title>
<polygon fill="none" stroke="black" points="936,-1260 778,-1260 778,-1224 936,-1224 936,-1260"/>
<text text-anchor="middle" x="857" y="-1239.2" font-family="Courier,monospace" font-size="11.00">settingsProviderModel</text>
</g>
<!-- \\LinHUniX\\Mcp\\Provider\\settingsProviderModel&#45;&gt;\\LinHUniX\\Mcp\\Model\\mcpServiceProviderModelClass -->
<g id="edge19" class="edge"><title>\\LinHUniX\\Mcp\\Provider\\settingsProviderModel&#45;&gt;\\LinHUniX\\Mcp\\Model\\mcpServiceProviderModelClass</title>
<path fill="none" stroke="black" stroke-dasharray="1,5" d="M794.476,-1223.98C786.003,-1220.52 777.608,-1216.53 770,-1212 741.078,-1194.77 743.707,-1176.83 714,-1161 710.536,-1159.15 706.944,-1157.43 703.264,-1155.82"/>
<polygon fill="none" stroke="black" points="704.543,-1152.57 693.96,-1152.06 701.92,-1159.06 704.543,-1152.57"/>
</g>
<!-- \\LinHUniX\\Mcp\\Model\\mcpRemoteObjectModelClass -->
<g id="node3" class="node"><title>\\LinHUniX\\Mcp\\Model\\mcpRemoteObjectModelClass</title>
<polygon fill="none" stroke="black" points="428,-1314 243,-1314 243,-1278 428,-1278 428,-1314"/>
<text text-anchor="middle" x="335.5" y="-1293.2" font-family="Courier,monospace" font-size="11.00">mcpRemoteObjectModelClass</text>
</g>
<!-- \\LinHUniX\\Mcp\\Model\\mcpBaseModelClass -->
<g id="node4" class="node"><title>\\LinHUniX\\Mcp\\Model\\mcpBaseModelClass</title>
<polygon fill="none" stroke="black" points="171,-1287 40,-1287 40,-1251 171,-1251 171,-1287"/>
<text text-anchor="middle" x="105.5" y="-1266.2" font-family="Courier,monospace" font-size="11.00">mcpBaseModelClass</text>
</g>
<!-- \\LinHUniX\\Mcp\\Model\\mcpRemoteObjectModelClass&#45;&gt;\\LinHUniX\\Mcp\\Model\\mcpBaseModelClass -->
<g id="edge2" class="edge"><title>\\LinHUniX\\Mcp\\Model\\mcpRemoteObjectModelClass&#45;&gt;\\LinHUniX\\Mcp\\Model\\mcpBaseModelClass</title>
<path fill="none" stroke="black" d="M242.749,-1285.13C222.307,-1282.71 200.871,-1280.18 181.212,-1277.85"/>
<polygon fill="none" stroke="black" points="181.45,-1274.35 171.108,-1276.65 180.627,-1281.3 181.45,-1274.35"/>
</g>
<!-- \\LinHUniX\\Mcp\\Model\\mcpConfigArrayModelClass -->
<g id="node5" class="node"><title>\\LinHUniX\\Mcp\\Model\\mcpConfigArrayModelClass</title>
<polygon fill="none" stroke="black" points="692.5,-1260 513.5,-1260 513.5,-1224 692.5,-1224 692.5,-1260"/>
<text text-anchor="middle" x="603" y="-1239.2" font-family="Courier,monospace" font-size="11.00">mcpConfigArrayModelClass</text>
</g>
<!-- \\ArrayAccess -->
<g id="node46" class="node"><title>\\ArrayAccess</title>
<ellipse fill="none" stroke="black" cx="335.5" cy="-18" rx="61.99" ry="18"/>
<text text-anchor="middle" x="335.5" y="-14.3" font-family="Times,serif" font-size="14.00" fill="gray">\ArrayAccess</text>
</g>
<!-- \\LinHUniX\\Mcp\\Model\\mcpConfigArrayModelClass&#45;&gt;\\ArrayAccess -->
<g id="edge4" class="edge"><title>\\LinHUniX\\Mcp\\Model\\mcpConfigArrayModelClass&#45;&gt;\\ArrayAccess</title>
<path fill="none" stroke="black" stroke-dasharray="1,5" d="M513.391,-1226.86C508.386,-1223.58 503.841,-1219.67 500,-1215 343.369,-1024.64 530.611,-332.149 428,-108 415.447,-80.5778 390.59,-56.994 369.948,-40.8554"/>
<polygon fill="none" stroke="black" points="371.787,-37.858 361.7,-34.6182 367.565,-43.4414 371.787,-37.858"/>
</g>
<!-- \\LinHUniX\\Mcp\\Model\\mcpControllerModelClass -->
<g id="node6" class="node"><title>\\LinHUniX\\Mcp\\Model\\mcpControllerModelClass</title>
<polygon fill="none" stroke="black" points="421.5,-1152 249.5,-1152 249.5,-1116 421.5,-1116 421.5,-1152"/>
<text text-anchor="middle" x="335.5" y="-1131.2" font-family="Courier,monospace" font-size="11.00">mcpControllerModelClass</text>
</g>
<!-- \\LinHUniX\\Mcp\\Model\\mcpControllerModelClass&#45;&gt;\\LinHUniX\\Mcp\\Model\\mcpBaseModelClass -->
<g id="edge7" class="edge"><title>\\LinHUniX\\Mcp\\Model\\mcpControllerModelClass&#45;&gt;\\LinHUniX\\Mcp\\Model\\mcpBaseModelClass</title>
<path fill="none" stroke="black" d="M263.01,-1152.16C256.104,-1154.79 249.323,-1157.72 243,-1161 200.45,-1183.05 158.233,-1219.23 132.267,-1243.57"/>
<polygon fill="none" stroke="black" points="129.586,-1241.29 124.747,-1250.71 134.408,-1246.36 129.586,-1241.29"/>
</g>
<!-- \\LinHUniX\\Mcp\\Model\\mcpPageApiModelClass -->
<g id="node7" class="node"><title>\\LinHUniX\\Mcp\\Model\\mcpPageApiModelClass</title>
<polygon fill="none" stroke="black" points="679,-1314 527,-1314 527,-1278 679,-1278 679,-1314"/>
<text text-anchor="middle" x="603" y="-1293.2" font-family="Courier,monospace" font-size="11.00">mcpPageApiModelClass</text>
</g>
<!-- \\LinHUniX\\Mcp\\Model\\mcpPageApiModelClass&#45;&gt;\\LinHUniX\\Mcp\\Model\\mcpControllerModelClass -->
<g id="edge13" class="edge"><title>\\LinHUniX\\Mcp\\Model\\mcpPageApiModelClass&#45;&gt;\\LinHUniX\\Mcp\\Model\\mcpControllerModelClass</title>
<path fill="none" stroke="black" d="M526.994,-1282.94C517.407,-1279.37 508.121,-1274.81 500,-1269 453.075,-1235.44 474.448,-1195.21 428,-1161 426.158,-1159.64 424.248,-1158.35 422.284,-1157.13"/>
<polygon fill="none" stroke="black" points="423.798,-1153.97 413.358,-1152.16 420.394,-1160.08 423.798,-1153.97"/>
</g>
<!-- \\LinHUniX\\Mcp\\Model\\mcpRemoteApiModelClass -->
<g id="node8" class="node"><title>\\LinHUniX\\Mcp\\Model\\mcpRemoteApiModelClass</title>
<polygon fill="none" stroke="black" points="418,-1260 253,-1260 253,-1224 418,-1224 418,-1260"/>
<text text-anchor="middle" x="335.5" y="-1239.2" font-family="Courier,monospace" font-size="11.00">mcpRemoteApiModelClass</text>
</g>
<!-- \\LinHUniX\\Mcp\\Model\\mcpRemoteApiModelClass&#45;&gt;\\LinHUniX\\Mcp\\Model\\mcpBaseModelClass -->
<g id="edge17" class="edge"><title>\\LinHUniX\\Mcp\\Model\\mcpRemoteApiModelClass&#45;&gt;\\LinHUniX\\Mcp\\Model\\mcpBaseModelClass</title>
<path fill="none" stroke="black" d="M252.831,-1251.67C229.456,-1254.44 204.105,-1257.44 181.174,-1260.16"/>
<polygon fill="none" stroke="black" points="180.685,-1256.69 171.166,-1261.34 181.509,-1263.64 180.685,-1256.69"/>
</g>
<!-- \\LinHUniX\\Mcp\\Model\\mcpServiceModelClass -->
<g id="node9" class="node"><title>\\LinHUniX\\Mcp\\Model\\mcpServiceModelClass</title>
<polygon fill="none" stroke="black" points="411.5,-1206 259.5,-1206 259.5,-1170 411.5,-1170 411.5,-1206"/>
<text text-anchor="middle" x="335.5" y="-1185.2" font-family="Courier,monospace" font-size="11.00">mcpServiceModelClass</text>
</g>
<!-- \\LinHUniX\\Mcp\\Model\\mcpServiceModelClass&#45;&gt;\\LinHUniX\\Mcp\\Model\\mcpBaseModelClass -->
<g id="edge18" class="edge"><title>\\LinHUniX\\Mcp\\Model\\mcpServiceModelClass&#45;&gt;\\LinHUniX\\Mcp\\Model\\mcpBaseModelClass</title>
<path fill="none" stroke="black" d="M270.769,-1206.01C261.413,-1208.88 251.926,-1211.92 243,-1215 214.798,-1224.72 183.85,-1236.84 158.563,-1247.13"/>
<polygon fill="none" stroke="black" points="157.094,-1243.95 149.166,-1250.98 159.746,-1250.43 157.094,-1243.95"/>
</g>
<!-- \\LinHUniX\\Mcp\\Model\\mcpDebugModelClass -->
<g id="node10" class="node"><title>\\LinHUniX\\Mcp\\Model\\mcpDebugModelClass</title>
<polygon fill="none" stroke="black" points="672,-1206 534,-1206 534,-1170 672,-1170 672,-1206"/>
<text text-anchor="middle" x="603" y="-1185.2" font-family="Courier,monospace" font-size="11.00">mcpDebugModelClass</text>
</g>
<!-- \\LinHUniX\\Mcp\\Component\\mcpDebugClass -->
<g id="node12" class="node"><title>\\LinHUniX\\Mcp\\Component\\mcpDebugClass</title>
<polygon fill="none" stroke="black" points="909,-1180 805,-1180 805,-1144 909,-1144 909,-1180"/>
<text text-anchor="middle" x="857" y="-1159.2" font-family="Courier,monospace" font-size="11.00">mcpDebugClass</text>
</g>
<!-- \\LinHUniX\\Mcp\\Component\\mcpMenuClass -->
<g id="node13" class="node"><title>\\LinHUniX\\Mcp\\Component\\mcpMenuClass</title>
<polygon fill="none" stroke="black" points="906,-1126 808,-1126 808,-1090 906,-1090 906,-1126"/>
<text text-anchor="middle" x="857" y="-1105.2" font-family="Courier,monospace" font-size="11.00">mcpMenuClass</text>
</g>
<!-- \\LinHUniX\\Mcp\\Component\\mcpMailClass -->
<g id="node14" class="node"><title>\\LinHUniX\\Mcp\\Component\\mcpMailClass</title>
<polygon fill="none" stroke="black" points="906,-1072 808,-1072 808,-1036 906,-1036 906,-1072"/>
<text text-anchor="middle" x="857" y="-1051.2" font-family="Courier,monospace" font-size="11.00">mcpMailClass</text>
</g>
<!-- \\LinHUniX\\Mcp\\Component\\mcpToolsClass -->
<g id="node15" class="node"><title>\\LinHUniX\\Mcp\\Component\\mcpToolsClass</title>
<polygon fill="none" stroke="black" points="909,-1018 805,-1018 805,-982 909,-982 909,-1018"/>
<text text-anchor="middle" x="857" y="-997.2" font-family="Courier,monospace" font-size="11.00">mcpToolsClass</text>
</g>
<!-- \\LinHUniX\\Mcp\\Component\\mcpTemplateClass -->
<g id="node16" class="node"><title>\\LinHUniX\\Mcp\\Component\\mcpTemplateClass</title>
<polygon fill="none" stroke="black" points="919.5,-964 794.5,-964 794.5,-928 919.5,-928 919.5,-964"/>
<text text-anchor="middle" x="857" y="-943.2" font-family="Courier,monospace" font-size="11.00">mcpTemplateClass</text>
</g>
<!-- \\LinHUniX\\Mcp\\Component\\mcpCoreClass -->
<g id="node17" class="node"><title>\\LinHUniX\\Mcp\\Component\\mcpCoreClass</title>
<polygon fill="none" stroke="black" points="906,-910 808,-910 808,-874 906,-874 906,-910"/>
<text text-anchor="middle" x="857" y="-889.2" font-family="Courier,monospace" font-size="11.00">mcpCoreClass</text>
</g>
<!-- \\LinHUniX\\Mcp\\Component\\mcpLanguageClass -->
<g id="node18" class="node"><title>\\LinHUniX\\Mcp\\Component\\mcpLanguageClass</title>
<polygon fill="none" stroke="black" points="919.5,-856 794.5,-856 794.5,-820 919.5,-820 919.5,-856"/>
<text text-anchor="middle" x="857" y="-835.2" font-family="Courier,monospace" font-size="11.00">mcpLanguageClass</text>
</g>
<!-- \\LinHUniX\\Mcp\\Component\\mcpProxyClass -->
<g id="node19" class="node"><title>\\LinHUniX\\Mcp\\Component\\mcpProxyClass</title>
<polygon fill="none" stroke="black" points="909,-802 805,-802 805,-766 909,-766 909,-802"/>
<text text-anchor="middle" x="857" y="-781.2" font-family="Courier,monospace" font-size="11.00">mcpProxyClass</text>
</g>
<!-- \\LinHUniX\\Mcp\\Component\\mcpApiClass -->
<g id="node20" class="node"><title>\\LinHUniX\\Mcp\\Component\\mcpApiClass</title>
<polygon fill="none" stroke="black" points="902.5,-748 811.5,-748 811.5,-712 902.5,-712 902.5,-748"/>
<text text-anchor="middle" x="857" y="-727.2" font-family="Courier,monospace" font-size="11.00">mcpApiClass</text>
</g>
<!-- \\LinHUniX\\Mcp\\Tools\\pharizeShell -->
<g id="node21" class="node"><title>\\LinHUniX\\Mcp\\Tools\\pharizeShell</title>
<polygon fill="none" stroke="black" points="906,-668 808,-668 808,-632 906,-632 906,-668"/>
<text text-anchor="middle" x="857" y="-647.2" font-family="Courier,monospace" font-size="11.00">pharizeShell</text>
</g>
<!-- \\LinHUniX\\Mcp\\Tools\\browserData -->
<g id="node22" class="node"><title>\\LinHUniX\\Mcp\\Tools\\browserData</title>
<polygon fill="none" stroke="black" points="902.5,-614 811.5,-614 811.5,-578 902.5,-578 902.5,-614"/>
<text text-anchor="middle" x="857" y="-593.2" font-family="Courier,monospace" font-size="11.00">browserData</text>
</g>
<!-- \\LinHUniX\\Mcp\\Tools\\pharizeBase -->
<g id="node23" class="node"><title>\\LinHUniX\\Mcp\\Tools\\pharizeBase</title>
<polygon fill="none" stroke="black" points="902.5,-560 811.5,-560 811.5,-524 902.5,-524 902.5,-560"/>
<text text-anchor="middle" x="857" y="-539.2" font-family="Courier,monospace" font-size="11.00">pharizeBase</text>
</g>
<!-- \\LinHUniX\\Mcp\\masterControlProgram -->
<g id="node24" class="node"><title>\\LinHUniX\\Mcp\\masterControlProgram</title>
<polygon fill="none" stroke="black" points="933,-506 781,-506 781,-470 933,-470 933,-506"/>
<text text-anchor="middle" x="857" y="-485.2" font-family="Courier,monospace" font-size="11.00">masterControlProgram</text>
</g>
<!-- \\LinHUniX\\Pdo\\Service\\pdoService -->
<g id="node25" class="node"><title>\\LinHUniX\\Pdo\\Service\\pdoService</title>
<polygon fill="none" stroke="black" points="645,-2188 561,-2188 561,-2152 645,-2152 645,-2188"/>
<text text-anchor="middle" x="603" y="-2167.2" font-family="Courier,monospace" font-size="11.00">pdoService</text>
</g>
<!-- \\LinHUniX\\Pdo\\Service\\pdoService&#45;&gt;\\LinHUniX\\Mcp\\Model\\mcpBaseModelClass -->
<g id="edge3" class="edge"><title>\\LinHUniX\\Pdo\\Service\\pdoService&#45;&gt;\\LinHUniX\\Mcp\\Model\\mcpBaseModelClass</title>
<path fill="none" stroke="black" d="M560.531,-2167.34C503.985,-2161.71 402.225,-2144.23 336.5,-2090"/>
</g>
<!-- \\LinHUniX\\Pdo\\Driver\\pdoDriver -->
<g id="node26" class="node"><title>\\LinHUniX\\Pdo\\Driver\\pdoDriver</title>
<polygon fill="none" stroke="black" points="374,-2402 297,-2402 297,-2366 374,-2366 374,-2402"/>
<text text-anchor="middle" x="335.5" y="-2381.2" font-family="Courier,monospace" font-size="11.00">pdoDriver</text>
</g>
<!-- \\LinHUniX\\Pdo\\Driver\\pdoDriver&#45;&gt;\\LinHUniX\\Mcp\\Model\\mcpBaseModelClass -->
<g id="edge6" class="edge"><title>\\LinHUniX\\Pdo\\Driver\\pdoDriver&#45;&gt;\\LinHUniX\\Mcp\\Model\\mcpBaseModelClass</title>
<path fill="none" stroke="black" d="M305.952,-2365.96C284.873,-2351 257.435,-2327.74 243,-2300 148.153,-2117.76 114.068,-1444.79 107.667,-1297.58"/>
<polygon fill="none" stroke="black" points="111.146,-1297 107.223,-1287.16 104.152,-1297.3 111.146,-1297"/>
</g>
<!-- \\LinHUniX\\Pdo\\Driver\\sqliteDriver -->
<g id="node27" class="node"><title>\\LinHUniX\\Pdo\\Driver\\sqliteDriver</title>
<polygon fill="none" stroke="black" points="652,-2456 554,-2456 554,-2420 652,-2420 652,-2456"/>
<text text-anchor="middle" x="603" y="-2435.2" font-family="Courier,monospace" font-size="11.00">sqliteDriver</text>
</g>
<!-- \\LinHUniX\\Pdo\\Driver\\sqliteDriver&#45;&gt;\\LinHUniX\\Pdo\\Driver\\pdoDriver -->
<g id="edge11" class="edge"><title>\\LinHUniX\\Pdo\\Driver\\sqliteDriver&#45;&gt;\\LinHUniX\\Pdo\\Driver\\pdoDriver</title>
<path fill="none" stroke="black" d="M553.92,-2428.22C505.789,-2418.43 432.172,-2403.46 384.182,-2393.7"/>
<polygon fill="none" stroke="black" points="384.846,-2390.26 374.349,-2391.7 383.451,-2397.12 384.846,-2390.26"/>
</g>
<!-- \\LinHUniX\\Pdo\\Driver\\mysqlDriver -->
<g id="node28" class="node"><title>\\LinHUniX\\Pdo\\Driver\\mysqlDriver</title>
<polygon fill="none" stroke="black" points="648.5,-2402 557.5,-2402 557.5,-2366 648.5,-2366 648.5,-2402"/>
<text text-anchor="middle" x="603" y="-2381.2" font-family="Courier,monospace" font-size="11.00">mysqlDriver</text>
</g>
<!-- \\LinHUniX\\Pdo\\Driver\\mysqlDriver&#45;&gt;\\LinHUniX\\Pdo\\Driver\\pdoDriver -->
<g id="edge12" class="edge"><title>\\LinHUniX\\Pdo\\Driver\\mysqlDriver&#45;&gt;\\LinHUniX\\Pdo\\Driver\\pdoDriver</title>
<path fill="none" stroke="black" d="M557.262,-2384C509.248,-2384 433.278,-2384 384.164,-2384"/>
<polygon fill="none" stroke="black" points="384.11,-2380.5 374.11,-2384 384.11,-2387.5 384.11,-2380.5"/>
</g>
<!-- \\LinHUniX\\Pdo\\Model\\mcpQueryModelClass -->
<g id="node29" class="node"><title>\\LinHUniX\\Pdo\\Model\\mcpQueryModelClass</title>
<polygon fill="none" stroke="black" points="404.5,-2268 266.5,-2268 266.5,-2232 404.5,-2232 404.5,-2268"/>
<text text-anchor="middle" x="335.5" y="-2247.2" font-family="Courier,monospace" font-size="11.00">mcpQueryModelClass</text>
</g>
<!-- \\LinHUniX\\Pdo\\Model\\mcpQueryModelClass&#45;&gt;\\LinHUniX\\Mcp\\Model\\mcpBaseModelClass -->
<g id="edge8" class="edge"><title>\\LinHUniX\\Pdo\\Model\\mcpQueryModelClass&#45;&gt;\\LinHUniX\\Mcp\\Model\\mcpBaseModelClass</title>
<path fill="none" stroke="black" d="M320.515,-2231.57C300.058,-2203.63 262.316,-2148.16 243,-2095 134.303,-1795.85 111.687,-1404.1 107.419,-1297.06"/>
<polygon fill="none" stroke="black" points="110.916,-1296.91 107.041,-1287.05 103.921,-1297.18 110.916,-1296.91"/>
</g>
<!-- \\LinHUniX\\Pdo\\Query\\JsonQuery -->
<g id="node30" class="node"><title>\\LinHUniX\\Pdo\\Query\\JsonQuery</title>
<polygon fill="none" stroke="black" points="641.5,-2322 564.5,-2322 564.5,-2286 641.5,-2286 641.5,-2322"/>
<text text-anchor="middle" x="603" y="-2301.2" font-family="Courier,monospace" font-size="11.00">JsonQuery</text>
</g>
<!-- \\LinHUniX\\Pdo\\Query\\JsonQuery&#45;&gt;\\LinHUniX\\Pdo\\Model\\mcpQueryModelClass -->
<g id="edge15" class="edge"><title>\\LinHUniX\\Pdo\\Query\\JsonQuery&#45;&gt;\\LinHUniX\\Pdo\\Model\\mcpQueryModelClass</title>
<path fill="none" stroke="black" d="M564.242,-2296.32C525.468,-2288.43 463.987,-2275.93 414.673,-2265.9"/>
<polygon fill="none" stroke="black" points="415.163,-2262.43 404.666,-2263.86 413.767,-2269.29 415.163,-2262.43"/>
</g>
<!-- \\LinHUniX\\Pdo\\Query\\ArrayQuery -->
<g id="node31" class="node"><title>\\LinHUniX\\Pdo\\Query\\ArrayQuery</title>
<polygon fill="none" stroke="black" points="645,-2268 561,-2268 561,-2232 645,-2232 645,-2268"/>
<text text-anchor="middle" x="603" y="-2247.2" font-family="Courier,monospace" font-size="11.00">ArrayQuery</text>
</g>
<!-- \\LinHUniX\\Pdo\\Query\\ArrayQuery&#45;&gt;\\LinHUniX\\Pdo\\Model\\mcpQueryModelClass -->
<g id="edge16" class="edge"><title>\\LinHUniX\\Pdo\\Query\\ArrayQuery&#45;&gt;\\LinHUniX\\Pdo\\Model\\mcpQueryModelClass</title>
<path fill="none" stroke="black" d="M560.807,-2250C521.917,-2250 462.586,-2250 414.711,-2250"/>
<polygon fill="none" stroke="black" points="414.68,-2246.5 404.68,-2250 414.68,-2253.5 414.68,-2246.5"/>
</g>
<!-- \\LinHUniX\\Gfx\\Service\\gfxService -->
<g id="node32" class="node"><title>\\LinHUniX\\Gfx\\Service\\gfxService</title>
<polygon fill="none" stroke="black" points="645,-2072 561,-2072 561,-2036 645,-2036 645,-2072"/>
<text text-anchor="middle" x="603" y="-2051.2" font-family="Courier,monospace" font-size="11.00">gfxService</text>
</g>
<!-- \\LinHUniX\\Gfx\\Service\\gfxService&#45;&gt;\\LinHUniX\\Mcp\\Model\\mcpBaseModelClass -->
<g id="edge5" class="edge"><title>\\LinHUniX\\Gfx\\Service\\gfxService&#45;&gt;\\LinHUniX\\Mcp\\Model\\mcpBaseModelClass</title>
<path fill="none" stroke="black" d="M570.031,-2072.05C515.52,-2100.15 403.953,-2145.65 336.5,-2090"/>
<path fill="none" stroke="black" d="M334.5,-2090C206.037,-1984.01 127.168,-1429.31 110.034,-1297.24"/>
<polygon fill="none" stroke="black" points="113.481,-1296.6 108.736,-1287.13 106.538,-1297.49 113.481,-1296.6"/>
</g>
<!-- \\LinHUniX\\Gfx\\Component\\zebra_image -->
<g id="node33" class="node"><title>\\LinHUniX\\Gfx\\Component\\zebra_image</title>
<polygon fill="none" stroke="black" points="648.5,-1992 557.5,-1992 557.5,-1956 648.5,-1956 648.5,-1992"/>
<text text-anchor="middle" x="603" y="-1971.2" font-family="Courier,monospace" font-size="11.00">zebra_image</text>
</g>
<!-- \\LinHUniX\\Gfx\\Component\\html2text -->
<g id="node34" class="node"><title>\\LinHUniX\\Gfx\\Component\\html2text</title>
<polygon fill="none" stroke="black" points="641.5,-1938 564.5,-1938 564.5,-1902 641.5,-1902 641.5,-1938"/>
<text text-anchor="middle" x="603" y="-1917.2" font-family="Courier,monospace" font-size="11.00">html2text</text>
</g>
<!-- \\LinHUniX\\Gfx\\Controller\\uploadController -->
<g id="node35" class="node"><title>\\LinHUniX\\Gfx\\Controller\\uploadController</title>
<polygon fill="none" stroke="black" points="665.5,-1858 540.5,-1858 540.5,-1822 665.5,-1822 665.5,-1858"/>
<text text-anchor="middle" x="603" y="-1837.2" font-family="Courier,monospace" font-size="11.00">uploadController</text>
</g>
<!-- \\LinHUniX\\Gfx\\Controller\\uploadController&#45;&gt;\\LinHUniX\\Mcp\\Model\\mcpRemoteApiModelClass -->
<g id="edge14" class="edge"><title>\\LinHUniX\\Gfx\\Controller\\uploadController&#45;&gt;\\LinHUniX\\Mcp\\Model\\mcpRemoteApiModelClass</title>
<path fill="none" stroke="black" d="M557.772,-1821.96C536.903,-1811.16 513.638,-1795.32 500,-1774 377.838,-1583.01 576.25,-1440.53 428,-1269 427.36,-1268.26 426.701,-1267.54 426.025,-1266.84"/>
<polygon fill="none" stroke="black" points="428,-1263.92 418.142,-1260.04 423.429,-1269.22 428,-1263.92"/>
</g>
<!-- \\LinHUniX\\Mail\\Component\\SMTP -->
<g id="node36" class="node"><title>\\LinHUniX\\Mail\\Component\\SMTP</title>
<polygon fill="none" stroke="black" points="362.5,-318 308.5,-318 308.5,-282 362.5,-282 362.5,-318"/>
<text text-anchor="middle" x="335.5" y="-297.2" font-family="Courier,monospace" font-size="11.00">SMTP</text>
</g>
<!-- \\LinHUniX\\Mail\\Component\\PHPMailer -->
<g id="node37" class="node"><title>\\LinHUniX\\Mail\\Component\\PHPMailer</title>
<polygon fill="none" stroke="black" points="374,-264 297,-264 297,-228 374,-228 374,-264"/>
<text text-anchor="middle" x="335.5" y="-243.2" font-family="Courier,monospace" font-size="11.00">PHPMailer</text>
</g>
<!-- \\LinHUniX\\Mail\\Component\\phpmailerException -->
<g id="node38" class="node"><title>\\LinHUniX\\Mail\\Component\\phpmailerException</title>
<polygon fill="none" stroke="black" points="404.5,-210 266.5,-210 266.5,-174 404.5,-174 404.5,-210"/>
<text text-anchor="middle" x="335.5" y="-189.2" font-family="Courier,monospace" font-size="11.00">phpmailerException</text>
</g>
<!-- \\Exception -->
<g id="node47" class="node"><title>\\Exception</title>
<ellipse fill="none" stroke="black" cx="105.5" cy="-18" rx="50.8918" ry="18"/>
<text text-anchor="middle" x="105.5" y="-14.3" font-family="Times,serif" font-size="14.00" fill="gray">\Exception</text>
</g>
<!-- \\LinHUniX\\Mail\\Component\\phpmailerException&#45;&gt;\\Exception -->
<g id="edge21" class="edge"><title>\\LinHUniX\\Mail\\Component\\phpmailerException&#45;&gt;\\Exception</title>
<path fill="none" stroke="black" d="M266.261,-176.346C258.131,-173.197 250.18,-169.449 243,-165 191.636,-133.177 147.198,-76.9705 123.89,-44.0473"/>
<polygon fill="none" stroke="black" points="126.743,-42.0204 118.157,-35.8129 120.998,-46.0198 126.743,-42.0204"/>
</g>
<!-- \\LinHUniX\\Mail\\Component\\POP3 -->
<g id="node39" class="node"><title>\\LinHUniX\\Mail\\Component\\POP3</title>
<polygon fill="none" stroke="black" points="362.5,-156 308.5,-156 308.5,-120 362.5,-120 362.5,-156"/>
<text text-anchor="middle" x="335.5" y="-135.2" font-family="Courier,monospace" font-size="11.00">POP3</text>
</g>
<!-- \\LinHUniX\\Mail\\Service\\mailService -->
<g id="node40" class="node"><title>\\LinHUniX\\Mail\\Service\\mailService</title>
<polygon fill="none" stroke="black" points="381,-398 290,-398 290,-362 381,-362 381,-398"/>
<text text-anchor="middle" x="335.5" y="-377.2" font-family="Courier,monospace" font-size="11.00">mailService</text>
</g>
<!-- \\LinHUniX\\Mail\\Service\\mailService&#45;&gt;\\LinHUniX\\Mcp\\Model\\mcpBaseModelClass -->
<g id="edge23" class="edge"><title>\\LinHUniX\\Mail\\Service\\mailService&#45;&gt;\\LinHUniX\\Mcp\\Model\\mcpBaseModelClass</title>
<path fill="none" stroke="black" d="M329.842,-398.161C301.16,-509.996 148.591,-1104.88 113.638,-1241.17"/>
<polygon fill="none" stroke="black" points="110.244,-1240.31 111.15,-1250.87 117.025,-1242.05 110.244,-1240.31"/>
</g>
<!-- \\LinHUniX\\Auth\\Driver\\sqliteDriver -->
<g id="node41" class="node"><title>\\LinHUniX\\Auth\\Driver\\sqliteDriver</title>
<polygon fill="none" stroke="black" points="652,-1742 554,-1742 554,-1706 652,-1706 652,-1742"/>
<text text-anchor="middle" x="603" y="-1721.2" font-family="Courier,monospace" font-size="11.00">sqliteDriver</text>
</g>
<!-- \\LinHUniX\\Auth\\Driver\\sqliteDriver&#45;&gt;\\LinHUniX\\Mcp\\Model\\mcpServiceModelClass -->
<g id="edge9" class="edge"><title>\\LinHUniX\\Auth\\Driver\\sqliteDriver&#45;&gt;\\LinHUniX\\Mcp\\Model\\mcpServiceModelClass</title>
<path fill="none" stroke="black" d="M553.857,-1720.89C534.428,-1717.14 513.463,-1709.44 500,-1694 358.538,-1531.72 569.39,-1377.34 428,-1215 425.644,-1212.3 423.032,-1209.85 420.224,-1207.65"/>
<polygon fill="none" stroke="black" points="422.103,-1204.7 411.842,-1202.06 418.218,-1210.52 422.103,-1204.7"/>
</g>
<!-- \\LinHUniX\\Auth\\Service\\authService -->
<g id="node42" class="node"><title>\\LinHUniX\\Auth\\Service\\authService</title>
<polygon fill="none" stroke="black" points="648.5,-1662 557.5,-1662 557.5,-1626 648.5,-1626 648.5,-1662"/>
<text text-anchor="middle" x="603" y="-1641.2" font-family="Courier,monospace" font-size="11.00">authService</text>
</g>
<!-- \\LinHUniX\\Auth\\Service\\authService&#45;&gt;\\LinHUniX\\Mcp\\Model\\mcpServiceModelClass -->
<g id="edge22" class="edge"><title>\\LinHUniX\\Auth\\Service\\authService&#45;&gt;\\LinHUniX\\Mcp\\Model\\mcpServiceModelClass</title>
<path fill="none" stroke="black" d="M558.775,-1625.91C537.9,-1615.02 514.329,-1599.12 500,-1578 407.653,-1441.9 538.884,-1336.48 428,-1215 425.582,-1212.35 422.918,-1209.96 420.067,-1207.79"/>
<polygon fill="none" stroke="black" points="421.881,-1204.8 411.588,-1202.29 418.069,-1210.67 421.881,-1204.8"/>
</g>
<!-- \\LinHUniX\\Ln4\\Driver\\AuthDriver -->
<g id="node43" class="node"><title>\\LinHUniX\\Ln4\\Driver\\AuthDriver</title>
<polygon fill="none" stroke="black" points="645,-1546 561,-1546 561,-1510 645,-1510 645,-1546"/>
<text text-anchor="middle" x="603" y="-1525.2" font-family="Courier,monospace" font-size="11.00">AuthDriver</text>
</g>
<!-- \\LinHUniX\\Ln4\\Driver\\AuthDriver&#45;&gt;\\LinHUniX\\Mcp\\Model\\mcpServiceModelClass -->
<g id="edge10" class="edge"><title>\\LinHUniX\\Ln4\\Driver\\AuthDriver&#45;&gt;\\LinHUniX\\Mcp\\Model\\mcpServiceModelClass</title>
<path fill="none" stroke="black" d="M560.815,-1510.05C539.843,-1498.99 515.558,-1482.89 500,-1462 431.707,-1370.29 508.722,-1295.99 428,-1215 425.603,-1212.6 423.003,-1210.4 420.249,-1208.4"/>
<polygon fill="none" stroke="black" points="421.9,-1205.31 411.567,-1202.97 418.185,-1211.24 421.9,-1205.31"/>
</g>
<!-- \\LinHUniX\\ln4\\Controller\\ln4Controller -->
<g id="node44" class="node"><title>\\LinHUniX\\ln4\\Controller\\ln4Controller</title>
<polygon fill="none" stroke="black" points="655,-1430 551,-1430 551,-1394 655,-1394 655,-1430"/>
<text text-anchor="middle" x="603" y="-1409.2" font-family="Courier,monospace" font-size="11.00">ln4Controller</text>
</g>
<!-- \\LinHUniX\\ln4\\Controller\\ln4Controller&#45;&gt;\\LinHUniX\\Mcp\\Model\\mcpRemoteApiModelClass -->
<g id="edge20" class="edge"><title>\\LinHUniX\\ln4\\Controller\\ln4Controller&#45;&gt;\\LinHUniX\\Mcp\\Model\\mcpRemoteApiModelClass</title>
<path fill="none" stroke="black" d="M569.817,-1393.95C549.011,-1381.62 521.84,-1364.27 500,-1346 464.063,-1315.94 467.871,-1293.61 428,-1269 425.406,-1267.4 422.712,-1265.89 419.945,-1264.46"/>
<polygon fill="none" stroke="black" points="421.437,-1261.3 410.899,-1260.2 418.453,-1267.63 421.437,-1261.3"/>
</g>
<!-- \\mcpAutoload -->
<g id="node45" class="node"><title>\\mcpAutoload</title>
<polygon fill="none" stroke="black" points="902.5,-88 811.5,-88 811.5,-52 902.5,-52 902.5,-88"/>
<text text-anchor="middle" x="857" y="-67.2" font-family="Courier,monospace" font-size="11.00">mcpAutoload</text>
</g>
</g>
</svg>
