<?xml version="1.0" encoding="UTF-8" standalone="no"?>
<!DOCTYPE svg PUBLIC "-//W3C//DTD SVG 1.1//EN"
 "http://www.w3.org/Graphics/SVG/1.1/DTD/svg11.dtd">
<!-- Generated by graphviz version 2.40.1 (20161225.0304)
 -->
<!-- Title: G Pages: 1 -->
<svg width="687pt" height="2152pt"
 viewBox="0.00 0.00 687.46 2152.00" xmlns="http://www.w3.org/2000/svg" xmlns:xlink="http://www.w3.org/1999/xlink">
<g id="graph0" class="graph" transform="scale(1 1) rotate(0) translate(4 2148)">
<title>G</title>
<polygon fill="#ffffff" stroke="transparent" points="-4,4 -4,-2148 683.4637,-2148 683.4637,4 -4,4"/>
<g id="clust1" class="cluster">
<title>cluster_Global</title>
<path fill="none" stroke="#c0c0c0" d="M461.4637,-8C461.4637,-8 659.4637,-8 659.4637,-8 665.4637,-8 671.4637,-14 671.4637,-20 671.4637,-20 671.4637,-2124 671.4637,-2124 671.4637,-2130 665.4637,-2136 659.4637,-2136 659.4637,-2136 461.4637,-2136 461.4637,-2136 455.4637,-2136 449.4637,-2130 449.4637,-2124 449.4637,-2124 449.4637,-20 449.4637,-20 449.4637,-14 455.4637,-8 461.4637,-8"/>
<text text-anchor="middle" x="560.4637" y="-2123.2" font-family="Times,serif" font-size="11.00" fill="#c0c0c0">Global</text>
</g>
<g id="clust2" class="cluster">
<title>cluster_\LinHUniX</title>
<path fill="none" stroke="#c0c0c0" d="M469.4637,-114C469.4637,-114 651.4637,-114 651.4637,-114 657.4637,-114 663.4637,-120 663.4637,-126 663.4637,-126 663.4637,-2096 663.4637,-2096 663.4637,-2102 657.4637,-2108 651.4637,-2108 651.4637,-2108 469.4637,-2108 469.4637,-2108 463.4637,-2108 457.4637,-2102 457.4637,-2096 457.4637,-2096 457.4637,-126 457.4637,-126 457.4637,-120 463.4637,-114 469.4637,-114"/>
<text text-anchor="middle" x="560.4637" y="-2095.2" font-family="Times,serif" font-size="11.00" fill="#c0c0c0">LinHUniX</text>
</g>
<g id="clust3" class="cluster">
<title>cluster_\LinHUniX\LnxMcpAdmShell</title>
<path fill="none" stroke="#c0c0c0" d="M477.4637,-1470C477.4637,-1470 643.4637,-1470 643.4637,-1470 649.4637,-1470 655.4637,-1476 655.4637,-1482 655.4637,-1482 655.4637,-1728 655.4637,-1728 655.4637,-1734 649.4637,-1740 643.4637,-1740 643.4637,-1740 477.4637,-1740 477.4637,-1740 471.4637,-1740 465.4637,-1734 465.4637,-1728 465.4637,-1728 465.4637,-1482 465.4637,-1482 465.4637,-1476 471.4637,-1470 477.4637,-1470"/>
<text text-anchor="middle" x="560.4637" y="-1727.2" font-family="Times,serif" font-size="11.00" fill="#c0c0c0">LnxMcpAdmShell</text>
</g>
<g id="clust4" class="cluster">
<title>cluster_\LinHUniX\LnxMcpAdmShell\Controller</title>
<path fill="none" stroke="#c0c0c0" d="M485.4637,-1478C485.4637,-1478 635.4637,-1478 635.4637,-1478 641.4637,-1478 647.4637,-1484 647.4637,-1490 647.4637,-1490 647.4637,-1700 647.4637,-1700 647.4637,-1706 641.4637,-1712 635.4637,-1712 635.4637,-1712 485.4637,-1712 485.4637,-1712 479.4637,-1712 473.4637,-1706 473.4637,-1700 473.4637,-1700 473.4637,-1490 473.4637,-1490 473.4637,-1484 479.4637,-1478 485.4637,-1478"/>
<text text-anchor="middle" x="560.4637" y="-1699.2" font-family="Times,serif" font-size="11.00" fill="#c0c0c0">Controller</text>
</g>
<g id="clust5" class="cluster">
<title>cluster_\LinHUniX\McpModules</title>
<path fill="none" stroke="#c0c0c0" d="M482.9637,-836C482.9637,-836 637.9637,-836 637.9637,-836 643.9637,-836 649.9637,-842 649.9637,-848 649.9637,-848 649.9637,-1280 649.9637,-1280 649.9637,-1286 643.9637,-1292 637.9637,-1292 637.9637,-1292 482.9637,-1292 482.9637,-1292 476.9637,-1292 470.9637,-1286 470.9637,-1280 470.9637,-1280 470.9637,-848 470.9637,-848 470.9637,-842 476.9637,-836 482.9637,-836"/>
<text text-anchor="middle" x="560.4637" y="-1279.2" font-family="Times,serif" font-size="11.00" fill="#c0c0c0">McpModules</text>
</g>
<g id="clust6" class="cluster">
<title>cluster_\LinHUniX\McpModules\Chk</title>
<path fill="none" stroke="#c0c0c0" d="M504.4637,-1156C504.4637,-1156 616.4637,-1156 616.4637,-1156 622.4637,-1156 628.4637,-1162 628.4637,-1168 628.4637,-1168 628.4637,-1252 628.4637,-1252 628.4637,-1258 622.4637,-1264 616.4637,-1264 616.4637,-1264 504.4637,-1264 504.4637,-1264 498.4637,-1264 492.4637,-1258 492.4637,-1252 492.4637,-1252 492.4637,-1168 492.4637,-1168 492.4637,-1162 498.4637,-1156 504.4637,-1156"/>
<text text-anchor="middle" x="560.4637" y="-1251.2" font-family="Times,serif" font-size="11.00" fill="#c0c0c0">Chk</text>
</g>
<g id="clust7" class="cluster">
<title>cluster_\LinHUniX\McpModules\Chk\Shell</title>
<path fill="none" stroke="#c0c0c0" d="M512.4637,-1164C512.4637,-1164 608.4637,-1164 608.4637,-1164 614.4637,-1164 620.4637,-1170 620.4637,-1176 620.4637,-1176 620.4637,-1224 620.4637,-1224 620.4637,-1230 614.4637,-1236 608.4637,-1236 608.4637,-1236 512.4637,-1236 512.4637,-1236 506.4637,-1236 500.4637,-1230 500.4637,-1224 500.4637,-1224 500.4637,-1176 500.4637,-1176 500.4637,-1170 506.4637,-1164 512.4637,-1164"/>
<text text-anchor="middle" x="560.4637" y="-1223.2" font-family="Times,serif" font-size="11.00" fill="#c0c0c0">Shell</text>
</g>
<g id="clust8" class="cluster">
<title>cluster_\LinHUniX\McpModules\Monologger</title>
<path fill="none" stroke="#c0c0c0" d="M505.4637,-1076C505.4637,-1076 615.4637,-1076 615.4637,-1076 621.4637,-1076 627.4637,-1082 627.4637,-1088 627.4637,-1088 627.4637,-1136 627.4637,-1136 627.4637,-1142 621.4637,-1148 615.4637,-1148 615.4637,-1148 505.4637,-1148 505.4637,-1148 499.4637,-1148 493.4637,-1142 493.4637,-1136 493.4637,-1136 493.4637,-1088 493.4637,-1088 493.4637,-1082 499.4637,-1076 505.4637,-1076"/>
<text text-anchor="middle" x="560.4637" y="-1135.2" font-family="Times,serif" font-size="11.00" fill="#c0c0c0">Monologger</text>
</g>
<g id="clust9" class="cluster">
<title>cluster_\LinHUniX\McpModules\DbMig</title>
<path fill="none" stroke="#c0c0c0" d="M507.4637,-960C507.4637,-960 613.4637,-960 613.4637,-960 619.4637,-960 625.4637,-966 625.4637,-972 625.4637,-972 625.4637,-1056 625.4637,-1056 625.4637,-1062 619.4637,-1068 613.4637,-1068 613.4637,-1068 507.4637,-1068 507.4637,-1068 501.4637,-1068 495.4637,-1062 495.4637,-1056 495.4637,-1056 495.4637,-972 495.4637,-972 495.4637,-966 501.4637,-960 507.4637,-960"/>
<text text-anchor="middle" x="560.4637" y="-1055.2" font-family="Times,serif" font-size="11.00" fill="#c0c0c0">DbMig</text>
</g>
<g id="clust10" class="cluster">
<title>cluster_\LinHUniX\McpModules\DbMig\Shell</title>
<path fill="none" stroke="#c0c0c0" d="M515.4637,-968C515.4637,-968 605.4637,-968 605.4637,-968 611.4637,-968 617.4637,-974 617.4637,-980 617.4637,-980 617.4637,-1028 617.4637,-1028 617.4637,-1034 611.4637,-1040 605.4637,-1040 605.4637,-1040 515.4637,-1040 515.4637,-1040 509.4637,-1040 503.4637,-1034 503.4637,-1028 503.4637,-1028 503.4637,-980 503.4637,-980 503.4637,-974 509.4637,-968 515.4637,-968"/>
<text text-anchor="middle" x="560.4637" y="-1027.2" font-family="Times,serif" font-size="11.00" fill="#c0c0c0">Shell</text>
</g>
<g id="clust11" class="cluster">
<title>cluster_\LinHUniX\McpModules\DbLegacy</title>
<path fill="none" stroke="#c0c0c0" d="M490.9637,-844C490.9637,-844 629.9637,-844 629.9637,-844 635.9637,-844 641.9637,-850 641.9637,-856 641.9637,-856 641.9637,-940 641.9637,-940 641.9637,-946 635.9637,-952 629.9637,-952 629.9637,-952 490.9637,-952 490.9637,-952 484.9637,-952 478.9637,-946 478.9637,-940 478.9637,-940 478.9637,-856 478.9637,-856 478.9637,-850 484.9637,-844 490.9637,-844"/>
<text text-anchor="middle" x="560.4637" y="-939.2" font-family="Times,serif" font-size="11.00" fill="#c0c0c0">DbLegacy</text>
</g>
<g id="clust12" class="cluster">
<title>cluster_\LinHUniX\McpModules\DbLegacy\Loader</title>
<path fill="none" stroke="#c0c0c0" d="M498.9637,-852C498.9637,-852 621.9637,-852 621.9637,-852 627.9637,-852 633.9637,-858 633.9637,-864 633.9637,-864 633.9637,-912 633.9637,-912 633.9637,-918 627.9637,-924 621.9637,-924 621.9637,-924 498.9637,-924 498.9637,-924 492.9637,-924 486.9637,-918 486.9637,-912 486.9637,-912 486.9637,-864 486.9637,-864 486.9637,-858 492.9637,-852 498.9637,-852"/>
<text text-anchor="middle" x="560.4637" y="-911.2" font-family="Times,serif" font-size="11.00" fill="#c0c0c0">Loader</text>
</g>
<g id="clust13" class="cluster">
<title>cluster_\LinHUniX\Nsql</title>
<path fill="none" stroke="#c0c0c0" d="M500.9637,-238C500.9637,-238 619.9637,-238 619.9637,-238 625.9637,-238 631.9637,-244 631.9637,-250 631.9637,-250 631.9637,-388 631.9637,-388 631.9637,-394 625.9637,-400 619.9637,-400 619.9637,-400 500.9637,-400 500.9637,-400 494.9637,-400 488.9637,-394 488.9637,-388 488.9637,-388 488.9637,-250 488.9637,-250 488.9637,-244 494.9637,-238 500.9637,-238"/>
<text text-anchor="middle" x="560.4637" y="-387.2" font-family="Times,serif" font-size="11.00" fill="#c0c0c0">Nsql</text>
</g>
<g id="clust14" class="cluster">
<title>cluster_\LinHUniX\Nsql\Service</title>
<path fill="none" stroke="#c0c0c0" d="M508.9637,-246C508.9637,-246 611.9637,-246 611.9637,-246 617.9637,-246 623.9637,-252 623.9637,-258 623.9637,-258 623.9637,-360 623.9637,-360 623.9637,-366 617.9637,-372 611.9637,-372 611.9637,-372 508.9637,-372 508.9637,-372 502.9637,-372 496.9637,-366 496.9637,-360 496.9637,-360 496.9637,-258 496.9637,-258 496.9637,-252 502.9637,-246 508.9637,-246"/>
<text text-anchor="middle" x="560.4637" y="-359.2" font-family="Times,serif" font-size="11.00" fill="#c0c0c0">Service</text>
</g>
<g id="clust15" class="cluster">
<title>cluster_\LinHUniX\Upload</title>
<path fill="none" stroke="#c0c0c0" d="M493.9637,-1300C493.9637,-1300 626.9637,-1300 626.9637,-1300 632.9637,-1300 638.9637,-1306 638.9637,-1312 638.9637,-1312 638.9637,-1450 638.9637,-1450 638.9637,-1456 632.9637,-1462 626.9637,-1462 626.9637,-1462 493.9637,-1462 493.9637,-1462 487.9637,-1462 481.9637,-1456 481.9637,-1450 481.9637,-1450 481.9637,-1312 481.9637,-1312 481.9637,-1306 487.9637,-1300 493.9637,-1300"/>
<text text-anchor="middle" x="560.4637" y="-1449.2" font-family="Times,serif" font-size="11.00" fill="#c0c0c0">Upload</text>
</g>
<g id="clust16" class="cluster">
<title>cluster_\LinHUniX\Upload\Controller</title>
<path fill="none" stroke="#c0c0c0" d="M501.9637,-1308C501.9637,-1308 618.9637,-1308 618.9637,-1308 624.9637,-1308 630.9637,-1314 630.9637,-1320 630.9637,-1320 630.9637,-1422 630.9637,-1422 630.9637,-1428 624.9637,-1434 618.9637,-1434 618.9637,-1434 501.9637,-1434 501.9637,-1434 495.9637,-1434 489.9637,-1428 489.9637,-1422 489.9637,-1422 489.9637,-1320 489.9637,-1320 489.9637,-1314 495.9637,-1308 501.9637,-1308"/>
<text text-anchor="middle" x="560.4637" y="-1421.2" font-family="Times,serif" font-size="11.00" fill="#c0c0c0">Controller</text>
</g>
<g id="clust17" class="cluster">
<title>cluster_\LinHUniX\Wait</title>
<path fill="none" stroke="#c0c0c0" d="M487.4637,-604C487.4637,-604 633.4637,-604 633.4637,-604 639.4637,-604 645.4637,-610 645.4637,-616 645.4637,-616 645.4637,-700 645.4637,-700 645.4637,-706 639.4637,-712 633.4637,-712 633.4637,-712 487.4637,-712 487.4637,-712 481.4637,-712 475.4637,-706 475.4637,-700 475.4637,-700 475.4637,-616 475.4637,-616 475.4637,-610 481.4637,-604 487.4637,-604"/>
<text text-anchor="middle" x="560.4637" y="-699.2" font-family="Times,serif" font-size="11.00" fill="#c0c0c0">Wait</text>
</g>
<g id="clust18" class="cluster">
<title>cluster_\LinHUniX\Wait\Service</title>
<path fill="none" stroke="#c0c0c0" d="M495.4637,-612C495.4637,-612 625.4637,-612 625.4637,-612 631.4637,-612 637.4637,-618 637.4637,-624 637.4637,-624 637.4637,-672 637.4637,-672 637.4637,-678 631.4637,-684 625.4637,-684 625.4637,-684 495.4637,-684 495.4637,-684 489.4637,-684 483.4637,-678 483.4637,-672 483.4637,-672 483.4637,-624 483.4637,-624 483.4637,-618 489.4637,-612 495.4637,-612"/>
<text text-anchor="middle" x="560.4637" y="-671.2" font-family="Times,serif" font-size="11.00" fill="#c0c0c0">Service</text>
</g>
<g id="clust19" class="cluster">
<title>cluster_\LinHUniX\Ln4</title>
<path fill="none" stroke="#c0c0c0" d="M514.4637,-408C514.4637,-408 606.4637,-408 606.4637,-408 612.4637,-408 618.4637,-414 618.4637,-420 618.4637,-420 618.4637,-584 618.4637,-584 618.4637,-590 612.4637,-596 606.4637,-596 606.4637,-596 514.4637,-596 514.4637,-596 508.4637,-596 502.4637,-590 502.4637,-584 502.4637,-584 502.4637,-420 502.4637,-420 502.4637,-414 508.4637,-408 514.4637,-408"/>
<text text-anchor="middle" x="560.4637" y="-583.2" font-family="Times,serif" font-size="11.00" fill="#c0c0c0">Ln4</text>
</g>
<g id="clust20" class="cluster">
<title>cluster_\LinHUniX\Ln4\Driver</title>
<path fill="none" stroke="#c0c0c0" d="M522.4637,-496C522.4637,-496 598.4637,-496 598.4637,-496 604.4637,-496 610.4637,-502 610.4637,-508 610.4637,-508 610.4637,-556 610.4637,-556 610.4637,-562 604.4637,-568 598.4637,-568 598.4637,-568 522.4637,-568 522.4637,-568 516.4637,-568 510.4637,-562 510.4637,-556 510.4637,-556 510.4637,-508 510.4637,-508 510.4637,-502 516.4637,-496 522.4637,-496"/>
<text text-anchor="middle" x="560.4637" y="-555.2" font-family="Times,serif" font-size="11.00" fill="#c0c0c0">Driver</text>
</g>
<g id="clust21" class="cluster">
<title>cluster_\LinHUniX\Ln4\Service</title>
<path fill="none" stroke="#c0c0c0" d="M522.4637,-416C522.4637,-416 598.4637,-416 598.4637,-416 604.4637,-416 610.4637,-422 610.4637,-428 610.4637,-428 610.4637,-476 610.4637,-476 610.4637,-482 604.4637,-488 598.4637,-488 598.4637,-488 522.4637,-488 522.4637,-488 516.4637,-488 510.4637,-482 510.4637,-476 510.4637,-476 510.4637,-428 510.4637,-428 510.4637,-422 516.4637,-416 522.4637,-416"/>
<text text-anchor="middle" x="560.4637" y="-475.2" font-family="Times,serif" font-size="11.00" fill="#c0c0c0">Service</text>
</g>
<g id="clust22" class="cluster">
<title>cluster_\LinHUniX\LnxMcpAdmHttpd</title>
<path fill="none" stroke="#c0c0c0" d="M487.4637,-1864C487.4637,-1864 633.4637,-1864 633.4637,-1864 639.4637,-1864 645.4637,-1870 645.4637,-1876 645.4637,-1876 645.4637,-2068 645.4637,-2068 645.4637,-2074 639.4637,-2080 633.4637,-2080 633.4637,-2080 487.4637,-2080 487.4637,-2080 481.4637,-2080 475.4637,-2074 475.4637,-2068 475.4637,-2068 475.4637,-1876 475.4637,-1876 475.4637,-1870 481.4637,-1864 487.4637,-1864"/>
<text text-anchor="middle" x="560.4637" y="-2067.2" font-family="Times,serif" font-size="11.00" fill="#c0c0c0">LnxMcpAdmHttpd</text>
</g>
<g id="clust23" class="cluster">
<title>cluster_\LinHUniX\LnxMcpAdmHttpd\Controller</title>
<path fill="none" stroke="#c0c0c0" d="M495.4637,-1872C495.4637,-1872 625.4637,-1872 625.4637,-1872 631.4637,-1872 637.4637,-1878 637.4637,-1884 637.4637,-1884 637.4637,-2040 637.4637,-2040 637.4637,-2046 631.4637,-2052 625.4637,-2052 625.4637,-2052 495.4637,-2052 495.4637,-2052 489.4637,-2052 483.4637,-2046 483.4637,-2040 483.4637,-2040 483.4637,-1884 483.4637,-1884 483.4637,-1878 489.4637,-1872 495.4637,-1872"/>
<text text-anchor="middle" x="560.4637" y="-2039.2" font-family="Times,serif" font-size="11.00" fill="#c0c0c0">Controller</text>
</g>
<g id="clust24" class="cluster">
<title>cluster_\LinHUniX\Csv</title>
<path fill="none" stroke="#c0c0c0" d="M514.4637,-720C514.4637,-720 606.4637,-720 606.4637,-720 612.4637,-720 618.4637,-726 618.4637,-732 618.4637,-732 618.4637,-816 618.4637,-816 618.4637,-822 612.4637,-828 606.4637,-828 606.4637,-828 514.4637,-828 514.4637,-828 508.4637,-828 502.4637,-822 502.4637,-816 502.4637,-816 502.4637,-732 502.4637,-732 502.4637,-726 508.4637,-720 514.4637,-720"/>
<text text-anchor="middle" x="560.4637" y="-815.2" font-family="Times,serif" font-size="11.00" fill="#c0c0c0">Csv</text>
</g>
<g id="clust25" class="cluster">
<title>cluster_\LinHUniX\Csv\Service</title>
<path fill="none" stroke="#c0c0c0" d="M522.4637,-728C522.4637,-728 598.4637,-728 598.4637,-728 604.4637,-728 610.4637,-734 610.4637,-740 610.4637,-740 610.4637,-788 610.4637,-788 610.4637,-794 604.4637,-800 598.4637,-800 598.4637,-800 522.4637,-800 522.4637,-800 516.4637,-800 510.4637,-794 510.4637,-788 510.4637,-788 510.4637,-740 510.4637,-740 510.4637,-734 516.4637,-728 522.4637,-728"/>
<text text-anchor="middle" x="560.4637" y="-787.2" font-family="Times,serif" font-size="11.00" fill="#c0c0c0">Service</text>
</g>
<g id="clust26" class="cluster">
<title>cluster_\LinHUniX\LnxMcpAdm</title>
<path fill="none" stroke="#c0c0c0" d="M500.9637,-1748C500.9637,-1748 619.9637,-1748 619.9637,-1748 625.9637,-1748 631.9637,-1754 631.9637,-1760 631.9637,-1760 631.9637,-1844 631.9637,-1844 631.9637,-1850 625.9637,-1856 619.9637,-1856 619.9637,-1856 500.9637,-1856 500.9637,-1856 494.9637,-1856 488.9637,-1850 488.9637,-1844 488.9637,-1844 488.9637,-1760 488.9637,-1760 488.9637,-1754 494.9637,-1748 500.9637,-1748"/>
<text text-anchor="middle" x="560.4637" y="-1843.2" font-family="Times,serif" font-size="11.00" fill="#c0c0c0">LnxMcpAdm</text>
</g>
<g id="clust27" class="cluster">
<title>cluster_\LinHUniX\LnxMcpAdm\Controller</title>
<path fill="none" stroke="#c0c0c0" d="M508.9637,-1756C508.9637,-1756 611.9637,-1756 611.9637,-1756 617.9637,-1756 623.9637,-1762 623.9637,-1768 623.9637,-1768 623.9637,-1816 623.9637,-1816 623.9637,-1822 617.9637,-1828 611.9637,-1828 611.9637,-1828 508.9637,-1828 508.9637,-1828 502.9637,-1828 496.9637,-1822 496.9637,-1816 496.9637,-1816 496.9637,-1768 496.9637,-1768 496.9637,-1762 502.9637,-1756 508.9637,-1756"/>
<text text-anchor="middle" x="560.4637" y="-1815.2" font-family="Times,serif" font-size="11.00" fill="#c0c0c0">Controller</text>
</g>
<g id="clust28" class="cluster">
<title>cluster_\LinHUniX\ln4</title>
<path fill="none" stroke="#c0c0c0" d="M504.4637,-122C504.4637,-122 616.4637,-122 616.4637,-122 622.4637,-122 628.4637,-128 628.4637,-134 628.4637,-134 628.4637,-218 628.4637,-218 628.4637,-224 622.4637,-230 616.4637,-230 616.4637,-230 504.4637,-230 504.4637,-230 498.4637,-230 492.4637,-224 492.4637,-218 492.4637,-218 492.4637,-134 492.4637,-134 492.4637,-128 498.4637,-122 504.4637,-122"/>
<text text-anchor="middle" x="560.4637" y="-217.2" font-family="Times,serif" font-size="11.00" fill="#c0c0c0">ln4</text>
</g>
<g id="clust29" class="cluster">
<title>cluster_\LinHUniX\ln4\Controller</title>
<path fill="none" stroke="#c0c0c0" d="M512.4637,-130C512.4637,-130 608.4637,-130 608.4637,-130 614.4637,-130 620.4637,-136 620.4637,-142 620.4637,-142 620.4637,-190 620.4637,-190 620.4637,-196 614.4637,-202 608.4637,-202 608.4637,-202 512.4637,-202 512.4637,-202 506.4637,-202 500.4637,-196 500.4637,-190 500.4637,-190 500.4637,-142 500.4637,-142 500.4637,-136 506.4637,-130 512.4637,-130"/>
<text text-anchor="middle" x="560.4637" y="-189.2" font-family="Times,serif" font-size="11.00" fill="#c0c0c0">Controller</text>
</g>
<!-- \\LinHUniX\\LnxMcpAdmShell\\Controller\\httpdController -->
<g id="node1" class="node">
<title>\\LinHUniX\\LnxMcpAdmShell\\Controller\\httpdController</title>
<polygon fill="none" stroke="#000000" points="619.4637,-1684 501.4637,-1684 501.4637,-1648 619.4637,-1648 619.4637,-1684"/>
<text text-anchor="middle" x="560.4637" y="-1663.2" font-family="Courier,monospace" font-size="11.00" fill="#000000">httpdController</text>
</g>
<!-- \\LinHUniX\\Mcp\\Model\\mcpBaseModelClass -->
<g id="node24" class="node">
<title>\\LinHUniX\\Mcp\\Model\\mcpBaseModelClass</title>
<ellipse fill="none" stroke="#000000" cx="204.7318" cy="-1639" rx="179.2682" ry="18"/>
<text text-anchor="middle" x="204.7318" y="-1635.3" font-family="Times,serif" font-size="14.00" fill="#c0c0c0">\LinHUniX\Mcp\Model\mcpBaseModelClass</text>
</g>
<!-- \\LinHUniX\\LnxMcpAdmShell\\Controller\\httpdController&#45;&gt;\\LinHUniX\\Mcp\\Model\\mcpBaseModelClass -->
<g id="edge1" class="edge">
<title>\\LinHUniX\\LnxMcpAdmShell\\Controller\\httpdController&#45;&gt;\\LinHUniX\\Mcp\\Model\\mcpBaseModelClass</title>
<path fill="none" stroke="#000000" d="M501.3225,-1661.5112C462.1488,-1658.5379 408.8349,-1654.4914 358.2081,-1650.6488"/>
<polygon fill="none" stroke="#000000" points="358.3598,-1647.1504 348.1235,-1649.8834 357.8299,-1654.1303 358.3598,-1647.1504"/>
</g>
<!-- \\LinHUniX\\LnxMcpAdmShell\\Controller\\defaultController -->
<g id="node2" class="node">
<title>\\LinHUniX\\LnxMcpAdmShell\\Controller\\defaultController</title>
<polygon fill="none" stroke="#000000" points="625.9637,-1630 494.9637,-1630 494.9637,-1594 625.9637,-1594 625.9637,-1630"/>
<text text-anchor="middle" x="560.4637" y="-1609.2" font-family="Courier,monospace" font-size="11.00" fill="#000000">defaultController</text>
</g>
<!-- \\LinHUniX\\LnxMcpAdmShell\\Controller\\defaultController&#45;&gt;\\LinHUniX\\Mcp\\Model\\mcpBaseModelClass -->
<g id="edge4" class="edge">
<title>\\LinHUniX\\LnxMcpAdmShell\\Controller\\defaultController&#45;&gt;\\LinHUniX\\Mcp\\Model\\mcpBaseModelClass</title>
<path fill="none" stroke="#000000" d="M494.8024,-1616.9837C456.3805,-1619.8999 406.152,-1623.7122 358.3122,-1627.3433"/>
<polygon fill="none" stroke="#000000" points="357.8514,-1623.8681 348.145,-1628.115 358.3813,-1630.848 357.8514,-1623.8681"/>
</g>
<!-- \\LinHUniX\\LnxMcpAdmShell\\Controller\\pharizeController -->
<g id="node3" class="node">
<title>\\LinHUniX\\LnxMcpAdmShell\\Controller\\pharizeController</title>
<polygon fill="none" stroke="#000000" points="625.9637,-1576 494.9637,-1576 494.9637,-1540 625.9637,-1540 625.9637,-1576"/>
<text text-anchor="middle" x="560.4637" y="-1555.2" font-family="Courier,monospace" font-size="11.00" fill="#000000">pharizeController</text>
</g>
<!-- \\LinHUniX\\LnxMcpAdmShell\\Controller\\pharizeController&#45;&gt;\\LinHUniX\\Mcp\\Model\\mcpBaseModelClass -->
<g id="edge16" class="edge">
<title>\\LinHUniX\\LnxMcpAdmShell\\Controller\\pharizeController&#45;&gt;\\LinHUniX\\Mcp\\Model\\mcpBaseModelClass</title>
<path fill="none" stroke="#000000" d="M494.8024,-1572.951C436.3003,-1586.272 350.4258,-1605.8255 287.289,-1620.2018"/>
<polygon fill="none" stroke="#000000" points="286.3321,-1616.83 277.3588,-1622.4629 287.8863,-1623.6553 286.3321,-1616.83"/>
</g>
<!-- \\LinHUniX\\LnxMcpAdmShell\\Controller\\checksintaxController -->
<g id="node4" class="node">
<title>\\LinHUniX\\LnxMcpAdmShell\\Controller\\checksintaxController</title>
<polygon fill="none" stroke="#000000" points="639.4637,-1522 481.4637,-1522 481.4637,-1486 639.4637,-1486 639.4637,-1522"/>
<text text-anchor="middle" x="560.4637" y="-1501.2" font-family="Courier,monospace" font-size="11.00" fill="#000000">checksintaxController</text>
</g>
<!-- \\LinHUniX\\LnxMcpAdmShell\\Controller\\checksintaxController&#45;&gt;\\LinHUniX\\Mcp\\Model\\mcpBaseModelClass -->
<g id="edge18" class="edge">
<title>\\LinHUniX\\LnxMcpAdmShell\\Controller\\checksintaxController&#45;&gt;\\LinHUniX\\Mcp\\Model\\mcpBaseModelClass</title>
<path fill="none" stroke="#000000" d="M481.4384,-1521.3951C470.6077,-1524.3092 459.6994,-1527.5271 449.4637,-1531 377.3106,-1555.4808 297.1243,-1592.9407 248.8355,-1616.6892"/>
<polygon fill="none" stroke="#000000" points="247.0277,-1613.6785 239.6148,-1621.2482 250.1303,-1619.9534 247.0277,-1613.6785"/>
</g>
<!-- \\LinHUniX\\McpModules\\Chk\\Shell\\mcpCheckModel -->
<g id="node5" class="node">
<title>\\LinHUniX\\McpModules\\Chk\\Shell\\mcpCheckModel</title>
<polygon fill="none" stroke="#000000" points="612.4637,-1208 508.4637,-1208 508.4637,-1172 612.4637,-1172 612.4637,-1208"/>
<text text-anchor="middle" x="560.4637" y="-1187.2" font-family="Courier,monospace" font-size="11.00" fill="#000000">mcpCheckModel</text>
</g>
<!-- \\LinHUniX\\McpModules\\Monologger\\errorLogHandler -->
<g id="node6" class="node">
<title>\\LinHUniX\\McpModules\\Monologger\\errorLogHandler</title>
<polygon fill="none" stroke="#000000" points="619.4637,-1120 501.4637,-1120 501.4637,-1084 619.4637,-1084 619.4637,-1120"/>
<text text-anchor="middle" x="560.4637" y="-1099.2" font-family="Courier,monospace" font-size="11.00" fill="#000000">errorLogHandler</text>
</g>
<!-- \\Monolog\\Handler\\AbstractProcessingHandler -->
<g id="node26" class="node">
<title>\\Monolog\\Handler\\AbstractProcessingHandler</title>
<ellipse fill="none" stroke="#000000" cx="204.7318" cy="-1102" rx="183.0677" ry="18"/>
<text text-anchor="middle" x="204.7318" y="-1098.3" font-family="Times,serif" font-size="14.00" fill="#c0c0c0">\Monolog\Handler\AbstractProcessingHandler</text>
</g>
<!-- \\LinHUniX\\McpModules\\Monologger\\errorLogHandler&#45;&gt;\\Monolog\\Handler\\AbstractProcessingHandler -->
<g id="edge6" class="edge">
<title>\\LinHUniX\\McpModules\\Monologger\\errorLogHandler&#45;&gt;\\Monolog\\Handler\\AbstractProcessingHandler</title>
<path fill="none" stroke="#000000" d="M501.3225,-1102C472.3956,-1102 435.7585,-1102 398.1865,-1102"/>
<polygon fill="none" stroke="#000000" points="398.0965,-1098.5001 388.0964,-1102 398.0964,-1105.5001 398.0965,-1098.5001"/>
</g>
<!-- \\LinHUniX\\McpModules\\DbMig\\Shell\\mcpDbMigrate -->
<g id="node7" class="node">
<title>\\LinHUniX\\McpModules\\DbMig\\Shell\\mcpDbMigrate</title>
<polygon fill="none" stroke="#000000" points="609.4637,-1012 511.4637,-1012 511.4637,-976 609.4637,-976 609.4637,-1012"/>
<text text-anchor="middle" x="560.4637" y="-991.2" font-family="Courier,monospace" font-size="11.00" fill="#000000">mcpDbMigrate</text>
</g>
<!-- \\LinHUniX\\McpModules\\DbLegacy\\Loader\\mysqlLegacyLoader -->
<g id="node8" class="node">
<title>\\LinHUniX\\McpModules\\DbLegacy\\Loader\\mysqlLegacyLoader</title>
<polygon fill="none" stroke="#000000" points="625.9637,-896 494.9637,-896 494.9637,-860 625.9637,-860 625.9637,-896"/>
<text text-anchor="middle" x="560.4637" y="-875.2" font-family="Courier,monospace" font-size="11.00" fill="#000000">mysqlLegacyLoader</text>
</g>
<!-- \\LinHUniX\\Nsql\\Service\\nsqlService -->
<g id="node9" class="node">
<title>\\LinHUniX\\Nsql\\Service\\nsqlService</title>
<polygon fill="none" stroke="#000000" points="605.9637,-344 514.9637,-344 514.9637,-308 605.9637,-308 605.9637,-344"/>
<text text-anchor="middle" x="560.4637" y="-323.2" font-family="Courier,monospace" font-size="11.00" fill="#000000">nsqlService</text>
</g>
<!-- \\LinHUniX\\Mcp\\Model\\mcpServiceModelClass -->
<g id="node25" class="node">
<title>\\LinHUniX\\Mcp\\Model\\mcpServiceModelClass</title>
<ellipse fill="none" stroke="#000000" cx="204.7318" cy="-482" rx="189.5666" ry="18"/>
<text text-anchor="middle" x="204.7318" y="-478.3" font-family="Times,serif" font-size="14.00" fill="#c0c0c0">\LinHUniX\Mcp\Model\mcpServiceModelClass</text>
</g>
<!-- \\LinHUniX\\Nsql\\Service\\nsqlService&#45;&gt;\\LinHUniX\\Mcp\\Model\\mcpServiceModelClass -->
<g id="edge2" class="edge">
<title>\\LinHUniX\\Nsql\\Service\\nsqlService&#45;&gt;\\LinHUniX\\Mcp\\Model\\mcpServiceModelClass</title>
<path fill="none" stroke="#000000" d="M519.3092,-344.0476C453.6317,-372.8493 325.331,-429.1133 254.5626,-460.1476"/>
<polygon fill="none" stroke="#000000" points="252.7236,-457.1322 244.9712,-464.3537 255.535,-463.5429 252.7236,-457.1322"/>
</g>
<!-- \\LinHUniX\\Nsql\\Service\\nsqlRamService -->
<g id="node10" class="node">
<title>\\LinHUniX\\Nsql\\Service\\nsqlRamService</title>
<polygon fill="none" stroke="#000000" points="615.9637,-290 504.9637,-290 504.9637,-254 615.9637,-254 615.9637,-290"/>
<text text-anchor="middle" x="560.4637" y="-269.2" font-family="Courier,monospace" font-size="11.00" fill="#000000">nsqlRamService</text>
</g>
<!-- \\LinHUniX\\Nsql\\Service\\nsqlRamService&#45;&gt;\\LinHUniX\\Mcp\\Model\\mcpServiceModelClass -->
<g id="edge8" class="edge">
<title>\\LinHUniX\\Nsql\\Service\\nsqlRamService&#45;&gt;\\LinHUniX\\Mcp\\Model\\mcpServiceModelClass</title>
<path fill="none" stroke="#000000" d="M504.7682,-280.9467C486.6021,-285.0588 466.6869,-290.8846 449.4637,-299 360.9105,-340.7256 272.8708,-417.3712 230.6078,-456.9222"/>
<polygon fill="none" stroke="#000000" points="228.1288,-454.4492 223.2593,-463.8588 232.9338,-459.5396 228.1288,-454.4492"/>
</g>
<!-- \\LinHUniX\\Upload\\Controller\\listController -->
<g id="node11" class="node">
<title>\\LinHUniX\\Upload\\Controller\\listController</title>
<polygon fill="none" stroke="#000000" points="615.9637,-1406 504.9637,-1406 504.9637,-1370 615.9637,-1370 615.9637,-1406"/>
<text text-anchor="middle" x="560.4637" y="-1385.2" font-family="Courier,monospace" font-size="11.00" fill="#000000">listController</text>
</g>
<!-- \\LinHUniX\\Upload\\Controller\\listController&#45;&gt;\\LinHUniX\\Mcp\\Model\\mcpBaseModelClass -->
<g id="edge3" class="edge">
<title>\\LinHUniX\\Upload\\Controller\\listController&#45;&gt;\\LinHUniX\\Mcp\\Model\\mcpBaseModelClass</title>
<path fill="none" stroke="#000000" d="M534.8803,-1406.0513C471.9372,-1450.4632 309.5368,-1565.0509 238.6603,-1615.0605"/>
<polygon fill="none" stroke="#000000" points="236.2364,-1612.4872 230.0834,-1621.1123 240.2721,-1618.2068 236.2364,-1612.4872"/>
</g>
<!-- \\LinHUniX\\Upload\\Controller\\uploadController -->
<g id="node12" class="node">
<title>\\LinHUniX\\Upload\\Controller\\uploadController</title>
<polygon fill="none" stroke="#000000" points="622.9637,-1352 497.9637,-1352 497.9637,-1316 622.9637,-1316 622.9637,-1352"/>
<text text-anchor="middle" x="560.4637" y="-1331.2" font-family="Courier,monospace" font-size="11.00" fill="#000000">uploadController</text>
</g>
<!-- \\LinHUniX\\Upload\\Controller\\uploadController&#45;&gt;\\LinHUniX\\Mcp\\Model\\mcpBaseModelClass -->
<g id="edge12" class="edge">
<title>\\LinHUniX\\Upload\\Controller\\uploadController&#45;&gt;\\LinHUniX\\Mcp\\Model\\mcpBaseModelClass</title>
<path fill="none" stroke="#000000" d="M497.9371,-1342.2319C481.3757,-1346.233 464.0596,-1352.1755 449.4637,-1361 340.7841,-1426.7058 254.1292,-1556.4976 220.2027,-1612.381"/>
<polygon fill="none" stroke="#000000" points="217.1735,-1610.6269 215.0322,-1621.0031 223.1768,-1614.227 217.1735,-1610.6269"/>
</g>
<!-- \\LinHUniX\\Wait\\Service\\waitprocessService -->
<g id="node13" class="node">
<title>\\LinHUniX\\Wait\\Service\\waitprocessService</title>
<polygon fill="none" stroke="#000000" points="629.4637,-656 491.4637,-656 491.4637,-620 629.4637,-620 629.4637,-656"/>
<text text-anchor="middle" x="560.4637" y="-635.2" font-family="Courier,monospace" font-size="11.00" fill="#000000">waitprocessService</text>
</g>
<!-- \\LinHUniX\\Wait\\Service\\waitprocessService&#45;&gt;\\LinHUniX\\Mcp\\Model\\mcpServiceModelClass -->
<g id="edge5" class="edge">
<title>\\LinHUniX\\Wait\\Service\\waitprocessService&#45;&gt;\\LinHUniX\\Mcp\\Model\\mcpServiceModelClass</title>
<path fill="none" stroke="#000000" d="M519.3092,-619.9524C453.6317,-591.1507 325.331,-534.8867 254.5626,-503.8524"/>
<polygon fill="none" stroke="#000000" points="255.535,-500.4571 244.9712,-499.6463 252.7236,-506.8678 255.535,-500.4571"/>
</g>
<!-- \\LinHUniX\\Ln4\\Driver\\AuthDriver -->
<g id="node14" class="node">
<title>\\LinHUniX\\Ln4\\Driver\\AuthDriver</title>
<polygon fill="none" stroke="#000000" points="602.4637,-540 518.4637,-540 518.4637,-504 602.4637,-504 602.4637,-540"/>
<text text-anchor="middle" x="560.4637" y="-519.2" font-family="Courier,monospace" font-size="11.00" fill="#000000">AuthDriver</text>
</g>
<!-- \\LinHUniX\\Ln4\\Driver\\AuthDriver&#45;&gt;\\LinHUniX\\Mcp\\Model\\mcpServiceModelClass -->
<g id="edge7" class="edge">
<title>\\LinHUniX\\Ln4\\Driver\\AuthDriver&#45;&gt;\\LinHUniX\\Mcp\\Model\\mcpServiceModelClass</title>
<path fill="none" stroke="#000000" d="M518.2596,-517.2544C473.7994,-512.2551 401.4961,-504.125 337.522,-496.9315"/>
<polygon fill="none" stroke="#000000" points="337.6601,-493.425 327.3316,-495.7856 336.8778,-500.3812 337.6601,-493.425"/>
</g>
<!-- \\LinHUniX\\Ln4\\Service\\lnxService -->
<g id="node15" class="node">
<title>\\LinHUniX\\Ln4\\Service\\lnxService</title>
<polygon fill="none" stroke="#000000" points="602.4637,-460 518.4637,-460 518.4637,-424 602.4637,-424 602.4637,-460"/>
<text text-anchor="middle" x="560.4637" y="-439.2" font-family="Courier,monospace" font-size="11.00" fill="#000000">lnxService</text>
</g>
<!-- \\LinHUniX\\Ln4\\Service\\lnxService&#45;&gt;\\LinHUniX\\Mcp\\Model\\mcpServiceModelClass -->
<g id="edge17" class="edge">
<title>\\LinHUniX\\Ln4\\Service\\lnxService&#45;&gt;\\LinHUniX\\Mcp\\Model\\mcpServiceModelClass</title>
<path fill="none" stroke="#000000" d="M518.2596,-446.7456C473.7994,-451.7449 401.4961,-459.875 337.522,-467.0685"/>
<polygon fill="none" stroke="#000000" points="336.8778,-463.6188 327.3316,-468.2144 337.6601,-470.575 336.8778,-463.6188"/>
</g>
<!-- \\LinHUniX\\LnxMcpAdmHttpd\\Controller\\leftmenuController -->
<g id="node16" class="node">
<title>\\LinHUniX\\LnxMcpAdmHttpd\\Controller\\leftmenuController</title>
<polygon fill="none" stroke="#000000" points="629.4637,-2024 491.4637,-2024 491.4637,-1988 629.4637,-1988 629.4637,-2024"/>
<text text-anchor="middle" x="560.4637" y="-2003.2" font-family="Courier,monospace" font-size="11.00" fill="#000000">leftmenuController</text>
</g>
<!-- \\LinHUniX\\LnxMcpAdmHttpd\\Controller\\leftmenuController&#45;&gt;\\LinHUniX\\Mcp\\Model\\mcpBaseModelClass -->
<g id="edge9" class="edge">
<title>\\LinHUniX\\LnxMcpAdmHttpd\\Controller\\leftmenuController&#45;&gt;\\LinHUniX\\Mcp\\Model\\mcpBaseModelClass</title>
<path fill="none" stroke="#000000" d="M491.2551,-1997.1358C476.6314,-1993.1445 461.8829,-1987.3651 449.4637,-1979 327.252,-1896.6835 245.1973,-1731.7091 216.2826,-1666.465"/>
<polygon fill="none" stroke="#000000" points="219.4598,-1664.9949 212.2514,-1657.2303 213.0444,-1667.7954 219.4598,-1664.9949"/>
</g>
<!-- \\LinHUniX\\LnxMcpAdmHttpd\\Controller\\mainpageController -->
<g id="node17" class="node">
<title>\\LinHUniX\\LnxMcpAdmHttpd\\Controller\\mainpageController</title>
<polygon fill="none" stroke="#000000" points="629.4637,-1970 491.4637,-1970 491.4637,-1934 629.4637,-1934 629.4637,-1970"/>
<text text-anchor="middle" x="560.4637" y="-1949.2" font-family="Courier,monospace" font-size="11.00" fill="#000000">mainpageController</text>
</g>
<!-- \\LinHUniX\\LnxMcpAdmHttpd\\Controller\\mainpageController&#45;&gt;\\LinHUniX\\Mcp\\Model\\mcpBaseModelClass -->
<g id="edge11" class="edge">
<title>\\LinHUniX\\LnxMcpAdmHttpd\\Controller\\mainpageController&#45;&gt;\\LinHUniX\\Mcp\\Model\\mcpBaseModelClass</title>
<path fill="none" stroke="#000000" d="M491.1797,-1942.1902C476.7167,-1938.2518 462.0538,-1932.733 449.4637,-1925 339.2191,-1857.2864 253.1224,-1723.2563 219.7585,-1665.9797"/>
<polygon fill="none" stroke="#000000" points="222.7012,-1664.0759 214.6816,-1657.1522 216.6332,-1667.5658 222.7012,-1664.0759"/>
</g>
<!-- \\LinHUniX\\LnxMcpAdmHttpd\\Controller\\defaultController -->
<g id="node18" class="node">
<title>\\LinHUniX\\LnxMcpAdmHttpd\\Controller\\defaultController</title>
<polygon fill="none" stroke="#000000" points="625.9637,-1916 494.9637,-1916 494.9637,-1880 625.9637,-1880 625.9637,-1916"/>
<text text-anchor="middle" x="560.4637" y="-1895.2" font-family="Courier,monospace" font-size="11.00" fill="#000000">defaultController</text>
</g>
<!-- \\LinHUniX\\LnxMcpAdmHttpd\\Controller\\defaultController&#45;&gt;\\LinHUniX\\Mcp\\Model\\mcpBaseModelClass -->
<g id="edge14" class="edge">
<title>\\LinHUniX\\LnxMcpAdmHttpd\\Controller\\defaultController&#45;&gt;\\LinHUniX\\Mcp\\Model\\mcpBaseModelClass</title>
<path fill="none" stroke="#000000" d="M527.2171,-1879.7518C504.7874,-1867.0751 474.7778,-1849.3964 449.4637,-1832 368.0182,-1776.0288 278.2237,-1701.6905 233.4446,-1663.6782"/>
<polygon fill="none" stroke="#000000" points="235.5025,-1660.8336 225.6194,-1657.0159 230.9646,-1666.1635 235.5025,-1660.8336"/>
</g>
<!-- \\LinHUniX\\Csv\\Service\\csvService -->
<g id="node19" class="node">
<title>\\LinHUniX\\Csv\\Service\\csvService</title>
<polygon fill="none" stroke="#000000" points="602.4637,-772 518.4637,-772 518.4637,-736 602.4637,-736 602.4637,-772"/>
<text text-anchor="middle" x="560.4637" y="-751.2" font-family="Courier,monospace" font-size="11.00" fill="#000000">csvService</text>
</g>
<!-- \\LinHUniX\\Csv\\Service\\csvService&#45;&gt;\\LinHUniX\\Mcp\\Model\\mcpServiceModelClass -->
<g id="edge10" class="edge">
<title>\\LinHUniX\\Csv\\Service\\csvService&#45;&gt;\\LinHUniX\\Mcp\\Model\\mcpServiceModelClass</title>
<path fill="none" stroke="#000000" d="M526.541,-735.7363C504.0882,-723.1909 474.3142,-705.6682 449.4637,-688 365.5604,-628.3465 274.8475,-547.0728 231.1791,-506.767"/>
<polygon fill="none" stroke="#000000" points="233.5487,-504.1911 223.8339,-499.9636 228.792,-509.3267 233.5487,-504.1911"/>
</g>
<!-- \\LinHUniX\\LnxMcpAdm\\Controller\\initController -->
<g id="node20" class="node">
<title>\\LinHUniX\\LnxMcpAdm\\Controller\\initController</title>
<polygon fill="none" stroke="#000000" points="615.9637,-1800 504.9637,-1800 504.9637,-1764 615.9637,-1764 615.9637,-1800"/>
<text text-anchor="middle" x="560.4637" y="-1779.2" font-family="Courier,monospace" font-size="11.00" fill="#000000">initController</text>
</g>
<!-- \\LinHUniX\\LnxMcpAdm\\Controller\\initController&#45;&gt;\\LinHUniX\\Mcp\\Model\\mcpBaseModelClass -->
<g id="edge13" class="edge">
<title>\\LinHUniX\\LnxMcpAdm\\Controller\\initController&#45;&gt;\\LinHUniX\\Mcp\\Model\\mcpBaseModelClass</title>
<path fill="none" stroke="#000000" d="M515.41,-1763.889C449.7001,-1737.4744 327.8039,-1688.4735 257.8255,-1660.343"/>
<polygon fill="none" stroke="#000000" points="258.8909,-1656.9991 248.307,-1656.5167 256.28,-1663.494 258.8909,-1656.9991"/>
</g>
<!-- \\LinHUniX\\ln4\\Controller\\ln4Controller -->
<g id="node21" class="node">
<title>\\LinHUniX\\ln4\\Controller\\ln4Controller</title>
<polygon fill="none" stroke="#000000" points="612.4637,-174 508.4637,-174 508.4637,-138 612.4637,-138 612.4637,-174"/>
<text text-anchor="middle" x="560.4637" y="-153.2" font-family="Courier,monospace" font-size="11.00" fill="#000000">ln4Controller</text>
</g>
<!-- \\LinHUniX\\Mcp\\Model\\mcpRemoteApiModelClass -->
<g id="node27" class="node">
<title>\\LinHUniX\\Mcp\\Model\\mcpRemoteApiModelClass</title>
<ellipse fill="none" stroke="#000000" cx="204.7318" cy="-156" rx="204.9639" ry="18"/>
<text text-anchor="middle" x="204.7318" y="-152.3" font-family="Times,serif" font-size="14.00" fill="#c0c0c0">\LinHUniX\Mcp\Model\mcpRemoteApiModelClass</text>
</g>
<!-- \\LinHUniX\\ln4\\Controller\\ln4Controller&#45;&gt;\\LinHUniX\\Mcp\\Model\\mcpRemoteApiModelClass -->
<g id="edge15" class="edge">
<title>\\LinHUniX\\ln4\\Controller\\ln4Controller&#45;&gt;\\LinHUniX\\Mcp\\Model\\mcpRemoteApiModelClass</title>
<path fill="none" stroke="#000000" d="M508.3562,-156C483.7839,-156 452.6554,-156 419.7513,-156"/>
<polygon fill="none" stroke="#000000" points="419.4881,-152.5001 409.488,-156 419.488,-159.5001 419.4881,-152.5001"/>
</g>
<!-- \\simple_html_dom_node -->
<g id="node22" class="node">
<title>\\simple_html_dom_node</title>
<polygon fill="none" stroke="#000000" points="636.4637,-106 484.4637,-106 484.4637,-70 636.4637,-70 636.4637,-106"/>
<text text-anchor="middle" x="560.4637" y="-85.2" font-family="Courier,monospace" font-size="11.00" fill="#000000">simple_html_dom_node</text>
</g>
<!-- \\simple_html_dom -->
<g id="node23" class="node">
<title>\\simple_html_dom</title>
<polygon fill="none" stroke="#000000" points="619.4637,-52 501.4637,-52 501.4637,-16 619.4637,-16 619.4637,-52"/>
<text text-anchor="middle" x="560.4637" y="-31.2" font-family="Courier,monospace" font-size="11.00" fill="#000000">simple_html_dom</text>
</g>
</g>
</svg>
