<?xml version="1.0" encoding="UTF-8" standalone="no"?>
<!DOCTYPE svg PUBLIC "-//W3C//DTD SVG 1.1//EN"
 "http://www.w3.org/Graphics/SVG/1.1/DTD/svg11.dtd">
<!-- Generated by graphviz version 2.40.1 (20161225.0304)
 -->
<!-- Title: G Pages: 1 -->
<svg width="645pt" height="1268pt"
 viewBox="0.00 0.00 644.57 1268.00" xmlns="http://www.w3.org/2000/svg" xmlns:xlink="http://www.w3.org/1999/xlink">
<g id="graph0" class="graph" transform="scale(1 1) rotate(0) translate(4 1264)">
<title>G</title>
<polygon fill="#ffffff" stroke="transparent" points="-4,4 -4,-1264 640.5675,-1264 640.5675,4 -4,4"/>
<g id="clust1" class="cluster">
<title>cluster_Global</title>
<path fill="none" stroke="#c0c0c0" d="M418.5675,-8C418.5675,-8 616.5675,-8 616.5675,-8 622.5675,-8 628.5675,-14 628.5675,-20 628.5675,-20 628.5675,-1240 628.5675,-1240 628.5675,-1246 622.5675,-1252 616.5675,-1252 616.5675,-1252 418.5675,-1252 418.5675,-1252 412.5675,-1252 406.5675,-1246 406.5675,-1240 406.5675,-1240 406.5675,-20 406.5675,-20 406.5675,-14 412.5675,-8 418.5675,-8"/>
<text text-anchor="middle" x="517.5675" y="-1239.2" font-family="Times,serif" font-size="11.00" fill="#c0c0c0">Global</text>
</g>
<g id="clust2" class="cluster">
<title>cluster_\LinHUniX</title>
<path fill="none" stroke="#c0c0c0" d="M426.5675,-114C426.5675,-114 608.5675,-114 608.5675,-114 614.5675,-114 620.5675,-120 620.5675,-126 620.5675,-126 620.5675,-1212 620.5675,-1212 620.5675,-1218 614.5675,-1224 608.5675,-1224 608.5675,-1224 426.5675,-1224 426.5675,-1224 420.5675,-1224 414.5675,-1218 414.5675,-1212 414.5675,-1212 414.5675,-126 414.5675,-126 414.5675,-120 420.5675,-114 426.5675,-114"/>
<text text-anchor="middle" x="517.5675" y="-1211.2" font-family="Times,serif" font-size="11.00" fill="#c0c0c0">LinHUniX</text>
</g>
<g id="clust3" class="cluster">
<title>cluster_\LinHUniX\LnxMcpAdmShell</title>
<path fill="none" stroke="#c0c0c0" d="M434.5675,-810C434.5675,-810 600.5675,-810 600.5675,-810 606.5675,-810 612.5675,-816 612.5675,-822 612.5675,-822 612.5675,-1068 612.5675,-1068 612.5675,-1074 606.5675,-1080 600.5675,-1080 600.5675,-1080 434.5675,-1080 434.5675,-1080 428.5675,-1080 422.5675,-1074 422.5675,-1068 422.5675,-1068 422.5675,-822 422.5675,-822 422.5675,-816 428.5675,-810 434.5675,-810"/>
<text text-anchor="middle" x="517.5675" y="-1067.2" font-family="Times,serif" font-size="11.00" fill="#c0c0c0">LnxMcpAdmShell</text>
</g>
<g id="clust4" class="cluster">
<title>cluster_\LinHUniX\LnxMcpAdmShell\Controller</title>
<path fill="none" stroke="#c0c0c0" d="M442.5675,-818C442.5675,-818 592.5675,-818 592.5675,-818 598.5675,-818 604.5675,-824 604.5675,-830 604.5675,-830 604.5675,-1040 604.5675,-1040 604.5675,-1046 598.5675,-1052 592.5675,-1052 592.5675,-1052 442.5675,-1052 442.5675,-1052 436.5675,-1052 430.5675,-1046 430.5675,-1040 430.5675,-1040 430.5675,-830 430.5675,-830 430.5675,-824 436.5675,-818 442.5675,-818"/>
<text text-anchor="middle" x="517.5675" y="-1039.2" font-family="Times,serif" font-size="11.00" fill="#c0c0c0">Controller</text>
</g>
<g id="clust5" class="cluster">
<title>cluster_\LinHUniX\McpModules</title>
<path fill="none" stroke="#c0c0c0" d="M440.0675,-122C440.0675,-122 595.0675,-122 595.0675,-122 601.0675,-122 607.0675,-128 607.0675,-134 607.0675,-134 607.0675,-566 607.0675,-566 607.0675,-572 601.0675,-578 595.0675,-578 595.0675,-578 440.0675,-578 440.0675,-578 434.0675,-578 428.0675,-572 428.0675,-566 428.0675,-566 428.0675,-134 428.0675,-134 428.0675,-128 434.0675,-122 440.0675,-122"/>
<text text-anchor="middle" x="517.5675" y="-565.2" font-family="Times,serif" font-size="11.00" fill="#c0c0c0">McpModules</text>
</g>
<g id="clust6" class="cluster">
<title>cluster_\LinHUniX\McpModules\Chk</title>
<path fill="none" stroke="#c0c0c0" d="M461.5675,-442C461.5675,-442 573.5675,-442 573.5675,-442 579.5675,-442 585.5675,-448 585.5675,-454 585.5675,-454 585.5675,-538 585.5675,-538 585.5675,-544 579.5675,-550 573.5675,-550 573.5675,-550 461.5675,-550 461.5675,-550 455.5675,-550 449.5675,-544 449.5675,-538 449.5675,-538 449.5675,-454 449.5675,-454 449.5675,-448 455.5675,-442 461.5675,-442"/>
<text text-anchor="middle" x="517.5675" y="-537.2" font-family="Times,serif" font-size="11.00" fill="#c0c0c0">Chk</text>
</g>
<g id="clust7" class="cluster">
<title>cluster_\LinHUniX\McpModules\Chk\Shell</title>
<path fill="none" stroke="#c0c0c0" d="M469.5675,-450C469.5675,-450 565.5675,-450 565.5675,-450 571.5675,-450 577.5675,-456 577.5675,-462 577.5675,-462 577.5675,-510 577.5675,-510 577.5675,-516 571.5675,-522 565.5675,-522 565.5675,-522 469.5675,-522 469.5675,-522 463.5675,-522 457.5675,-516 457.5675,-510 457.5675,-510 457.5675,-462 457.5675,-462 457.5675,-456 463.5675,-450 469.5675,-450"/>
<text text-anchor="middle" x="517.5675" y="-509.2" font-family="Times,serif" font-size="11.00" fill="#c0c0c0">Shell</text>
</g>
<g id="clust8" class="cluster">
<title>cluster_\LinHUniX\McpModules\Monologger</title>
<path fill="none" stroke="#c0c0c0" d="M462.5675,-362C462.5675,-362 572.5675,-362 572.5675,-362 578.5675,-362 584.5675,-368 584.5675,-374 584.5675,-374 584.5675,-422 584.5675,-422 584.5675,-428 578.5675,-434 572.5675,-434 572.5675,-434 462.5675,-434 462.5675,-434 456.5675,-434 450.5675,-428 450.5675,-422 450.5675,-422 450.5675,-374 450.5675,-374 450.5675,-368 456.5675,-362 462.5675,-362"/>
<text text-anchor="middle" x="517.5675" y="-421.2" font-family="Times,serif" font-size="11.00" fill="#c0c0c0">Monologger</text>
</g>
<g id="clust9" class="cluster">
<title>cluster_\LinHUniX\McpModules\DbMig</title>
<path fill="none" stroke="#c0c0c0" d="M464.5675,-246C464.5675,-246 570.5675,-246 570.5675,-246 576.5675,-246 582.5675,-252 582.5675,-258 582.5675,-258 582.5675,-342 582.5675,-342 582.5675,-348 576.5675,-354 570.5675,-354 570.5675,-354 464.5675,-354 464.5675,-354 458.5675,-354 452.5675,-348 452.5675,-342 452.5675,-342 452.5675,-258 452.5675,-258 452.5675,-252 458.5675,-246 464.5675,-246"/>
<text text-anchor="middle" x="517.5675" y="-341.2" font-family="Times,serif" font-size="11.00" fill="#c0c0c0">DbMig</text>
</g>
<g id="clust10" class="cluster">
<title>cluster_\LinHUniX\McpModules\DbMig\Shell</title>
<path fill="none" stroke="#c0c0c0" d="M472.5675,-254C472.5675,-254 562.5675,-254 562.5675,-254 568.5675,-254 574.5675,-260 574.5675,-266 574.5675,-266 574.5675,-314 574.5675,-314 574.5675,-320 568.5675,-326 562.5675,-326 562.5675,-326 472.5675,-326 472.5675,-326 466.5675,-326 460.5675,-320 460.5675,-314 460.5675,-314 460.5675,-266 460.5675,-266 460.5675,-260 466.5675,-254 472.5675,-254"/>
<text text-anchor="middle" x="517.5675" y="-313.2" font-family="Times,serif" font-size="11.00" fill="#c0c0c0">Shell</text>
</g>
<g id="clust11" class="cluster">
<title>cluster_\LinHUniX\McpModules\DbLegacy</title>
<path fill="none" stroke="#c0c0c0" d="M448.0675,-130C448.0675,-130 587.0675,-130 587.0675,-130 593.0675,-130 599.0675,-136 599.0675,-142 599.0675,-142 599.0675,-226 599.0675,-226 599.0675,-232 593.0675,-238 587.0675,-238 587.0675,-238 448.0675,-238 448.0675,-238 442.0675,-238 436.0675,-232 436.0675,-226 436.0675,-226 436.0675,-142 436.0675,-142 436.0675,-136 442.0675,-130 448.0675,-130"/>
<text text-anchor="middle" x="517.5675" y="-225.2" font-family="Times,serif" font-size="11.00" fill="#c0c0c0">DbLegacy</text>
</g>
<g id="clust12" class="cluster">
<title>cluster_\LinHUniX\McpModules\DbLegacy\Loader</title>
<path fill="none" stroke="#c0c0c0" d="M456.0675,-138C456.0675,-138 579.0675,-138 579.0675,-138 585.0675,-138 591.0675,-144 591.0675,-150 591.0675,-150 591.0675,-198 591.0675,-198 591.0675,-204 585.0675,-210 579.0675,-210 579.0675,-210 456.0675,-210 456.0675,-210 450.0675,-210 444.0675,-204 444.0675,-198 444.0675,-198 444.0675,-150 444.0675,-150 444.0675,-144 450.0675,-138 456.0675,-138"/>
<text text-anchor="middle" x="517.5675" y="-197.2" font-family="Times,serif" font-size="11.00" fill="#c0c0c0">Loader</text>
</g>
<g id="clust13" class="cluster">
<title>cluster_\LinHUniX\LnxMcpAdmHttpd</title>
<path fill="none" stroke="#c0c0c0" d="M444.5675,-586C444.5675,-586 590.5675,-586 590.5675,-586 596.5675,-586 602.5675,-592 602.5675,-598 602.5675,-598 602.5675,-790 602.5675,-790 602.5675,-796 596.5675,-802 590.5675,-802 590.5675,-802 444.5675,-802 444.5675,-802 438.5675,-802 432.5675,-796 432.5675,-790 432.5675,-790 432.5675,-598 432.5675,-598 432.5675,-592 438.5675,-586 444.5675,-586"/>
<text text-anchor="middle" x="517.5675" y="-789.2" font-family="Times,serif" font-size="11.00" fill="#c0c0c0">LnxMcpAdmHttpd</text>
</g>
<g id="clust14" class="cluster">
<title>cluster_\LinHUniX\LnxMcpAdmHttpd\Controller</title>
<path fill="none" stroke="#c0c0c0" d="M452.5675,-594C452.5675,-594 582.5675,-594 582.5675,-594 588.5675,-594 594.5675,-600 594.5675,-606 594.5675,-606 594.5675,-762 594.5675,-762 594.5675,-768 588.5675,-774 582.5675,-774 582.5675,-774 452.5675,-774 452.5675,-774 446.5675,-774 440.5675,-768 440.5675,-762 440.5675,-762 440.5675,-606 440.5675,-606 440.5675,-600 446.5675,-594 452.5675,-594"/>
<text text-anchor="middle" x="517.5675" y="-761.2" font-family="Times,serif" font-size="11.00" fill="#c0c0c0">Controller</text>
</g>
<g id="clust15" class="cluster">
<title>cluster_\LinHUniX\LnxMcpAdm</title>
<path fill="none" stroke="#c0c0c0" d="M458.0675,-1088C458.0675,-1088 577.0675,-1088 577.0675,-1088 583.0675,-1088 589.0675,-1094 589.0675,-1100 589.0675,-1100 589.0675,-1184 589.0675,-1184 589.0675,-1190 583.0675,-1196 577.0675,-1196 577.0675,-1196 458.0675,-1196 458.0675,-1196 452.0675,-1196 446.0675,-1190 446.0675,-1184 446.0675,-1184 446.0675,-1100 446.0675,-1100 446.0675,-1094 452.0675,-1088 458.0675,-1088"/>
<text text-anchor="middle" x="517.5675" y="-1183.2" font-family="Times,serif" font-size="11.00" fill="#c0c0c0">LnxMcpAdm</text>
</g>
<g id="clust16" class="cluster">
<title>cluster_\LinHUniX\LnxMcpAdm\Controller</title>
<path fill="none" stroke="#c0c0c0" d="M466.0675,-1096C466.0675,-1096 569.0675,-1096 569.0675,-1096 575.0675,-1096 581.0675,-1102 581.0675,-1108 581.0675,-1108 581.0675,-1156 581.0675,-1156 581.0675,-1162 575.0675,-1168 569.0675,-1168 569.0675,-1168 466.0675,-1168 466.0675,-1168 460.0675,-1168 454.0675,-1162 454.0675,-1156 454.0675,-1156 454.0675,-1108 454.0675,-1108 454.0675,-1102 460.0675,-1096 466.0675,-1096"/>
<text text-anchor="middle" x="517.5675" y="-1155.2" font-family="Times,serif" font-size="11.00" fill="#c0c0c0">Controller</text>
</g>
<!-- \\LinHUniX\\LnxMcpAdmShell\\Controller\\httpdController -->
<g id="node1" class="node">
<title>\\LinHUniX\\LnxMcpAdmShell\\Controller\\httpdController</title>
<polygon fill="none" stroke="#000000" points="576.5675,-1024 458.5675,-1024 458.5675,-988 576.5675,-988 576.5675,-1024"/>
<text text-anchor="middle" x="517.5675" y="-1003.2" font-family="Courier,monospace" font-size="11.00" fill="#000000">httpdController</text>
</g>
<!-- \\LinHUniX\\Mcp\\Model\\mcpBaseModelClass -->
<g id="node15" class="node">
<title>\\LinHUniX\\Mcp\\Model\\mcpBaseModelClass</title>
<ellipse fill="none" stroke="#000000" cx="183.2837" cy="-871" rx="179.2682" ry="18"/>
<text text-anchor="middle" x="183.2837" y="-867.3" font-family="Times,serif" font-size="14.00" fill="#c0c0c0">\LinHUniX\Mcp\Model\mcpBaseModelClass</text>
</g>
<!-- \\LinHUniX\\LnxMcpAdmShell\\Controller\\httpdController&#45;&gt;\\LinHUniX\\Mcp\\Model\\mcpBaseModelClass -->
<g id="edge1" class="edge">
<title>\\LinHUniX\\LnxMcpAdmShell\\Controller\\httpdController&#45;&gt;\\LinHUniX\\Mcp\\Model\\mcpBaseModelClass</title>
<path fill="none" stroke="#000000" d="M458.4098,-994.0638C441.4516,-989.9852 423.0878,-984.9288 406.5675,-979 340.1607,-955.1681 267.2942,-917.6022 223.4388,-893.6447"/>
<polygon fill="none" stroke="#000000" points="224.9828,-890.4995 214.5336,-888.7488 221.6104,-896.6336 224.9828,-890.4995"/>
</g>
<!-- \\LinHUniX\\LnxMcpAdmShell\\Controller\\defaultController -->
<g id="node2" class="node">
<title>\\LinHUniX\\LnxMcpAdmShell\\Controller\\defaultController</title>
<polygon fill="none" stroke="#000000" points="583.0675,-970 452.0675,-970 452.0675,-934 583.0675,-934 583.0675,-970"/>
<text text-anchor="middle" x="517.5675" y="-949.2" font-family="Courier,monospace" font-size="11.00" fill="#000000">defaultController</text>
</g>
<!-- \\LinHUniX\\LnxMcpAdmShell\\Controller\\defaultController&#45;&gt;\\LinHUniX\\Mcp\\Model\\mcpBaseModelClass -->
<g id="edge2" class="edge">
<title>\\LinHUniX\\LnxMcpAdmShell\\Controller\\defaultController&#45;&gt;\\LinHUniX\\Mcp\\Model\\mcpBaseModelClass</title>
<path fill="none" stroke="#000000" d="M451.9226,-936.0937C397.3706,-922.8752 319.6034,-904.0315 261.7678,-890.0174"/>
<polygon fill="none" stroke="#000000" points="262.4817,-886.5892 251.9387,-887.6357 260.8332,-893.3923 262.4817,-886.5892"/>
</g>
<!-- \\LinHUniX\\LnxMcpAdmShell\\Controller\\pharizeController -->
<g id="node3" class="node">
<title>\\LinHUniX\\LnxMcpAdmShell\\Controller\\pharizeController</title>
<polygon fill="none" stroke="#000000" points="583.0675,-916 452.0675,-916 452.0675,-880 583.0675,-880 583.0675,-916"/>
<text text-anchor="middle" x="517.5675" y="-895.2" font-family="Courier,monospace" font-size="11.00" fill="#000000">pharizeController</text>
</g>
<!-- \\LinHUniX\\LnxMcpAdmShell\\Controller\\pharizeController&#45;&gt;\\LinHUniX\\Mcp\\Model\\mcpBaseModelClass -->
<g id="edge8" class="edge">
<title>\\LinHUniX\\LnxMcpAdmShell\\Controller\\pharizeController&#45;&gt;\\LinHUniX\\Mcp\\Model\\mcpBaseModelClass</title>
<path fill="none" stroke="#000000" d="M451.9226,-892.6979C417.861,-889.9467 374.7486,-886.4646 333.0885,-883.0997"/>
<polygon fill="none" stroke="#000000" points="333.3517,-879.6096 323.1024,-882.2931 332.7881,-886.5869 333.3517,-879.6096"/>
</g>
<!-- \\LinHUniX\\LnxMcpAdmShell\\Controller\\checksintaxController -->
<g id="node4" class="node">
<title>\\LinHUniX\\LnxMcpAdmShell\\Controller\\checksintaxController</title>
<polygon fill="none" stroke="#000000" points="596.5675,-862 438.5675,-862 438.5675,-826 596.5675,-826 596.5675,-862"/>
<text text-anchor="middle" x="517.5675" y="-841.2" font-family="Courier,monospace" font-size="11.00" fill="#000000">checksintaxController</text>
</g>
<!-- \\LinHUniX\\LnxMcpAdmShell\\Controller\\checksintaxController&#45;&gt;\\LinHUniX\\Mcp\\Model\\mcpBaseModelClass -->
<g id="edge9" class="edge">
<title>\\LinHUniX\\LnxMcpAdmShell\\Controller\\checksintaxController&#45;&gt;\\LinHUniX\\Mcp\\Model\\mcpBaseModelClass</title>
<path fill="none" stroke="#000000" d="M438.3469,-850.3986C406.8454,-852.943 369.5191,-855.9578 333.2794,-858.8849"/>
<polygon fill="none" stroke="#000000" points="332.7782,-855.4139 323.0925,-859.7077 333.3418,-862.3912 332.7782,-855.4139"/>
</g>
<!-- \\LinHUniX\\McpModules\\Chk\\Shell\\mcpCheckModel -->
<g id="node5" class="node">
<title>\\LinHUniX\\McpModules\\Chk\\Shell\\mcpCheckModel</title>
<polygon fill="none" stroke="#000000" points="569.5675,-494 465.5675,-494 465.5675,-458 569.5675,-458 569.5675,-494"/>
<text text-anchor="middle" x="517.5675" y="-473.2" font-family="Courier,monospace" font-size="11.00" fill="#000000">mcpCheckModel</text>
</g>
<!-- \\LinHUniX\\McpModules\\Monologger\\errorLogHandler -->
<g id="node6" class="node">
<title>\\LinHUniX\\McpModules\\Monologger\\errorLogHandler</title>
<polygon fill="none" stroke="#000000" points="576.5675,-406 458.5675,-406 458.5675,-370 576.5675,-370 576.5675,-406"/>
<text text-anchor="middle" x="517.5675" y="-385.2" font-family="Courier,monospace" font-size="11.00" fill="#000000">errorLogHandler</text>
</g>
<!-- \\Monolog\\Handler\\AbstractProcessingHandler -->
<g id="node16" class="node">
<title>\\Monolog\\Handler\\AbstractProcessingHandler</title>
<ellipse fill="none" stroke="#000000" cx="183.2837" cy="-388" rx="183.0677" ry="18"/>
<text text-anchor="middle" x="183.2837" y="-384.3" font-family="Times,serif" font-size="14.00" fill="#c0c0c0">\Monolog\Handler\AbstractProcessingHandler</text>
</g>
<!-- \\LinHUniX\\McpModules\\Monologger\\errorLogHandler&#45;&gt;\\Monolog\\Handler\\AbstractProcessingHandler -->
<g id="edge3" class="edge">
<title>\\LinHUniX\\McpModules\\Monologger\\errorLogHandler&#45;&gt;\\Monolog\\Handler\\AbstractProcessingHandler</title>
<path fill="none" stroke="#000000" d="M458.1894,-388C434.7593,-388 406.404,-388 376.9201,-388"/>
<polygon fill="none" stroke="#000000" points="376.8834,-384.5001 366.8834,-388 376.8834,-391.5001 376.8834,-384.5001"/>
</g>
<!-- \\LinHUniX\\McpModules\\DbMig\\Shell\\mcpDbMigrate -->
<g id="node7" class="node">
<title>\\LinHUniX\\McpModules\\DbMig\\Shell\\mcpDbMigrate</title>
<polygon fill="none" stroke="#000000" points="566.5675,-298 468.5675,-298 468.5675,-262 566.5675,-262 566.5675,-298"/>
<text text-anchor="middle" x="517.5675" y="-277.2" font-family="Courier,monospace" font-size="11.00" fill="#000000">mcpDbMigrate</text>
</g>
<!-- \\LinHUniX\\McpModules\\DbLegacy\\Loader\\mysqlLegacyLoader -->
<g id="node8" class="node">
<title>\\LinHUniX\\McpModules\\DbLegacy\\Loader\\mysqlLegacyLoader</title>
<polygon fill="none" stroke="#000000" points="583.0675,-182 452.0675,-182 452.0675,-146 583.0675,-146 583.0675,-182"/>
<text text-anchor="middle" x="517.5675" y="-161.2" font-family="Courier,monospace" font-size="11.00" fill="#000000">mysqlLegacyLoader</text>
</g>
<!-- \\LinHUniX\\LnxMcpAdmHttpd\\Controller\\leftmenuController -->
<g id="node9" class="node">
<title>\\LinHUniX\\LnxMcpAdmHttpd\\Controller\\leftmenuController</title>
<polygon fill="none" stroke="#000000" points="586.5675,-746 448.5675,-746 448.5675,-710 586.5675,-710 586.5675,-746"/>
<text text-anchor="middle" x="517.5675" y="-725.2" font-family="Courier,monospace" font-size="11.00" fill="#000000">leftmenuController</text>
</g>
<!-- \\LinHUniX\\LnxMcpAdmHttpd\\Controller\\leftmenuController&#45;&gt;\\LinHUniX\\Mcp\\Model\\mcpBaseModelClass -->
<g id="edge4" class="edge">
<title>\\LinHUniX\\LnxMcpAdmHttpd\\Controller\\leftmenuController&#45;&gt;\\LinHUniX\\Mcp\\Model\\mcpBaseModelClass</title>
<path fill="none" stroke="#000000" d="M475.2302,-746.111C413.6922,-772.4358 299.7139,-821.1934 233.8488,-849.3693"/>
<polygon fill="none" stroke="#000000" points="232.3096,-846.2208 224.4921,-853.3719 235.0628,-852.6567 232.3096,-846.2208"/>
</g>
<!-- \\LinHUniX\\LnxMcpAdmHttpd\\Controller\\mainpageController -->
<g id="node10" class="node">
<title>\\LinHUniX\\LnxMcpAdmHttpd\\Controller\\mainpageController</title>
<polygon fill="none" stroke="#000000" points="586.5675,-692 448.5675,-692 448.5675,-656 586.5675,-656 586.5675,-692"/>
<text text-anchor="middle" x="517.5675" y="-671.2" font-family="Courier,monospace" font-size="11.00" fill="#000000">mainpageController</text>
</g>
<!-- \\LinHUniX\\LnxMcpAdmHttpd\\Controller\\mainpageController&#45;&gt;\\LinHUniX\\Mcp\\Model\\mcpBaseModelClass -->
<g id="edge5" class="edge">
<title>\\LinHUniX\\LnxMcpAdmHttpd\\Controller\\mainpageController&#45;&gt;\\LinHUniX\\Mcp\\Model\\mcpBaseModelClass</title>
<path fill="none" stroke="#000000" d="M448.5338,-686.1184C434.2793,-689.9007 419.6374,-694.7722 406.5675,-701 326.573,-739.1174 247.5428,-808.8793 208.4829,-846.0828"/>
<polygon fill="none" stroke="#000000" points="205.9982,-843.6165 201.2154,-853.0704 210.8498,-848.6624 205.9982,-843.6165"/>
</g>
<!-- \\LinHUniX\\LnxMcpAdmHttpd\\Controller\\defaultController -->
<g id="node11" class="node">
<title>\\LinHUniX\\LnxMcpAdmHttpd\\Controller\\defaultController</title>
<polygon fill="none" stroke="#000000" points="583.0675,-638 452.0675,-638 452.0675,-602 583.0675,-602 583.0675,-638"/>
<text text-anchor="middle" x="517.5675" y="-617.2" font-family="Courier,monospace" font-size="11.00" fill="#000000">defaultController</text>
</g>
<!-- \\LinHUniX\\LnxMcpAdmHttpd\\Controller\\defaultController&#45;&gt;\\LinHUniX\\Mcp\\Model\\mcpBaseModelClass -->
<g id="edge7" class="edge">
<title>\\LinHUniX\\LnxMcpAdmHttpd\\Controller\\defaultController&#45;&gt;\\LinHUniX\\Mcp\\Model\\mcpBaseModelClass</title>
<path fill="none" stroke="#000000" d="M451.916,-629.6999C436.4172,-633.6598 420.3928,-639.2157 406.5675,-647 315.3555,-698.3566 236.1713,-797.4406 201.6812,-844.6912"/>
<polygon fill="none" stroke="#000000" points="198.7805,-842.7298 195.7684,-852.8875 204.4575,-846.8252 198.7805,-842.7298"/>
</g>
<!-- \\LinHUniX\\LnxMcpAdm\\Controller\\initController -->
<g id="node12" class="node">
<title>\\LinHUniX\\LnxMcpAdm\\Controller\\initController</title>
<polygon fill="none" stroke="#000000" points="573.0675,-1140 462.0675,-1140 462.0675,-1104 573.0675,-1104 573.0675,-1140"/>
<text text-anchor="middle" x="517.5675" y="-1119.2" font-family="Courier,monospace" font-size="11.00" fill="#000000">initController</text>
</g>
<!-- \\LinHUniX\\LnxMcpAdm\\Controller\\initController&#45;&gt;\\LinHUniX\\Mcp\\Model\\mcpBaseModelClass -->
<g id="edge6" class="edge">
<title>\\LinHUniX\\LnxMcpAdm\\Controller\\initController&#45;&gt;\\LinHUniX\\Mcp\\Model\\mcpBaseModelClass</title>
<path fill="none" stroke="#000000" d="M484.1836,-1103.949C461.6943,-1091.358 431.6698,-1073.7007 406.5675,-1056 332.1268,-1003.5086 251.3726,-932.8013 210.4162,-895.8496"/>
<polygon fill="none" stroke="#000000" points="212.531,-893.0429 202.7692,-888.9248 207.8323,-898.2316 212.531,-893.0429"/>
</g>
<!-- \\simple_html_dom_node -->
<g id="node13" class="node">
<title>\\simple_html_dom_node</title>
<polygon fill="none" stroke="#000000" points="593.5675,-106 441.5675,-106 441.5675,-70 593.5675,-70 593.5675,-106"/>
<text text-anchor="middle" x="517.5675" y="-85.2" font-family="Courier,monospace" font-size="11.00" fill="#000000">simple_html_dom_node</text>
</g>
<!-- \\simple_html_dom -->
<g id="node14" class="node">
<title>\\simple_html_dom</title>
<polygon fill="none" stroke="#000000" points="576.5675,-52 458.5675,-52 458.5675,-16 576.5675,-16 576.5675,-52"/>
<text text-anchor="middle" x="517.5675" y="-31.2" font-family="Courier,monospace" font-size="11.00" fill="#000000">simple_html_dom</text>
</g>
</g>
</svg>
